<?xml version="1.0"?>
<svg width="88" height="62.00000000000001" xmlns="http://www.w3.org/2000/svg" xmlns:svg="http://www.w3.org/2000/svg" enable-background="new 0 0 500 500.001" version="1.1" xml:space="preserve">
 <g class="layer">
  <title>Layer 1</title>
  <g id="Background"/>
  <g id="Objects">
   <g id="svg_19">
    <path d="m56.48,9.75c-0.07,0.47 0.25,0.93 0.74,1.03c-0.1,0.12 -0.18,0.28 -0.2,0.46c-0.07,0.52 0.29,1.03 0.81,1.13c0.43,0.08 0.81,-0.15 0.97,-0.53l0.57,0.24c0.67,0.97 1.43,1.82 2.09,2.48l0.28,0.33l-11.65,8.44c-0.08,0.06 -0.13,0.14 -0.14,0.23c-0.01,0.09 0.01,0.17 0.06,0.24l-47.42,34.3l-1.43,2.39l-0.01,0l-0.77,1.3l5.09,-1.41l48,-33.17c0.07,0.06 0.14,0.11 0.21,0.16c0.03,0.02 0.07,0.04 0.12,0.05c0.09,0.03 0.2,0.01 0.28,-0.05l10.74,-7.57c0.28,0.78 0.78,1.92 1.55,3.04l-0.01,0.58c-0.4,0.03 -0.75,0.3 -0.85,0.71c-0.12,0.5 0.19,1 0.69,1.12c0.17,0.04 0.34,0.03 0.5,-0.02c-0.11,0.49 0.2,0.98 0.69,1.1c0.5,0.12 1,-0.19 1.12,-0.69c0.07,-0.28 0,-0.56 -0.17,-0.77c0.36,-0.06 0.67,-0.33 0.76,-0.7c0.12,-0.5 -0.19,-1 -0.69,-1.12c-0.25,-0.06 -0.5,-0.02 -0.71,0.11l-0.42,-0.6c0,0 -0.55,-2.85 -1.51,-4.62c0.19,-1.04 1.1,-1.61 1.15,-1.64c0.01,-0.01 0.02,-0.02 0.03,-0.03c9.64,-4.26 14.12,-8.88 15.02,-9.89c-0.02,0.19 0,0.37 0.14,0.44c0.65,0.3 1.31,-1.39 1.31,-1.39c-0.11,-0.1 -0.21,-0.2 -0.3,-0.3c0.3,0.24 0.66,0.42 1.06,0.51c1.49,0.36 2.99,-0.55 3.35,-2.04c0.36,-1.49 -0.56,-2.99 -2.05,-3.35c-1.49,-0.36 -2.99,0.56 -3.35,2.05c-0.11,0.45 -0.1,0.91 0.01,1.33c-0.11,-0.28 -0.15,-0.46 -0.15,-0.46s-1.29,0.53 -1.66,1.05c-10.68,4.81 -14.82,9.55 -15.73,10.72c-0.04,-0.03 -0.08,-0.05 -0.12,-0.06c-0.01,0 -0.02,0 -0.02,0l-0.21,-0.04c-1.75,-1.85 -4.33,-3.52 -4.33,-3.52l-0.46,-0.64c0.19,-0.14 0.31,-0.35 0.33,-0.6c0.03,-0.49 -0.35,-0.94 -0.84,-1.01c-0.36,-0.06 -0.69,0.1 -0.86,0.39c-0.14,-0.22 -0.36,-0.38 -0.63,-0.42c-0.47,-0.08 -0.91,0.24 -0.98,0.71zm25.51,-3.87c0.1,-0.06 0.16,-0.1 0.16,-0.1s-0.04,0.1 -0.09,0.23l-0.07,-0.13z" fill="#474747" id="svg_20"/>
    <path d="m30.52,9.04c-0.27,0.04 -0.49,0.2 -0.63,0.42c-0.17,-0.29 -0.5,-0.45 -0.86,-0.39c-0.49,0.07 -0.87,0.52 -0.83,1.01c0.01,0.25 0.13,0.46 0.32,0.6l-0.46,0.64c0,0 -2.58,1.67 -4.33,3.52l-0.21,0.04c0,0 -0.01,0 -0.02,0c-0.04,0.01 -0.08,0.03 -0.12,0.06c-0.91,-1.17 -5.05,-5.92 -15.73,-10.72c-0.36,-0.52 -1.66,-1.05 -1.66,-1.05s-0.03,0.18 -0.15,0.46c0.11,-0.42 0.12,-0.88 0.01,-1.34c-0.36,-1.48 -1.86,-2.4 -3.35,-2.04c-1.49,0.36 -2.4,1.86 -2.04,3.35c0.36,1.49 1.85,2.4 3.34,2.04c0.4,-0.09 0.76,-0.27 1.06,-0.51c-0.09,0.1 -0.19,0.2 -0.3,0.3c0,0 0.67,1.69 1.31,1.39c0.14,-0.07 0.16,-0.25 0.14,-0.44c0.91,1.01 5.38,5.63 15.02,9.88c0.01,0.02 0.02,0.03 0.03,0.04c0.05,0.03 0.96,0.6 1.15,1.64c-0.96,1.77 -1.5,4.62 -1.5,4.62l-0.43,0.6c-0.2,-0.13 -0.46,-0.18 -0.71,-0.11c-0.5,0.12 -0.81,0.62 -0.69,1.12c0.09,0.37 0.4,0.64 0.76,0.7c-0.17,0.21 -0.24,0.49 -0.17,0.77c0.12,0.5 0.62,0.81 1.12,0.69c0.5,-0.12 0.8,-0.61 0.69,-1.1c0.16,0.05 0.33,0.06 0.5,0.02c0.5,-0.12 0.81,-0.62 0.69,-1.12c-0.1,-0.41 -0.45,-0.68 -0.85,-0.71l-0.01,-0.59c0.78,-1.11 1.27,-2.25 1.55,-3.03l10.74,7.57c0.09,0.06 0.19,0.07 0.29,0.05c0.04,-0.01 0.08,-0.03 0.12,-0.05c0.06,-0.05 0.13,-0.11 0.2,-0.16l48,33.17l5.09,1.41l-0.77,-1.3l0,0l-1.44,-2.39l-47.41,-34.3c0.04,-0.07 0.07,-0.15 0.05,-0.24c-0.01,-0.09 -0.06,-0.17 -0.14,-0.23l-11.65,-8.44l0.28,-0.33c0.66,-0.66 1.42,-1.51 2.09,-2.48l0.57,-0.24c0.16,0.38 0.54,0.61 0.97,0.53c0.52,-0.1 0.88,-0.61 0.81,-1.14c-0.02,-0.17 -0.1,-0.33 -0.2,-0.45c0.49,-0.1 0.81,-0.56 0.74,-1.03c-0.07,-0.47 -0.5,-0.79 -0.98,-0.71zm-24.6,-3.03c-0.04,-0.13 -0.09,-0.23 -0.09,-0.23s0.07,0.05 0.17,0.1l-0.08,0.13z" fill="#474747" id="svg_21"/>
   </g>
  </g>
  <g id="Designed_by_Freepik"/>
 </g>
</svg>