<?xml version="1.0"?>
<svg width="103" height="43" xmlns="http://www.w3.org/2000/svg" xmlns:svg="http://www.w3.org/2000/svg" enable-background="new 0 0 800 800" version="1.1" xml:space="preserve">
 <g class="layer">
  <title>Layer 1</title>
  <g id="Objects" transform="rotate(-180 51.3799 21.4035)">
   <g id="svg_8">
    <path d="m34.57,18.66c10.5,-1.55 14.3,0.26 14.92,-0.8c0.62,-1.06 -3.36,-1.49 -7.46,-3.45c-4.1,-1.96 -2.3,-7.81 -0.81,-7c1.49,0.81 -0.81,3.55 1.55,5.16c2.36,1.62 4.3,-0.37 8.39,2.47c4.09,2.85 3.41,6.36 3.41,6.36s0.68,3.52 -3.41,6.36c-4.09,2.84 -6.03,0.86 -8.39,2.47c-2.36,1.62 -0.06,4.35 -1.55,5.16c-1.49,0.81 -3.29,-5.04 0.81,-7c4.1,-1.96 8.08,-2.39 7.46,-3.44s-4.42,0.74 -14.92,-0.81c-5.43,-0.81 -14.24,-1.66 -21.62,-1.72c-6.89,-0.06 -12.56,0.71 -12.56,-1.03c0,-1.76 5.34,-1.01 12.33,-1.07c7.33,-0.05 16.47,-0.88 21.85,-1.68l0,0.02z" fill="#000000" id="svg_9"/>
    <path d="m59.64,18.18c2.11,0 2.58,2.43 2.58,2.43l15.71,0c0,-0.81 -3.45,-1.14 -8.5,-4.23c-5.05,-3.09 -7.07,-8.72 -6.91,-12.63c0.15,-3.92 1.59,-4.84 1.59,-2.42c0,2.42 1.86,5.51 5.78,7.11c3.91,1.59 2.78,4.73 2.11,5.56c-0.67,0.82 -3.15,1.33 2.93,3.96c6.08,2.63 12.98,1.6 14.38,1.76c1.39,0.15 1.24,1.68 1.24,1.68s0.16,1.53 -1.24,1.69c-1.39,0.15 -8.3,-0.88 -14.38,1.75c-6.09,2.63 -3.61,3.14 -2.93,3.96c0.66,0.83 1.8,3.97 -2.11,5.57c-3.92,1.59 -5.78,4.68 -5.78,7.11c0,2.42 -1.44,1.49 -1.59,-2.43c-0.16,-3.91 1.86,-9.54 6.91,-12.63c5.05,-3.09 8.5,-3.42 8.5,-4.22l-15.71,0c0,0 -0.46,2.42 -2.58,2.42c-2.11,0 -2.79,-1.41 -2.79,-3.23c0,-1.82 0.67,-3.23 2.79,-3.23l0,0.02z" fill="#000000" id="svg_10"/>
    <path d="m94.62,21.41c0,-1.44 -0.31,-0.48 -2.75,-2.81c-2.43,-2.31 -2.59,-7.46 -1.74,-7.42c0.86,0.04 0.78,3.29 2.87,3.79s2.28,-1.43 3.05,-1.17c0.77,0.28 -0.04,1.13 -0.08,2.71c-0.04,1.59 2.08,3.13 4.37,3.33s2.02,1.56 2.02,1.56s0.27,1.37 -2.02,1.57c-2.27,0.19 -4.41,1.74 -4.37,3.32c0.04,1.59 0.85,2.44 0.08,2.71c-0.77,0.27 -0.97,-1.66 -3.05,-1.16c-2.08,0.49 -2.01,3.74 -2.87,3.78c-0.85,0.04 -0.69,-5.1 1.74,-7.42c2.44,-2.32 2.75,-1.35 2.75,-2.81l0,0.02z" fill="#000000" id="svg_11"/>
   </g>
  </g>
 </g>
</svg>