<?xml version="1.0"?>
<svg width="40" height="274" xmlns="http://www.w3.org/2000/svg" xmlns:svg="http://www.w3.org/2000/svg" enable-background="new 0 0 800 800" version="1.1" xml:space="preserve">
 <g class="layer">
  <title>Layer 1</title>
  <g id="Objects" transform="rotate(-90 19.9958 136.984)">
   <g id="svg_83">
    <g id="svg_84">
     <g id="svg_85">
      <path d="m-85.03,145.39l0,-8.7c0,0 0.26,-4.43 2.9,-5.29c2.65,-0.86 2.51,3.16 0.77,3.69c-1.48,0.45 -1.07,1.22 -0.48,1.52c0.83,0.4 4.47,0.45 4.66,-4.4c0.19,-4.86 -5.44,-5.66 -7.85,-2.21l0,-3.17c0.38,-0.91 1,-2.01 2.09,-3.05c0.16,-0.17 0.25,-0.4 0.23,-0.62c-0.02,-0.23 -0.14,-0.45 -0.32,-0.59c-0.08,-0.05 -1.92,-1.44 -2.47,-4.92c-0.07,-0.41 -0.43,-0.67 -0.83,-0.65c-0.41,0.03 -0.72,0.38 -0.73,0.78c0,0.01 -0.07,1.79 -3.1,4.82c-0.17,0.16 -0.25,0.4 -0.24,0.62c0.02,0.23 0.15,0.44 0.34,0.58c0.02,0.01 1.58,1.15 2.42,2.88l0,3.33c-2.41,-3.45 -8.04,-2.65 -7.85,2.2c0.19,4.86 3.83,4.81 4.66,4.41c0.6,-0.3 0.99,-1.07 -0.49,-1.52c-1.73,-0.53 -1.86,-4.55 0.77,-3.69c2.65,0.85 2.91,5.29 2.91,5.29l0,8.7l-9.89,0c0,0 -4.43,-0.25 -5.3,-2.9c-0.85,-2.65 3.17,-2.5 3.69,-0.77c0.46,1.48 1.23,1.07 1.52,0.48c0.41,-0.82 0.46,-4.47 -4.4,-4.66c-4.85,-0.18 -5.65,5.44 -2.21,7.85l-2.89,0c-0.91,-0.38 -2.02,-1.01 -3.06,-2.08c-0.17,-0.17 -0.4,-0.26 -0.62,-0.24c-0.24,0.02 -0.45,0.14 -0.59,0.33c-0.01,0.02 -1.4,1.9 -4.92,2.47c-0.41,0.06 -0.69,0.44 -0.66,0.85c0.05,0.41 0.39,0.71 0.79,0.71c0,0 0.01,0 0.02,0c0.03,0 1.79,0.09 4.8,3.1c0.15,0.15 0.35,0.23 0.57,0.23c0.02,0 0.04,0 0.06,0c0.23,-0.02 0.44,-0.14 0.58,-0.33c0.02,-0.02 1.14,-1.58 2.87,-2.42l3.06,0c-3.44,2.41 -2.64,8.04 2.21,7.85c4.86,-0.19 4.81,-3.83 4.4,-4.66c-0.3,-0.6 -1.06,-1 -1.52,0.48c-0.52,1.74 -4.55,1.86 -3.69,-0.77c0.86,-2.64 5.3,-2.9 5.3,-2.9l9.89,0l0,8.09c0,0.48 0.38,0.86 0.85,0.86l0.91,0c0.47,0 0.85,-0.39 0.85,-0.86l0,-8.09l103.67,0l0,-2.63l-103.67,0l-0.01,0z" fill="#000000" id="svg_86"/>
     </g>
    </g>
    <g id="svg_87">
     <g id="svg_88">
      <path d="m125.02,145.39l0,-8.7c0,0 -0.25,-4.43 -2.9,-5.29c-2.64,-0.86 -2.5,3.16 -0.77,3.69c1.48,0.45 1.08,1.22 0.48,1.52c-0.82,0.4 -4.47,0.46 -4.65,-4.4c-0.19,-4.86 5.43,-5.66 7.84,-2.21l0,-3.17c-0.37,-0.91 -1,-2.01 -2.08,-3.05c-0.16,-0.17 -0.25,-0.39 -0.23,-0.62c0.01,-0.23 0.14,-0.45 0.32,-0.59c0.08,-0.05 1.91,-1.44 2.46,-4.92c0.07,-0.41 0.43,-0.67 0.83,-0.65c0.41,0.03 0.73,0.38 0.74,0.78c0,0.02 0.07,1.79 3.1,4.82c0.16,0.16 0.25,0.4 0.23,0.62c-0.02,0.23 -0.14,0.45 -0.33,0.58c-0.02,0.01 -1.58,1.15 -2.42,2.88l0,3.33c2.41,-3.45 8.04,-2.65 7.85,2.2c-0.19,4.86 -3.83,4.81 -4.66,4.41c-0.6,-0.3 -1,-1.07 0.49,-1.52c1.73,-0.53 1.86,-4.55 -0.78,-3.7c-2.64,0.86 -2.9,5.3 -2.9,5.3l0,8.7l9.89,0c0,0 4.43,-0.25 5.29,-2.9c0.86,-2.65 -3.16,-2.5 -3.68,-0.77c-0.46,1.48 -1.23,1.07 -1.52,0.48c-0.41,-0.82 -0.46,-4.47 4.4,-4.66c4.85,-0.18 5.65,5.44 2.21,7.85l2.89,0c0.91,-0.38 2.01,-1.01 3.06,-2.08c0.17,-0.17 0.39,-0.26 0.62,-0.24c0.23,0.02 0.45,0.14 0.58,0.33c0.02,0.02 1.4,1.9 4.93,2.47c0.41,0.06 0.69,0.44 0.65,0.85c-0.04,0.41 -0.38,0.71 -0.78,0.71c-0.01,0 -0.02,0 -0.02,0c-0.03,0 -1.79,0.09 -4.81,3.1c-0.15,0.15 -0.35,0.23 -0.56,0.23c-0.02,0 -0.04,0 -0.06,0c-0.24,-0.02 -0.45,-0.14 -0.58,-0.33c-0.02,-0.02 -1.14,-1.58 -2.88,-2.42l-3.05,0c3.44,2.41 2.64,8.04 -2.21,7.85c-4.86,-0.19 -4.81,-3.83 -4.4,-4.66c0.29,-0.6 1.06,-1 1.52,0.48c0.52,1.74 4.54,1.86 3.68,-0.77c-0.85,-2.64 -5.29,-2.9 -5.29,-2.9l-9.89,0l0,8.09c0,0.48 -0.39,0.86 -0.86,0.86l-0.9,0c-0.48,0 -0.86,-0.39 -0.86,-0.86l0,-8.09l-108.91,0l0,-2.63l108.91,0l0.01,0z" fill="#000000" id="svg_89"/>
     </g>
    </g>
   </g>
  </g>
 </g>
</svg>