<?xml version="1.0"?>
<svg width="2019" height="1261" xmlns="http://www.w3.org/2000/svg"
    xmlns:svg="http://www.w3.org/2000/svg" enable-background="new 0 0 5000 1261.4755" version="1.1">
    <g class="layer">
        <title>Layer 1</title>
        <g id="svg_2">
            <path
                d="m1624.51,1243.26c8.26,24.8 36.83,19.51 80.7,11.8c101.6,-17.87 297.78,-9.04 312.43,-23.6c5.64,-5.6 -12.1,-21.75 -39.42,-35.87c-56.73,-29.34 -98.62,-21.93 -297.65,-6.63l10.36,-56.49c14.16,-77.28 13.1,-762.17 -1.45,-933.28l-11.8,-138.78l65.32,24.21c80.13,29.7 186.62,17.51 244.45,-27.98c58.3,-45.86 27.95,-67.18 -60.41,-42.44c-56.87,15.89 -88.4,15.89 -172.62,0c-153.87,-29.03 -154.74,-28.15 -143.05,146.65c5.4,80.83 12.58,163.91 15.95,184.62c9.98,61.33 7.64,794.72 -2.66,835.77c-5.22,20.74 -5.28,48.65 -0.15,62.02z"
                id="svg_3" />
            <path
                d="m1490.41,1071.15c-36.67,16.71 -47.94,42.2 -27.62,62.52l0,-0.01c21.25,21.25 68.24,8.44 105.44,-28.75c32.87,-32.88 37.53,-48.17 30.56,-100.21c-4.53,-33.78 -22.03,-80.06 -38.88,-102.85c-29.99,-40.57 -30.04,-41.87 -2.03,-61.7c48.24,-34.17 44.71,-77.19 -7.23,-88.21c-24.85,-5.27 -65.52,-19.3 -90.37,-31.17c-37.88,-18.1 -45.92,-31.62 -49.72,-83.64c-6.35,-86.76 26.23,-117.21 112.71,-105.36c64.31,8.82 65.03,8.42 65.03,-36.7c0,-28.81 -13.32,-57.96 -36.17,-79.14c-31.06,-28.78 -33.4,-37.32 -16.59,-60.31c33.69,-46.09 40.55,-124.8 15.98,-183.6c-19.41,-46.45 -28.96,-53.82 -64.41,-49.74c-54.35,6.27 -61.61,47.13 -12.35,69.57c64.74,29.49 46.18,116.82 -57.21,269.26c-83.44,123.04 -68.11,261.32 44.15,398.17c52.46,63.94 66.36,92.82 66.36,137.8c0,46.09 -7.16,60.17 -37.65,74.07z"
                id="svg_4" />
            <path
                d="m1065.58,843.99c35.84,-17.35 82.87,-50.21 104.5,-73.01c79.13,-83.41 67.89,-225.82 -22.38,-283.61c-179.47,-114.9 -181.79,-103.63 -170.16,-165.67c7.12,-37.93 4.32,-51.54 -10.59,-51.54c-58.81,0 -77.27,102.93 -26.29,146.58c35.56,30.44 39.47,76.7 7.53,88.95c-29.65,11.39 -29.05,59.99 0.89,71.48c12.91,4.95 53.86,2.2 90.99,-6.12c77.27,-17.32 126.52,-0.11 126.52,44.2c0,39.59 -25.79,55.59 -124.94,77.5c-95.57,21.11 -112.75,34.56 -85.76,67.09c14.08,16.97 11.19,29.9 -13.76,61.62c-37.44,47.6 -40.58,106.9 -8.13,153.23l-0.01,-0.01c31.86,45.49 57.51,42.96 45.6,-4.49c-13.53,-53.89 11,-89.9 85.99,-126.2z"
                id="svg_5" />
            <path
                d="m859.87,737.06c11.3,0 20.56,-10.71 20.56,-23.79c0,-18.96 -9.94,-21.65 -48.95,-13.25c-57.33,12.35 -128.42,46.18 -165.67,78.84c-38.49,33.75 -34.45,116.5 7.11,145.61l0,0c38.34,26.85 110.61,31.14 125.26,7.44c5.44,-8.81 -0.94,-27.98 -14.17,-42.61c-13.24,-14.62 -24.07,-40.82 -24.07,-58.2c0,-33.16 64.69,-94.04 99.93,-94.04z"
                id="svg_6" />
            <path
                d="m574.98,615.77c-13.92,-103.74 -119.23,-224.68 -114.06,-130.99c1.02,18.64 -2.83,44.88 -8.57,58.31c-12.81,29.97 27.26,73.48 67.68,73.48c35.47,0 44.61,45.18 -7.59,45.18c-42.25,0 -63.28,44.38 -40.87,86.25c27.15,50.72 -46,74.01 -9.43,96.6l-0.01,0c49.2,30.41 126.58,-126.47 112.85,-228.83z"
                id="svg_7" />
            <path
                d="m1299.78,748.99c19.59,-3.78 25.44,-24.16 27.22,-94.97c2.75,-109.45 -5.06,-142.88 -33.41,-142.88c-11.87,0 -22.26,5.08 -23.11,11.3c-7.39,54.54 -9.96,208.19 -3.65,218.41c-1.3,0 9.95,12.56 32.95,8.14z"
                id="svg_8" />
            <path
                d="m213.62,597.88c20.32,13.46 28.85,40.11 21.91,61.95c-6.9,21.74 -28.74,37.82 -51.55,37.97c-22.81,0.15 -44.85,-15.64 -52.04,-37.29c-15.99,-48.11 40.06,-90.21 81.68,-62.63z"
                id="svg_9" />
            <path
                d="m917.87,627.89c-144.89,9.05 -191.04,0.38 -231.98,-43.57c-45.68,-49.03 -70.49,-28.48 -64,53.01l0,0c5.83,73.41 20.68,83.37 69.38,46.52c46.71,-35.33 216.99,-13.35 329.63,-31.96c98.32,-16.24 29.53,-32.27 -103.03,-24z"
                id="svg_10" />
            <path
                d="m7.51,668.92c-30.63,-45.1 40.41,-92.24 70.23,-46.73c12.1,18.47 6.3,46.29 -12.17,58.39c-18.31,11.99 -45.79,6.41 -58.06,-11.66z"
                id="svg_11" />
            <path
                d="m1551.98,670.83c-24.96,27.67 -65.73,19.47 -82.64,-6.36c-27.17,-41.51 16.27,-95.56 62.65,-77.95c31.92,12.12 46.71,54.7 19.99,84.31z"
                id="svg_12" />
            <path
                d="m657.87,368.92c-64.72,45.32 -23.89,129.06 90.54,185.7c70.19,34.75 95.67,39.03 108.52,18.23c4.63,-7.47 -16.53,-26.53 -47,-42.34c-77.16,-40.04 -93.45,-70.03 -58.82,-108.29c56.18,-62.09 -19.19,-105.18 -93.24,-53.3z"
                id="svg_13" />
            <circle cx="345.39" cy="641.45" id="svg_14" r="63.13" />
        </g>
    </g>
</svg>