<?xml version='1.0' encoding='utf-8'?>
<svg xmlns="http://www.w3.org/2000/svg" version="1.1" id="Layer_1" x="0px" y="0px" viewBox="0 0 5000 1261.4755" enable-background="new 0 0 5000 1261.4755"> <g> <g> <path d="M1624.5066,1243.2594c8.2662,24.7987,36.8284,19.5099,80.7076,11.7959c101.5977-17.864,297.7758-9.0332,312.4279-23.5992 c5.637-5.6002-12.1012-21.7424-39.4216-35.8696c-56.7339-29.3389-98.6215-21.9252-297.6462-6.6261l10.351-56.4941 c14.1603-77.277,13.1013-762.168-1.4451-933.2722l-11.796-138.7829l65.3191,24.2097 c80.1267,29.6959,186.6213,17.5064,244.4503-27.9824c58.296-45.8565,27.9457-67.176-60.4139-42.4368 c-56.8729,15.8849-88.3962,15.8922-172.6228,0c-153.8698-29.034-154.7339-28.1515-143.0482,146.6444 c5.4053,80.8326,12.5829,163.9119,15.951,184.621c9.9758,61.3332,7.6409,794.7246-2.6622,835.7715 C1619.4396,1201.9771,1619.3771,1229.8896,1624.5066,1243.2594z"/> <path d="M1490.4082,1071.1477c-36.6711,16.7085-47.934,42.2051-27.6146,62.5245v-0.0111 c21.2498,21.2534,68.2388,8.4388,105.4321-28.7545c32.8765-32.8801,37.5389-48.1693,30.5599-100.2106 c-4.5302-33.7773-22.0219-80.0604-38.8738-102.8508c-29.9937-40.5652-30.0378-41.8632-2.0334-61.6972 c48.2393-34.1635,44.713-77.1923-7.229-88.2087c-24.8495-5.2692-65.5177-19.2972-90.3672-31.1703 c-37.881-18.0984-45.9191-31.6153-49.7247-83.6345c-6.3503-86.76,26.2321-117.217,112.7162-105.3622 c64.3043,8.8176,65.0287,8.4131,65.0287-36.7006c0-28.8097-13.3257-57.965-36.1748-79.1411 c-31.0527-28.7803-33.4023-37.3221-16.5908-60.3147c33.6964-46.0844,40.5504-124.7954,15.9841-183.5914 c-19.4075-46.4522-28.9641-53.8283-64.4146-49.7431c-54.3506,6.2657-61.6053,47.1251-12.3475,69.5661 c64.738,29.4936,46.1837,116.8199-57.2076,269.2667c-83.4396,123.0341-68.11,261.3133,44.1504,398.162 c52.4568,63.9476,66.3597,92.8198,66.3597,137.8048C1528.0613,1043.1689,1520.902,1057.2521,1490.4082,1071.1477z"/> <path d="M1065.5765,843.9905c35.8477-17.352,82.8734-50.2065,104.5055-73.0079c79.1301-83.4139,67.8894-225.8223-22.3822-283.6145 C968.2313,372.467,965.9081,383.7365,977.5443,321.6986c7.1151-37.9288,4.3168-51.5375-10.5936-51.5375 c-58.8145,0-77.2695,102.9243-26.2872,146.5746c35.5534,30.446,39.4694,76.7033,7.5306,88.9589 c-29.6517,11.3805-29.0524,59.9837,0.8898,71.4745c12.9102,4.9529,53.8541,2.1989,90.9813-6.1223 c77.2732-17.3152,126.5237-0.1066,126.5237,44.2055c0,39.5908-25.7872,55.586-124.9425,77.4938 c-95.5629,21.1173-112.7494,34.5679-85.7525,67.0988c14.0757,16.9622,11.1893,29.8944-13.7632,61.6163 c-37.4361,47.5957-40.5836,106.8955-8.1337,153.2264l-0.0073-0.0037c31.8616,45.4851,57.509,42.959,45.5991-4.4897 C966.0609,916.2997,990.5942,880.2867,1065.5765,843.9905z"/> <path d="M859.8677,737.0582c11.3069,0,20.5621-10.7076,20.5621-23.7905c0-18.9589-9.9354-21.6468-48.9489-13.2448 c-57.3326,12.3475-128.421,46.1765-165.6732,78.8397c-38.4914,33.748-34.4466,116.4963,7.1151,145.6075v0.0037 c38.3333,26.8498,110.6057,31.1373,125.255,7.435c5.442-8.8066-0.934-27.9787-14.1713-42.606 c-13.2374-14.6273-24.0663-40.8189-24.0663-58.204C759.9402,797.9428,824.6342,737.0582,859.8677,737.0582z"/> <path d="M574.9772,615.7708c-13.9139-103.737-119.232-224.6788-114.0621-130.9876c1.0296,18.6389-2.824,44.8747-8.5638,58.3033 c-12.8109,29.9753,27.2617,73.4822,67.6798,73.4822c35.467,0,44.6094,45.1836-7.5894,45.1836 c-42.2567,0-63.2784,44.3746-40.8704,86.2452c27.1442,50.7274-45.9972,74.0087-9.4353,96.6035l-0.0037,0.0037 C511.3348,875.0138,588.7073,718.1251,574.9772,615.7708z"/> <path d="M1299.7753,748.9866c19.5986-3.7726,25.4415-24.1545,27.2249-94.9672c2.7542-109.4474-5.0596-142.8792-33.406-142.8792 c-11.8695,0-22.2682,5.0817-23.1102,11.2959c-7.3982,54.5417-9.9685,208.1946-3.6514,218.4168 C1265.5336,740.853,1276.7756,753.4115,1299.7753,748.9866z"/> <path d="M213.6215,597.876c20.3177,13.4615,28.8485,40.1174,21.9115,61.9537c-6.9076,21.7438-28.738,37.8243-51.5521,37.9741 c-22.8139,0.1497-44.8532-15.6428-52.0457-37.2937C115.9544,612.4047,172.0013,570.3005,213.6215,597.876z"/> <path d="M917.8658,627.894c-144.8868,9.0419-191.0338,0.3713-231.9741-43.5731c-45.68-49.0298-70.4891-28.4824-64.0064,53.012 v-0.0037c5.8392,73.4123,20.6834,83.3661,69.3896,46.5257c46.7062-35.3318,216.9823-13.3506,329.6292-31.9683 C1119.2174,635.6452,1050.4271,619.6243,917.8658,627.894z"/> <path d="M7.5099,668.9202c-30.6336-45.1006,40.4141-92.237,70.2252-46.7325c12.1019,18.4734,6.3048,46.2926-12.1685,58.3945 C47.263,692.5729,19.7849,686.9922,7.5099,668.9202z"/> <path d="M1551.9813,670.8313c-24.9624,27.6711-65.7277,19.4719-82.6388-6.3618c-27.1742-41.5117,16.2676-95.5566,62.65-77.9457 C1563.9072,598.6417,1578.6973,641.2164,1551.9813,670.8313z"/> <path d="M657.8652,368.9156c-64.7161,45.3233-23.8861,129.0645,90.5437,185.7058 c70.1949,34.7444,95.6732,39.0245,108.5245,18.2308c4.622-7.4754-16.532-26.5299-47.0037-42.3449 c-77.1556-40.0394-93.4449-70.0294-58.8218-108.2891C807.2932,360.1348,731.921,317.0435,657.8652,368.9156z"/> <circle cx="345.3884" cy="641.4507" r="63.1346"/> </g> <g> <path d="M3375.4934,1243.2594c-8.2664,24.7987-36.8284,19.5099-80.7075,11.7959c-101.5977-17.864-297.7759-9.0332-312.428-23.5992 c-5.637-5.6002,12.1011-21.7424,39.4216-35.8696c56.7339-29.3389,98.6216-21.9252,297.6462-6.6261l-10.3508-56.4941 c-14.1604-77.277-13.1016-762.168,1.4451-933.2722l11.7959-138.7829l-65.3191,24.2097 c-80.1267,29.6959-186.6213,17.5064-244.4504-27.9824c-58.2959-45.8565-27.9456-67.176,60.4141-42.4368 c56.8728,15.8849,88.3962,15.8922,172.6228,0c153.8699-29.034,154.7339-28.1515,143.0483,146.6444 c-5.4053,80.8326-12.583,163.9119-15.9512,184.621c-9.9758,61.3332-7.6409,794.7246,2.6621,835.7715 C3380.5603,1201.9771,3380.6228,1229.8896,3375.4934,1243.2594z"/> <path d="M3509.5918,1071.1477c36.6711,16.7085,47.9341,42.2051,27.6145,62.5245v-0.0111 c-21.2495,21.2534-68.2385,8.4388-105.4319-28.7545c-32.8767-32.8801-37.5391-48.1693-30.5601-100.2106 c4.53-33.7773,22.022-80.0604,38.8738-102.8508c29.9937-40.5652,30.0378-41.8632,2.0334-61.6972 c-48.2393-34.1635-44.7129-77.1923,7.229-88.2087c24.8496-5.2692,65.5178-19.2972,90.3672-31.1703 c37.8811-18.0984,45.9189-31.6153,49.7249-83.6345c6.3501-86.76-26.2322-117.217-112.7163-105.3622 c-64.3042,8.8176-65.0288,8.4131-65.0288-36.7006c0-28.8097,13.3257-57.965,36.175-79.1411 c31.0525-28.7803,33.4021-37.3221,16.5908-60.3147c-33.6965-46.0844-40.5505-124.7954-15.9841-183.5914 c19.4075-46.4522,28.9641-53.8283,64.4146-49.7431c54.3503,6.2657,61.6052,47.1251,12.3474,69.5661 c-64.738,29.4936-46.1836,116.8199,57.2075,269.2667c83.4397,123.0341,68.1101,261.3133-44.1501,398.162 c-52.457,63.9476-66.3599,92.8198-66.3599,137.8048C3471.9387,1043.1689,3479.0979,1057.2521,3509.5918,1071.1477z"/> <path d="M3934.4233,843.9905c-35.8474-17.352-82.8733-50.2065-104.5054-73.0079 c-79.1301-83.4139-67.8894-225.8223,22.3823-283.6145c179.4685-114.9011,181.7915-103.6317,170.1553-165.6695 c-7.115-37.9288-4.3167-51.5375,10.5938-51.5375c58.8145,0,77.2695,102.9243,26.2871,146.5746 c-35.5532,30.446-39.4695,76.7033-7.5305,88.9589c29.6516,11.3805,29.0522,59.9837-0.8899,71.4745 c-12.9102,4.9529-53.854,2.1989-90.9812-6.1223c-77.2732-17.3152-126.5237-0.1066-126.5237,44.2055 c0,39.5908,25.7871,55.586,124.9426,77.4938c95.5627,21.1173,112.7493,34.5679,85.7524,67.0988 c-14.0757,16.9622-11.1892,29.8944,13.7632,61.6163c37.436,47.5957,40.5837,106.8955,8.1335,153.2264l0.0073-0.0037 c-31.8616,45.4851-57.509,42.959-45.5991-4.4897C4033.9392,916.2997,4009.4058,880.2867,3934.4233,843.9905z"/> <path d="M4140.1323,737.0582c-11.3071,0-20.562-10.7076-20.562-23.7905c0-18.9589,9.9355-21.6468,48.9487-13.2448 c57.3325,12.3475,128.4209,46.1765,165.6733,78.8397c38.4912,33.748,34.4468,116.4963-7.1152,145.6075v0.0037 c-38.333,26.8498-110.6055,31.1373-125.2549,7.435c-5.4419-8.8066,0.9341-27.9787,14.1714-42.606 c13.2373-14.6273,24.0664-40.8189,24.0664-58.204C4240.0601,797.9428,4175.3657,737.0582,4140.1323,737.0582z"/> <path d="M4425.0229,615.7708c13.9141-103.737,119.2319-224.6788,114.062-130.9876c-1.0298,18.6389,2.8237,44.8747,8.564,58.3033 c12.8105,29.9753-27.2617,73.4822-67.6802,73.4822c-35.4668,0-44.6094,45.1836,7.5898,45.1836 c42.2563,0,63.2783,44.3746,40.8701,86.2452c-27.144,50.7274,45.9971,74.0087,9.4355,96.6035l0.0034,0.0037 C4488.665,875.0138,4411.2925,718.1251,4425.0229,615.7708z"/> <path d="M3700.2249,748.9866c-19.5989-3.7726-25.4417-24.1545-27.2251-94.9672c-2.7539-109.4474,5.0598-142.8792,33.406-142.8792 c11.8696,0,22.2683,5.0817,23.1104,11.2959c7.3982,54.5417,9.9685,208.1946,3.6514,218.4168 C3734.4666,740.853,3723.2244,753.4115,3700.2249,748.9866z"/> <path d="M4786.3784,597.876c-20.3174,13.4615-28.8486,40.1174-21.9116,61.9537c6.9077,21.7438,28.7383,37.8243,51.5522,37.9741 c22.814,0.1497,44.853-15.6428,52.0459-37.2937C4884.0454,612.4047,4827.9985,570.3005,4786.3784,597.876z"/> <path d="M4082.1343,627.894c144.8867,9.0419,191.0337,0.3713,231.9741-43.5731c45.6797-49.0298,70.4888-28.4824,64.0063,53.012 v-0.0037c-5.8394,73.4123-20.6836,83.3661-69.3896,46.5257c-46.7061-35.3318-216.9824-13.3506-329.6292-31.9683 C3880.7827,635.6452,3949.5728,619.6243,4082.1343,627.894z"/> <path d="M4992.4902,668.9202c30.6333-45.1006-40.4141-92.237-70.2251-46.7325c-12.1021,18.4734-6.3052,46.2926,12.1685,58.3945 C4952.7368,692.5729,4980.2153,686.9922,4992.4902,668.9202z"/> <path d="M3448.0186,670.8313c24.9624,27.6711,65.7278,19.4719,82.6389-6.3618c27.1741-41.5117-16.2676-95.5566-62.6501-77.9457 C3436.0928,598.6417,3421.3027,641.2164,3448.0186,670.8313z"/> <path d="M4342.1348,368.9156c64.7163,45.3233,23.8862,129.0645-90.5435,185.7058 c-70.1953,34.7444-95.6733,39.0245-108.5249,18.2308c-4.6221-7.4754,16.5322-26.5299,47.0039-42.3449 c77.1558-40.0394,93.4448-70.0294,58.8218-108.2891C4192.707,360.1348,4268.0791,317.0435,4342.1348,368.9156z"/> <circle cx="4654.6113" cy="641.4507" r="63.1346"/> </g> </g> </svg>