<?xml version='1.0' encoding='utf-8'?>
<svg xmlns="http://www.w3.org/2000/svg" enable-background="new 0 0 4841.703 5000" version="1.1"
    viewBox="0 0 4841.7 5e3">
    <g fill="#050505">
        <path
            d="m2435.6 346.01c3.715-1.125 4.302-1.925 7.006-4.794 14.528-16.58 28.911-33.84 45.317-48.604 15.469-13.927 33.698-25.09 48.612-39.497 27.236-26.312 46.749-69.329 41.408-105.92-3.273-0.184-6.486-0.442-9.762-0.251-36.907 7.416-71.008 31.603-91.788 63.246-22.805 34.727-42.927 93.793-40.793 135.82z" />
        <path
            d="m2302.3 253.11c14.914 14.408 33.142 25.571 48.612 39.497 16.407 14.765 30.789 32.024 45.317 48.604 2.703 2.869 3.291 3.669 7.006 4.794 2.134-42.031-17.988-101.1-40.792-135.82-20.78-31.642-54.881-55.829-91.789-63.246-3.276-0.191-6.489 0.067-9.762 0.251-5.341 36.596 14.172 79.613 41.408 105.92z" />
        <path
            d="m2419.2 316.49c0.064-0.307 0.129-0.613 0.195-0.92 0.065 0.306 0.131 0.613 0.195 0.92 5.403-19.389 10.325-39.444 18.232-57.981 23.706-55.564 49.341-95.702 30.684-159.15-8.761-29.786-21.813-48.159-48.573-99.353-0.179 0.328-0.359 0.656-0.538 0.983-0.179-0.327-0.359-0.655-0.538-0.983-26.76 51.195-39.811 69.567-48.573 99.353-18.657 63.451 6.977 103.59 30.683 159.15 7.909 18.537 12.83 38.591 18.233 57.981z" />
        <path
            d="m4795.1 368.84c-31.631-15.869-59.867-56.208-99.99-29.944-11.216 7.342-19.035 19.931-26.713 30.701l-15.285-19.089c-12.242 1.567-10.792 11.184-19.566 15.179-1.729 0.787 0.715 0.589-66.342 0.127 8.74-5.87 20.804-12.048 26.218-21.134-0.566-7.31-0.212-12.752-6.616-17.709-7.041-5.399-15.639-4.044-23.706-2.197-25.28 13.384-31.681 39.123-35.595 41.592-0.24 0.152-1676.5-0.724-1977.5-0.156l31.83 24.315c567.34 2.78 178.63 2.105 1947.1 1.982 9.058 15.78 21.087 35.266 39.911 40.477 7.43 2.052 10.968-0.216 17.938-2.777 5.696-7.462 5.484-7.798 5.06-17.256-5.555-11.036-17.196-15.469-26.324-23.221 18.611-0.074 46.103-3.952 63.688-0.251 9.907 2.084 14.436 13.763 25.086 12.271l15.179-15.89c14.011 18.71 25.263 36.542 50.491 40.123 31.76 4.511 58.711-30.91 75.152-37.123 13.445-5.084 29.65-5.042 43.697-9.136-14.083-2.671-30.926-4.448-43.734-10.884z" />
        <path
            d="m2288.8 366.21c-300.98-0.569-1977.3 0.308-1977.5 0.156-3.914-2.469-10.315-28.208-35.595-41.592-8.067-1.847-16.665-3.202-23.706 2.197-6.404 4.957-6.05 10.399-6.616 17.709 5.414 9.086 17.479 15.264 26.218 21.134-67.057 0.462-64.613 0.659-66.342-0.127-8.775-3.995-7.324-13.612-19.566-15.179l-15.285 19.089c-7.678-10.771-15.497-23.359-26.714-30.701-40.123-26.264-68.359 14.075-99.99 29.944-12.808 6.436-29.65 8.212-43.732 10.883 14.047 4.094 30.252 4.051 43.697 9.136 16.441 6.213 43.392 41.634 75.152 37.123 25.228-3.581 36.479-21.413 50.49-40.123l15.179 15.89c10.65 1.493 15.179-10.187 25.086-12.271 17.585-3.701 45.077 0.177 63.688 0.251-9.129 7.752-20.769 12.185-26.325 23.221-0.425 9.457-0.637 9.794 5.06 17.256 6.97 2.562 10.508 4.83 17.939 2.777 18.824-5.212 30.854-24.697 39.911-40.477 1768.5 0.124 1379.8 0.799 1947.1-1.982l31.83-24.314z" />
        <path
            d="m2550.8 396.86c-32.841-10.451-54.394 19.728-39.147 45.979 5.024 3.34 6.1 5.13 12.6 3.814 11.135-2.25 22.549-13.357 32.513-7.398 9.288 21.131-4.664 47.424-23.883 56.289-11.807 5.449-29.049 5.467-41.132 0.75-32.089-12.531-51.446-53.226-36.769-86.584 14.945-33.974 52.988-59.562 80.6-83.028 56.382-47.918 112.35-101.73 182.84-128.04 93.271-34.824 151.54-2.897 164.47 31.699 14.018 37.512-12.847 64.446-41.358 51.424-5.93-6.825-6.447-6.896-6.496-15.855l18.777-18.112c-9.613-26.443-45.766-21.542-55.783 2.569-4.923 11.858-3.313 19.703-1.263 31.105 4.953 24.847 35.939 46.214 71.037 37.469 48.989-12.201 58.561-62.004 50.741-91.052-14.714-54.622-78.422-82.646-131.72-78.528-101.25 8.357-176.06 65.107-252.61 126.24-69.144 55.212-81.784 63.309-114.77 130.64-32.985-67.329-45.625-75.426-114.77-130.64-76.552-61.137-151.36-117.89-252.61-126.24-53.302-4.119-117.01 23.905-131.72 78.528-7.819 29.048 1.753 78.851 50.742 91.052 35.098 8.744 66.084-12.622 71.037-37.469 2.05-11.401 3.66-19.247-1.263-31.105-10.018-24.111-46.171-29.012-55.784-2.569l18.777 18.112c-0.05 8.959-0.566 9.03-6.496 15.855-28.511 13.021-55.377-13.912-41.358-51.424 12.929-34.596 71.196-66.522 164.47-31.699 70.485 26.314 126.46 80.123 182.84 128.04 27.612 23.466 65.655 49.054 80.601 83.028 14.677 33.358-4.68 74.053-36.77 86.584-12.083 4.716-29.325 4.699-41.132-0.75-19.219-8.866-33.17-35.158-23.883-56.289 9.963-5.958 21.377 5.148 32.513 7.398 6.499 1.316 7.575-0.474 12.599-3.814 15.247-26.252-6.306-56.43-39.147-45.979-27.643 8.803-47.719 44.498-35.438 84.504 14.098 45.946 63.371 62.441 100.88 50.628 33.726-10.618 49.786-36.32 65.312-65.914 0.203 0.411 0.407 0.822 0.612 1.233 0.205-0.411 0.409-0.822 0.612-1.233 15.526 29.594 31.586 55.295 65.312 65.914 37.503 11.813 86.777-4.682 100.88-50.628 12.279-40.006-7.797-75.701-35.44-84.504z" />
    </g>
    <g fill="#050505">
        <path
            d="m268.4 3655.4c-27.745 11.14-52.082 25.854-64.518 54.404-3.854 8.846-7.423 17.312-6.361 27.126l6.861-1.09c32.969-14.519 55.034-32.676 68.532-67.155 1.819-4.648 3.956-8.792 2.92-13.871l-7.434 0.586z" />
        <path
            d="m4575.5 3655.4c27.745 11.14 52.082 25.854 64.518 54.404 3.854 8.846 7.423 17.312 6.361 27.126l-6.861-1.09c-32.969-14.519-55.034-32.676-68.532-67.155-1.818-4.648-3.956-8.792-2.92-13.871l7.434 0.586z" />
        <path
            d="m239.5 3599.2c11.259 7.698 25.38 12.74 37.802 18.399-21.915-59.544-20.409-76.993-84.232-110.22 7.103 34.512 15.24 70.499 46.43 91.818z" />
        <path
            d="m4604.4 3599.2c-11.259 7.698-25.379 12.74-37.801 18.399 21.915-59.544 20.409-76.993 84.232-110.22-7.104 34.512-15.241 70.499-46.431 91.818z" />
        <path
            d="m342.95 3618.5c-11.031-9.592-18.384-7.636-32.893-6.549-17.23 1.295-21.576 5.082-30.875 11.027-21.341-0.855-44.369 0.174-65.427-2.75-62.231-8.641-54.293-33.065-211.21 12.393 125.8 42.372 182.66 17.177 213.98 15.697 19.808-0.938 48.767 2.815 67.105-4.641 5.304 6.883 6.506 7.05 15.2 8.256 21.507 2.978 39.863-4.104 60.714-5.079 923.58 1.957 3198.8 1.962 4124.8 0 20.852 0.974 39.207 8.057 60.714 5.079 8.694-1.206 9.897-1.373 15.2-8.256 18.337 7.455 47.296 3.702 67.104 4.641 31.321 1.48 88.184 26.676 213.98-15.697-156.91-45.458-148.98-21.034-211.21-12.393-21.058 2.923-44.087 1.894-65.427 2.75-9.299-5.946-13.646-9.732-30.875-11.027-14.508-1.087-21.862-3.043-32.893 6.549-911.7-2.333-3245.5-2.335-4158 0z" />
    </g>
    <path
        d="m3825.6 2586.4c-28.265 17.743-56.566 36.852-64.261 71.858-10.435 47.568 16.654 89.366 56.792 96.26l7.545 1.31c17.004 2.838 38.361-3.281 52.024-13.794 24.927-19.159 29.644-55.066 10.585-78.821-15.258-19.07-48.172-25.219-66.514-8.952-6.156 5.484-10.66 11.539-11.185 20.044-0.638 9.335-0.151 16.805 6.381 23.812 3.378 3.652 7.357 4.812 12.011 6.1 9.384-1.096 13.138-4.054 19.669-10.701l3.003-9.354c-4.505-6.107-6.194-6.775-12.837-9.857 30.952-27.325 65.43 31.161 18.655 56.833-29.646 16.257-61.759-2e-3 -73.607-25.292-17.651-37.763 3.205-75.55 39.3-90.424 143.76-59.366 308.76 230.24 453.17 174.7 81.645-31.383 89.018-149.66 15.277-179.49-69.77-28.313-112.43 39.991-91.549 80.57 4.955 9.553 12.574 15.645 21.621 21.009 8.896 0.961 16.065 2.08 24.586-1.58-12.462-8.584-24.849-16.64-27.176-32.938-3.814-26.26 15.01-45.208 40.013-46.337 39.115-1.774 86.189 63.17 27.401 116.45-14.677 13.306-32.619 17.848-52.137 16.861-96.617-4.881-182-129.98-319.92-178.58 789.88-0.602 749.4-1.789 784.61 4.365 90.109 15.774 127.73 125.68 73.908 175.33-14.902 13.734-27.589 19.128-48.046 17.953-8.371-0.481-15.39-1.43-22.409-6.407l0.562-2.451c15.75-1.078 23.218-2.574 33.669-15.213 13.254-16.013 14.439-44.576-7.094-61.337-22.531-17.553-54.644-11.291-70.229 9.887-21.095 28.858-12.278 69.584 18.618 90.108 18.542 12.286 49.96 15.592 71.167 10.476 24.06-5.814 45.868-24.489 58.368-45.422 32.178-53.947 13.603-139.09-63.585-181.09l-24.061-11.67c39.113-2.62 83.442-0.725 121.46-8.761-40.388-7.248-82.578-7.492-122.37-17.176 42.19-17.818 75.822-39.78 94.064-84.114 21.858-53.179 1.649-114.29-52.851-135.85-48.521-19.221-95.723 5.276-106.3 37.479-11.315 34.453 8.853 64.234 38.399 70.702 18.089 3.946 46.443-4.405 51.725-32.863 4.145-22.446-11.905-42.011-31.117-43.947l-23.46 0.811c8.312-20.115 42.812-20.819 60.583-11.437 87.849 46.403 39.926 157.9-43.279 179.35-30.296 7.801-4.145 0.233-769.93 2.624-14.564 0.135-32.13 2.203-46.432-0.049 37.799-11.576 71.956-26.921 105.29-48.203 138.8-97.959 178.86-132.97 233.77-137.68 34.616-2.973 74.51 23.546 84.118 58.762 9.04 33.337-14.149 62.776-41.928 68.979-26.604 5.934-47.913-10.902-50.598-28.658-3.57-24.415 6.585-36.806 27.626-48.079-17.719-7.924-42.437 3.587-50.485 24.466-12.028 31.146 6.035 67.556 41.064 79.399 43.891 14.845 90.164-16.771 102.25-62.23 14.042-53.039-27.154-106.59-79.463-119.62-10.585-2.627-21.283-3.337-32.131-3.851-26.913 2.778-47.97 7.823-72.293 20.101-109.46 55.217-201.2 169.55-300.1 168.64-18.43-0.169-35.133-3.716-49.81-15.378-15.502-12.308-28.302-32.652-30.629-52.535-4.091-34.708 22.744-64.583 53.188-66.671 25.142-1.736 49.734 18.694 50.598 40.715 0.532 13.839-11.163 30.472-28.001 30.753-8.408 0.139-10.548-1.577-16.291-6.967l11.523-5.63c1.764-6.509 1.764-7.582-0.038-14.08-8.595-7.323-12.086-7.241-22.934-8.629-6.831 2.913-11.411 4.117-14.639 11.445-3.341 7.533-1.201 17.067 2.703 23.936 12.642 22.144 43.817 26.018 65.199 10.754 23.97-17.114 28.085-49.996 7.845-76.332-24.056-31.375-71.592-31.854-99.207-9.083-39.926 32.81-38.387 91.155-3.115 130.83 17.116 19.282 38.211 27.581 62.122 35.4-398.82-1.864-2448.5-1.868-2848.2 0 23.91-7.818 45.006-16.118 62.122-35.4 35.272-39.672 36.81-98.017-3.115-130.83-27.615-22.77-75.151-22.292-99.207 9.083-20.24 26.337-16.125 59.218 7.845 76.332 21.382 15.264 52.558 11.39 65.199-10.754 3.904-6.869 6.043-16.403 2.703-23.936-3.228-7.327-7.808-8.532-14.639-11.445-10.848 1.389-14.339 1.306-22.934 8.629-1.802 6.498-1.802 7.571-0.038 14.08l11.523 5.63c-5.742 5.39-7.882 7.105-16.29 6.967-16.839-0.281-28.533-16.914-28.001-30.753 0.864-22.021 25.456-42.451 50.598-40.715 30.444 2.088 57.278 31.963 53.188 66.671-2.327 19.883-15.127 40.227-30.629 52.535-14.677 11.662-31.38 15.209-49.81 15.378-98.895 0.916-190.64-113.42-300.1-168.64-24.323-12.278-45.381-17.323-72.294-20.101-10.848 0.514-21.545 1.224-32.131 3.851-52.308 13.033-93.505 66.583-79.463 119.62 12.083 45.459 58.357 77.075 102.25 62.23 35.029-11.843 53.091-48.253 41.064-79.399-8.049-20.878-32.767-32.389-50.485-24.466 21.041 11.273 31.196 23.665 27.627 48.079-2.685 17.757-23.994 34.593-50.598 28.658-27.778-6.203-50.968-35.642-41.928-68.979 9.608-35.216 49.502-61.735 84.118-58.762 54.915 4.71 94.969 39.718 233.77 137.68 33.331 21.283 67.489 36.627 105.29 48.203-14.302 2.252-31.868 0.184-46.432 0.049-765.79-2.391-739.64 5.177-769.93-2.624-83.205-21.448-131.13-132.95-43.279-179.35 17.77-9.382 52.27-8.677 60.582 11.437l-23.46-0.811c-19.212 1.936-35.262 21.5-31.117 43.947 5.281 28.458 33.635 36.809 51.724 32.863 29.547-6.468 49.714-36.249 38.399-70.702-10.578-32.204-57.779-56.7-106.3-37.479-54.5 21.556-74.709 82.67-52.85 135.85 18.243 44.333 51.874 66.295 94.065 84.114-39.788 9.684-81.978 9.928-122.37 17.176 38.023 8.036 82.353 6.141 121.46 8.761l-24.061 11.67c-77.188 42-95.763 127.14-63.585 181.09 12.5 20.933 34.308 39.608 58.368 45.422 21.207 5.116 52.625 1.809 71.168-10.476 30.895-20.523 39.712-61.25 18.618-90.108-15.585-21.178-47.698-27.44-70.229-9.887-21.533 16.761-20.347 45.324-7.094 61.337 10.451 12.639 17.92 14.135 33.669 15.213l0.563 2.451c-7.019 4.977-14.038 5.927-22.409 6.407-20.457 1.175-33.144-4.219-48.046-17.953-53.821-49.647-16.201-159.56 73.908-175.33 35.203-6.154-5.273-4.967 784.61-4.365-137.92 48.605-223.3 173.7-319.92 178.58-19.518 0.987-37.46-3.555-52.137-16.861-58.788-53.28-11.714-118.22 27.401-116.45 25.002 1.129 43.827 20.078 40.013 46.337-2.327 16.298-14.714 24.353-27.176 32.938 8.521 3.66 15.69 2.541 24.586 1.58 9.047-5.364 16.666-11.456 21.621-21.009 20.877-40.579-21.78-108.88-91.549-80.57-73.742 29.829-66.368 148.11 15.277 179.49 144.41 55.54 309.41-234.06 453.17-174.7 36.095 14.873 56.951 52.661 39.3 90.424-11.848 25.29-43.961 41.548-73.607 25.292-46.775-25.672-12.297-84.157 18.655-56.833-6.644 3.082-8.333 3.75-12.837 9.857l3.003 9.354c6.531 6.647 10.285 9.605 19.669 10.701 4.654-1.288 8.633-2.447 12.011-6.1 6.532-7.008 7.019-14.478 6.381-23.812-0.526-8.506-5.03-14.56-11.185-20.044-18.342-16.267-51.255-10.117-66.514 8.952-19.058 23.756-14.341 59.662 10.585 78.821 13.663 10.514 35.021 16.632 52.024 13.794l7.545-1.31c40.137-6.895 67.226-48.693 56.792-96.26-7.695-35.006-35.996-54.115-64.261-71.858 1718.6-2.048 1024.5-2.124 2807.3 0z"
        fill="#050505" />
    <g fill="#050505">
        <path
            d="m4530.5 1316.5c6.938 38.988 2.678 62.317-18.099 95.691 12.971-3.356 27.413-3.609 39.893-8.024 22.247-7.881 41.704-31.903 58.294-48.136-6.259 31.605-10.105 56.808-38.159 76.574-110.58 77.923-285.04-58.493-517.44-24.992 125.91-52.067 283.02 8.553 376.46-14.166 47.964-11.662 73.793-35.919 99.056-76.947z" />
        <path
            d="m309.63 1316.5c-6.938 38.988-2.677 62.317 18.099 95.691-12.971-3.356-27.413-3.609-39.893-8.024-22.247-7.881-41.703-31.903-58.294-48.136 6.259 31.605 10.105 56.808 38.159 76.574 110.58 77.923 285.04-58.493 517.44-24.992-125.91-52.067-283.02 8.553-376.46-14.166-47.963-11.662-73.792-35.919-99.055-76.947z" />
        <path
            d="m4835.4 1384 3.054-0.464 1.094 3.292c-24.773 43.513-51.959 76.706-94.002 104.71-156.97 104.53-349.88 30.316-512.73-15.524-96.591-27.208-188.75-38.341-207.12-46.914 201.04-50.721 492.81 127.66 725.62 12.281 30.957-15.328 57.427-35.656 84.085-57.382z" />
        <path
            d="m4.814 1384-3.054-0.464-1.094 3.292c24.773 43.513 51.959 76.706 94.002 104.71 156.97 104.53 349.88 30.316 512.73-15.524 96.591-27.208 188.75-38.341 207.12-46.914-201.04-50.721-492.81 127.66-725.62 12.281-30.957-15.328-57.427-35.656-84.085-57.382z" />
        <path
            d="m3996.5 1440.3v-16.818c-97.159-3.53-3055.8-3.528-3152.9 0v16.818c314.08 0.762 2837.9 0.765 3152.9 0z" />
        <path
            d="m2455.4 1468.4c62.799 45.141 131.03 103.33 233.02 85.484 49.448-8.65 80.586-42.058 108.16-81.114l-15.799 35.399c-18.28 35.708-54.55 65.157-90.978 80.627-41.843 17.771-88.157 17.375-130.03-0.347-48.071-20.354-84.899-72.977-104.38-120.05z" />
        <path
            d="m2384.8 1468.4c-62.799 45.141-131.03 103.33-233.02 85.484-49.448-8.65-80.586-42.058-108.16-81.114l15.799 35.399c18.28 35.708 54.55 65.157 90.978 80.627 41.843 17.771 88.158 17.375 130.03-0.347 48.07-20.354 84.898-72.977 104.38-120.05z" />
        <circle cx="2420.1" cy="1596.2" r="27.525" />
        <circle cx="2420.1" cy="1521.5" r="20.152" />
        <circle cx="2420.1" cy="1467.1" r="15.391" />
        <path
            d="m2455.4 1392.4c62.799-45.141 131.03-103.33 233.02-85.484 49.448 8.65 80.586 42.058 108.16 81.114l-15.799-35.399c-18.28-35.708-54.55-65.157-90.978-80.628-41.843-17.771-88.157-17.375-130.03 0.347-48.071 20.355-84.899 72.977-104.38 120.05z" />
        <path
            d="m2384.8 1392.4c-62.799-45.141-131.03-103.33-233.02-85.484-49.448 8.65-80.586 42.058-108.16 81.114l15.799-35.399c18.28-35.708 54.55-65.157 90.978-80.628 41.843-17.771 88.158-17.375 130.03 0.347 48.07 20.355 84.898 72.977 104.38 120.05z" />
        <circle cx="2420.1" cy="1264.5" r="27.525" />
        <circle cx="2420.1" cy="1339.2" r="20.152" />
        <circle cx="2420.1" cy="1393.7" r="15.391" />
    </g>
    <g fill="#050505">
        <path
            d="m2240.7 4681c38.191 25.537 98.579 22.729 143.37 24.916-35.045-17.612-82.977-35.667-103.84-71.097 52.186 13.444 80.654 31.24 121.93 65.794 0.617-1.032-6.282-12.166-9.655-17.154-25.477-37.678-43.608-111.85-141.4-111.13l-24.264 1.751-32.481 6.994c7.9 37.663 11.421 76.58 46.332 99.928z" />
        <path
            d="m2461.2 4732.3c38.083 19.083 76.731 42.621 103.43 76.551-49.072-10.054-83.117-38.029-120.79-69.766 22.352 35.329 35.562 75.894 64.063 106.62 53.639 41.512 91.726 28.833 144.53 17.824-17.63-75.934-26.885-127.72-191.23-131.23z" />
        <path
            d="m2439.9 4696.4c39.223-28.169 72.028-50.464 119.66-63.333-19.047 21.305-37.008 36.731-61.452 51.884l-54.746 23.999c51.615-5.182 141.14 7e-3 176.92-44.261 19.939-24.67 18.476-55.009 26.912-84.174-32.168-6.936-60.396-9.906-93.24-6.706-61.931 17.224-85.039 64.218-114.05 122.59z" />
        <path
            d="m2410 4734.2c-41.622 36.365-78.572 63.337-132.76 77.494 23.409-35.71 74.645-66.677 114.47-80.837l-10.392 0.158c-54.721 5.912-121 3.419-158.39 51.024-17.753 22.6-25.11 55.951-28.292 83.952 45.289 9.583 88.062 15.825 129.25-10.773 38.293-24.736 43.057-52.318 61.176-84.247 7.216-12.715 16.547-24.793 24.936-36.771z" />
        <path
            d="m2433.7 4744.1c-0.061 49.299 0.129 94.484-14.524 142.24-16.106-46.16-5.955-90.773-4.804-137.77-27.562 50.874-66.771 90.917-48.349 153.08 9.457 26.4 23.675 44.987 38.026 68.299 6.03 9.791 10.568 20.449 16.886 30.043 25.761-60.245 82.402-105.67 54.042-177.8-10.256-26.089-28.052-53.076-41.277-78.102z" />
        <path
            d="m2411.9 4686.7c-3.556-35.29-6.648-73.671-1.291-108.87 1.528-10.033 3.017-20.853 8.91-29.36l4.045 2.039c11.524 47.976 9.134 89.011 4.361 137.42 28.799-57.494 70.741-103.63 48.317-172.48-10.377-31.877-31.334-51.071-55.792-72.42-32.043 24.405-57.109 50.637-62.189 92.65-7.311 60.46 25.005 100.65 52.384 150.36l1.255 0.668z" />
        <path
            d="m4757.2 4612.6c-9.312-2.006-18.483-1.564-27.939-1.025-17.08 6.25-33.009 13.851-41.316 31.233-16.755 34.986 20.09 63.131 52.643 48.907 23.658-10.304 27.136-43.329 1.367-51.956-7.264-2.424-10.931 0.029-17.871 2.452-7.803 10.054-6.509 14.919-4.962 27.375l-6.761 4.164c-7.047-2.316-6.76-3.729-10.284-9.957-0.602-47.559 83.991-43.558 74.937 8.091-1.87 10.493-12.117 22.333-21.395 27.433-15.364 8.458-18.651 6.017-190.47 6.181-2411.7-0.458-1847.8-10.23-2089.1 14.926 82.817 15.971-44.713 13.83 2187.5 12.531 54.443-0.125 85.895-5.525 106.62 16.055 32.963 34.229 3.869 80.292-32.183 74.495-9.924-1.604-22.509-8.104-28.586-16.282-3.417-4.549-3.92-11.197-4.567-16.648 3.02-5.818 4.423-11.183 11.578-12.783 2.481-0.547 5.682-0.101 8.127 0.057l2.948 5.067-7.731 10.359c1.079 6.757 0.575 9.206 6.437 13.449 3.812 2.743 8.629 3.045 13.16 3.567 7.983-2.068 16.289-4.427 21.216-11.622 20.581-30.167-17-61.575-48.185-47.922-10.104 4.427-20.208 16.829-23.624 27.317-8.271 25.248 4.694 54.332 37.648 63.812 38.742 11.149 94.684-17.954 111.22-82.039 18.215-70.52-27.468-135.81-80.403-147.24z" />
        <path
            d="m2328.4 4724.7c12.665-1.741 25.351-1.119 37.854-4.139-42.423-4.229-85.559-13.484-127.77-16.131-47.173-2.957-1931.3-2.576-2085.8-1.445-30.593 1.021-62.983 9.56-82.438-13.294-30.504-35.84 16.892-79.925 54.47-47.443 3.42 7.008 4.398 11.119 3.423 18.885l-4.437 6.516-4.045 0.442-2.6-4.261c1.507-5.109 3.204-6.947 0.536-11.801-2.79-5.084-6.203-7.08-11.151-9.781-10.759-0.791-12.301-0.971-21.593 4.308-4.732 7.666-7.774 13.297-5.653 22.668 7.268 32.127 54.884 34.898 68.86 1.769 10.887-25.787-9.364-69.068-64.843-59.529-14.48 4.822-27.292 9.885-38.964 19.997-82.146 71.155-29.066 210.92 47.429 212.56 17.116 0.371 32.488-4.552 44.71-16.868 34.86-35.116 4.502-85.296-29.759-80.697-11.578 1.553-22.226 7.048-29.331 16.444-4.678 6.185-5.149 18.946-3.136 26.361 2.017 7.425 8.227 14.351 15.2 17.533 8.896 4.063 14.836 3.031 23.553-0.284 5.279-7.839 8.665-8.393-1.233-22.643l3.93-5.117 8.09-0.823c4.178 6.591 6.839 10.295 5.574 18.594-4.302 28.297-52.403 41.559-71.607 6.228-14.942-27.469 1.387-53.338 28.673-66.583 11.812-5.733 4.363-4.011 249.7-4.196 2188.1 2.572 1915 3.352 1992.3-7.273z" />
        <ellipse transform="matrix(.9871 -.1602 .1602 .9871 -724.3 448.56)" cx="2420.1" cy="4716.8"
            rx="18.004" ry="18.004" />
    </g>
</svg>