<?xml version="1.0"?>
<svg width="4000" height="845" xmlns="http://www.w3.org/2000/svg" xmlns:svg="http://www.w3.org/2000/svg" enable-background="new 0 0 4000 3775.532" version="1.1" xml:space="preserve">
 <g class="layer">
  <title>Layer 1</title>
  <g id="g10" transform="matrix(1 0 0 1 -3.49889 -736.959)">
   <path d="m3366.51,1460.46c3.18,-6.7 8.13,-19.88 15.66,-23.02c7.98,-3.32 8.84,-1.47 2.93,6.31c-13.55,17.83 -15.87,52.24 -3.62,63.54c9.25,8.52 50.71,25.1 67.62,-17.46c6.78,-17.06 1.82,-30.53 -5.07,-45.88c-6.33,-14.11 -14.31,-36.54 -68.58,-47.34c-39.79,-7.92 -76.92,-5.56 -138.77,-5.35c0,0 -135.62,-2.06 -243.07,-3.23c-122.25,-1.34 -112.54,-3.41 -119.87,4.64c-6.07,6.68 -16.65,9.68 -24.46,6.94c-11.55,-4.04 -23.95,17.76 -39.1,9.96c-5.39,-2.77 -5.68,-2.69 -9.6,2.63c-7.12,9.68 -25.67,13.38 -23.63,18.63c15.68,40.36 -16.7,72.8 -55.88,55.99c-23.47,-10.07 -16.06,-48.01 10.31,-52.8c8.76,-1.59 8.76,-2.46 0,-10.03c-33.27,-28.77 -110.71,-31.61 -180.68,-6.63c-112.48,40.17 -140.93,75.55 -190.68,76.89c-9.7,0.26 -45.86,-0.67 -75.29,-11.53c-0.7,4.41 -2.35,11.88 -0.48,18.33c1.51,5.25 -0.33,9.61 -4.06,9.62c-4.01,0 -36.96,-14.18 -42.26,-18.2c-7.35,-5.57 -11.45,-4.62 -22.57,5.17c-23.56,20.77 -51.88,20.68 -78.68,-0.26c-18.72,-14.63 -21.39,-17.34 -23.15,-23.59c-2.6,-9.2 2.29,-10.13 9.89,-1.87c14.63,15.88 40.66,13.69 49.62,-4.17c17.33,-34.5 -25.09,-73.82 -73.89,-68.51c-14.03,1.53 -15.48,3.14 -15.35,16.98c0.29,29.77 -19.93,54.73 -52.93,65.35c-5.27,1.7 -3.65,16.24 -12.55,20.53c-6.75,3.25 -7.51,8.15 -2.34,15.12c6.68,9 -5,34.52 -17.28,37.76c-11.55,3.04 -25.13,-27.72 -17.85,-40.44c2.92,-5.11 2.82,-5.4 -4.45,-13.78c-4.09,-4.7 -7.45,-10.4 -7.47,-12.66c-0.04,-4.78 -3.01,-10.15 -4.68,-8.48c-2.25,2.26 -58.95,-9.54 -64.36,-64.02c-1.41,-14.14 -2.06,-14.63 -17.91,-13.74c-36.1,2.04 -53.82,10.24 -64.05,29.65c-16.24,30.84 18.26,60 42.3,35.75c7.12,-7.17 12.95,-8.54 12.96,-3.03c0.02,8.07 -22.46,37.15 -34.64,44.84c-14.21,8.96 -16.66,20.99 -39.86,12.87c-1.01,-0.36 -46.12,-14.63 -46.12,-24.37c-6.68,-8.43 -9.06,-8.31 -16.23,0.77c-9.37,11.87 -14.22,6.18 -22.93,15.53c-5.11,5.5 -5.15,5.5 -13.41,2.71c-4.55,-1.54 -9.99,-2.34 -12.08,-1.79c-6.55,1.72 -6.62,-11.79 -0.13,-24.43c3.13,-6.1 -0.97,-7.62 -11.03,-4.09c-81.76,28.65 -224.88,-69.88 -250.45,-69.84c-1.2,0 -4.84,-1.2 -8.1,-2.66c-20.05,-9.01 -98.94,-13.7 -125.62,-7.47c-29.67,6.94 -55.92,30.66 -36.02,32.55c47.06,4.49 15.44,85.67 -26.9,59.87c-11.35,-6.92 -16.26,-14.52 -19.56,-26.98c-2.96,-11.17 -5.26,-23.43 -4.2,-35.03l1.29,-14.04c-4.33,-1.84 -11.85,-4.52 -16.92,-10c-8.84,-9.56 -16.91,1.84 -28.97,-7.04c-5.56,-4.1 -5.96,-4.13 -11.18,-1.03c-9.18,5.44 -29.73,-5.93 -29.75,-16.47c-0.02,-11.52 -294.98,-2.48 -364.13,-2.22c-142.98,0.53 -171.31,5.27 -198.29,33.22c-41.4,42.89 -27.48,111.58 23.26,114.75c29.03,1.81 50.73,-34.49 36.55,-61.14c-6.77,-12.72 -0.61,-32.07 6.58,-20.65c9.92,15.75 15.93,29.48 13.87,48.57c-4,37.16 -40.09,68.81 -59.16,74.09c-52.5,14.52 -105.09,-3.99 -125.17,-44.08c-11.34,-22.63 -18.53,-59.66 -12.9,-66.46c2.88,-3.48 1.24,-8.53 -2.77,-8.52c-30.25,0.05 -62.77,-70.13 -44.19,-95.36c9.18,-12.47 -1.2,-14.22 -17.02,-21.82c-55.84,-26.86 -89.38,-64.29 -67.02,-74.8c44.34,-20.86 65.63,-75.76 48.43,-63.6c-17.62,12.45 -34.52,10.18 -49.38,-6.65c-12.64,-14.31 -65.08,5.86 -70.37,27.05c-1.75,7.03 -8.59,7.92 -16.23,2.11c-14.21,-10.8 -55.62,-28.69 -89.7,-38.76c-16.25,-4.8 -76.81,-19.22 -128.61,-17.4c0,0 -0.61,-6.34 -0.61,-6.34c-1,-10.24 40.86,-22.96 62.55,-23.37c74.6,-1.42 148.23,-33.6 162.23,-45.82c8.03,-7 22.52,-4.89 22.53,3.28c0.02,12.14 50.39,42.01 53.12,31.5c4.77,-18.37 54.54,-19.21 61.48,-1.04c3.88,10.15 9.19,2.68 5.87,-8.27c-4.94,-16.24 -37.54,-47.28 -53.36,-50.79c-21.71,-4.83 -26.16,-9.85 -17.83,-20.12c10.77,-13.27 25.6,-45.16 72.18,-74.67c35.14,-22.27 -24.64,-38.02 43.31,-96.02c5.19,-4.43 10.4,-9.62 16.06,-13.41c2.07,-1.4 5.4,-2.2 6.56,-4.13c2.48,-4.15 -2.36,-54.97 29.72,-86.43c40.08,-39.31 112.64,-40.97 137.71,-22.44c15.03,11.12 48.54,30.05 33.5,77.38c-10.97,34.52 -24.61,26.12 -24.62,23.09c0,-1.18 2.66,-6.46 5.9,-11.74c10.97,-17.86 11.95,-27.54 4.53,-44.7c-16.35,-37.81 -72.04,-29.34 -89.43,13.6c-15.77,38.94 1.95,80.84 43.13,102.02c43.35,22.3 106.25,12.52 324.13,19.51c148.63,4.77 357.57,3.01 357.56,-3.01c-0.02,-11.73 18.78,-20.02 30.19,-13.31c5.3,3.12 5.55,3.09 8.38,-0.97c3.74,-5.35 13.03,-10.19 18.3,-9.52c5.18,0.66 8.88,-1.59 7.69,-4.69c-1.74,-4.52 4.81,-16.14 11.8,-20.9c20.32,-13.87 41.12,3.36 31.62,26.2c-1.6,3.84 -2.9,7.27 -2.9,7.62c0.02,9.98 39.75,4.93 74.12,-9.42c15.97,-6.67 48.41,-11.19 68.96,-9.62c9.04,0.69 16.43,0.75 16.43,0.13c0,-0.61 -1.8,-4.56 -4,-8.76c-12.66,-24.18 14.27,-47.63 37.75,-32.86c10.53,6.61 10.76,16.35 0.62,25.95c-21.94,20.77 51.26,40.43 102.67,27.58c24.7,-6.17 62.5,-22.9 60.92,-26.96c-0.97,-2.48 -38.62,-16.5 -44.28,-16.48c-3.9,0 -9.94,-6.68 -8.36,-9.25c1.7,-2.77 9.21,-1.18 21.38,-4.02c25.32,-5.87 36.17,3.87 115.72,-20.97c24.49,-7.65 44.15,-19.96 104.08,-13.01c31.97,3.71 36.55,10.02 44.25,-2.27c2.83,-4.52 6.7,-9.33 8.6,-10.68c3.73,-2.66 4.61,-8.81 1.53,-10.71c-1.8,-1.11 -7.54,-13.16 -7.47,-15.68c0.07,-2.31 12.22,-14.84 16.6,-17.12c20.14,-10.47 41.23,6.47 33.8,27.14c-2.03,5.65 -1.74,6.31 6.38,14.41c20.76,20.69 -2.11,31.47 34.77,20.44c64.49,-19.27 92.83,-3.77 116.84,3.24c36.14,10.55 96.49,32.94 136.13,26.16c44.2,-7.56 34.31,-0.09 32.83,-0.09c-1.05,0 -5.48,1.67 -9.85,3.7c-12.6,5.86 -43.67,10.98 -50.33,19.37c-2.18,2.75 -4.2,3.42 -7.5,2.49c-10.04,-2.8 7.08,9.6 21.48,15.57c53.15,22.01 131.3,16.04 131.78,-10.08c0.44,-24.46 17.08,-35.37 36.79,-24.11c11.92,6.81 12.96,39.75 1.26,39.77c-1.41,0 -3.84,6.83 2.7,4.69c10.26,-3.34 56.64,-3.42 64.34,-0.11c43.88,18.84 103.18,27.85 108.35,16.47c2.37,-5.22 2.52,-5.01 -10.01,-13.89c-11.98,-8.5 -2.04,-25.4 14.81,-25.18c14.09,0.18 22.17,7.17 24.75,21.41c0.81,4.49 2.04,6.32 3.88,5.8c14.34,-4.12 15.57,-1.19 28.97,11.4l6.28,-3.39c22.14,-11.98 35.04,15.54 32.43,18.71c-7.43,9.01 12.27,1.87 429.66,1.87c141.03,4.24 222.39,-2.59 252.41,-21.19c40.76,-25.26 47.01,-79.49 13.02,-113.09c-25.6,-25.3 -41.01,-14.84 -52.59,-10.29c-19.08,7.49 -19.62,57.04 -0.69,63.02c5.19,1.63 4.07,9.1 -1.49,9.91c-15.55,2.24 -39.27,-45.5 -20.08,-82.97c23,-44.9 99.27,-45.81 133.59,-27.59c30.48,16.17 50.93,50.95 50.92,85.28c-0.01,45.28 21.66,7.38 45.99,51.36c15.74,28.46 13,57.01 10.2,82.12c51.23,26.52 51.07,33.38 78,61.45c12.95,13.49 6.24,10.88 14.04,18.66c7.59,7.56 4.38,11.1 -11.36,12.5c-32.72,2.91 -75.5,56.4 -69.96,73.2c3.55,10.8 17.99,-3.41 21.42,-7.31c17.71,-20.2 54.39,-17.12 61.51,5.16c3.41,10.69 18.9,-5.56 22.64,-5.57c1.05,0 21.13,-13.17 31.09,-28.68c5.45,-8.47 9.92,-10.84 13.89,-7.37c7.84,6.85 21.47,10.1 30.95,13.77c14.81,5.73 61.28,25.92 167.42,41.22c3.8,0.55 36.77,4.02 42.36,6.59c12.18,5.59 -2.24,11.22 -8.89,11.3c-17.88,0.21 -54.16,3.9 -64.83,6.6c-31.14,7.88 -6.11,-2.35 -55.77,14.4c-31.56,10.64 -48.89,12.38 -92.63,35.57c-2.21,1.17 -12.6,5.53 -12.6,8.89c-1.91,5.01 -7.02,2.84 -16.83,-7.12c-10.44,-10.62 -17.7,-15.77 -37.2,-26.37l-12.47,-6.77c-5.09,3.46 -13.81,9.11 -18.44,14.1c-12.49,13.47 -46.72,7.82 -54.87,-9.05c-4.49,-9.29 -17.23,-11.63 -17.21,-3.17c0.04,25.72 40.22,63.93 70.44,67c11.77,1.19 14.29,4.58 9.8,13.17c-6.86,13.11 -7.56,21.09 -35.91,52.06c-10.78,11.78 -48.12,38.68 -53.72,38.68c-4.97,0.01 -5.55,2.65 -2.48,11.31c10.45,29.47 -2.65,64.62 -19.62,83.57c-8.49,9.48 -17.33,8.37 -19.42,13.35c-1.93,4.6 3.04,27 -20.58,61.46c-13.11,19.14 -30.46,36.05 -52.12,45.09c-69.74,29.13 -155.81,-32.49 -116.91,-114.4zm174.37,6c1.02,-9.1 5.23,-15.72 11.8,-18.53c22.37,-9.59 38.21,-44.99 33.1,-74c-4.04,-22.87 -3.87,-24.77 2.29,-26.26c22.77,-5.52 62.73,-38.16 79.77,-65.16c8.04,-12.72 8.32,-12.03 -7.84,-19.06c-33.73,-14.67 -60.3,-47.26 -60.46,-74.17c-0.03,-6.1 -18.01,-7.3 -19.89,-1.33c-5.73,18.15 28.46,73.14 52.54,84.52c20.72,9.79 -35.77,59.46 -72.79,63.99c-9.6,1.17 -10.13,0.06 -5.08,5.43c8.81,9.33 16.53,40.07 14.47,57.55c-2,16.97 -25.25,35.82 -44.22,35.85c-2.32,0.01 -2.81,4 -2.87,23.45c-0.09,26.66 -1.5,30.7 -19.21,55.06c-18.53,25.49 -46.06,38.09 -27.17,15.4c8.78,-10.54 20.71,-33.28 20.16,-32.28c-4.07,-63.45 -10.58,-99.41 -95.09,-137.24c-17.28,-7.74 -17.25,-7.63 -4.77,-17.81c22.08,-18.03 37.03,-51.74 36.97,-83.38c-0.01,-6.59 0.48,-12.49 1.1,-13.11c1.92,-1.93 6.39,0.74 6.39,3.82c0.02,11.43 26.73,24.8 49.43,24.74c38.14,-0.09 53.81,-18.22 58.46,-67.68c1.91,-20.21 6.48,-27.36 6.52,-10.18c0.01,10.69 1.27,7.63 7.98,5.25c4.06,-1.44 4.25,-4.24 0.38,-5.71c-7.61,-2.91 17.99,-12.46 -17.31,-9.2c-18.09,1.67 -17.35,1.02 -17.32,15.2c0.09,55.14 -48.92,78.65 -71.15,34.13c-13.3,-26.62 -18.21,-126.75 -7.49,-152.58c18.57,-44.74 70.78,-35.48 77.47,13.74c3.88,28.61 2.45,38.06 -5.78,38.07c-5.6,0.01 -5.91,-0.71 -8.11,-18.96c-4.91,-40.84 -20.08,-53.83 -43.96,-37.66c-8.67,5.88 -10.85,11.39 -14.44,36.57c-3.2,22.36 -5.23,21.62 60.21,21.96c62.15,0.32 59.67,0.44 55.25,-2.79c-6.7,-4.9 -0.55,-13.28 -7.42,-13.27c-2.7,0.01 -3.92,-1.44 -4.36,-5.15c-0.48,-4.12 0.17,-5.16 3.17,-5.17c4.04,-0.01 6.69,-2.77 5.11,-5.33c-2.39,-3.85 -12,0.08 -13.04,5.33c-1.66,8.37 0.71,19.18 3.93,17.93c4.49,-1.73 6.63,0.99 2.98,3.78c-9.29,7.07 -12.39,2.56 -15.56,-22.62c-8.92,-70.72 -56.14,-97.11 -98.21,-54.9c-13.99,14.04 -15.71,14.43 -17.45,3.89c-5.26,-31.9 -24.46,-66.93 -44.29,-80.78c-15.01,-10.49 -16.64,-20.62 -3.29,-20.44c10.01,0.14 15.81,-3.86 37.59,-14.67c65.38,-32.46 86.38,-115.62 40.47,-160.25c-16.33,-15.88 -15.65,-22 1.2,-10.7c33.64,22.57 61.38,80.48 45.96,95.96c-3.05,3.05 3.23,10.14 9.02,10.18c37.49,0.26 62.09,44.43 47.77,85.75c-5.67,16.38 -6.4,15.29 18.02,27.05c12.14,5.84 24.7,13 27.92,15.9c24.93,22.53 36.88,30.57 26.92,30.59c-5.68,0.01 -33.6,28.62 -42.86,43.92c-10.16,16.79 -12.24,31.24 -16.25,55.66l23.16,-0.04c0.55,-16.3 -2.11,-42.33 48.75,-80.94c5.39,-4.1 11.93,-8.26 14.53,-9.25c13.55,-5.18 -30.9,-52.33 -63.32,-67.17c-9.51,-4.35 -14.82,-9.29 -18.85,-12.64c5.62,-20.16 23.92,-67.97 -37.88,-100.02l-16.55,-8.58c0,0 -0.42,-23.68 -0.42,-23.68c-1.67,-92.62 -106.76,-108.29 -148.39,-70.46c-9.51,8.64 -7.98,10.63 5.01,6.51c81,-25.69 139.65,156.11 -35.08,169.9c-56.3,4.44 -1414.17,-0.84 -1643.29,1.06c-197.49,1.64 -204.59,1.55 -204.6,-2.84c0,-3.5 9.3,-4.14 52.98,-3.65c73.84,0.83 23.51,-8.78 18.81,-8.87c-0.78,-0.02 -3.11,-1.5 -5.18,-3.31c-7.25,-6.31 -13.26,-7.63 -27.61,-6.06c-31.64,3.48 -47.81,-5 -9.67,-3.06c19.1,0.96 21.84,-2.33 5.14,-6.17c-16.61,-3.82 -25.67,-1.84 -33.78,7.4c-7.66,8.73 -6.2,9.9 11.96,9.61c39.19,-0.63 53.78,-0.09 51.78,1.92c-2.55,2.56 -43.62,1.34 -68.35,0.94l1.11,14.23c-462.72,0.45 -559.2,-5.48 -746.11,-7.27c-131.99,-1.26 -156.75,-4.7 -179.03,-16.34c-65.36,-34.11 -58.55,-121.75 -32.07,-143.57c26.08,-21.5 81.72,-7.43 55.34,-20.79c-36.65,-18.58 -103.6,-1.42 -119.8,30.7c-12.65,25.08 -19.72,57.89 -15.22,70.72c2.46,7.02 0.3,10.15 -9.2,13.3c-32.48,10.78 -55.97,54.42 -42.17,78.36c3.68,6.39 4.36,5.38 -13.48,19.79c-57.68,46.6 -78.57,71.89 -64.5,78.09c16.1,7.09 54.54,51.72 61.2,78.08c1.12,4.43 1.93,4.78 9.91,4.25c10.73,-0.71 11.13,-5.13 2.13,-23.61c-3.14,-6.45 -5.71,-12.43 -5.71,-13.3c-0.01,-6.81 -29.18,-42.01 -40.72,-49.14c-9.28,-5.72 -8.83,-7.76 4.62,-21.11c67.42,-66.92 83.34,-37.7 69.13,-68.95c-13.65,-30.01 4.22,-62.84 35.79,-65.75c12.84,-1.19 14.49,-5.22 11.98,-29.28c-5.98,-57.34 59.95,-105.25 35.32,-68.04c-11.97,18.08 -14.16,38.91 -7.86,74.49c7.59,42.86 55.57,82.97 105.06,87.84c15.42,1.52 16.96,3.34 7.43,8.82c-8.39,4.83 -29.94,30.29 -36.29,42.88c-9.9,19.62 -17.54,20.96 -18.13,68c-0.26,20.49 -6.33,32.19 -8.29,15.97c-0.94,-7.88 -4.55,-15.61 -10.61,-22.76c-3.18,-3.75 -8.49,-10.19 -11.8,-14.3c-30.39,-37.72 -74.83,-21.13 -82.79,30.9c-5.4,35.3 -4.65,45.08 3.53,45.77c9.09,0.75 9.39,0.41 9.42,-10.83c0.18,-58.16 14.29,-79.45 46.14,-69.61c11.85,3.66 21.28,13.58 21.3,22.39c0,2.04 0.94,5.45 2.09,7.58c7.43,13.84 9.65,146.03 2.65,158.51c-4.98,8.89 -14.45,17.58 -19.16,17.59c-1.76,0 -5.11,1.35 -7.46,3c-22.13,15.56 -42.92,-8.2 -44.4,-50.75c-0.78,-22.58 -2.03,-25.07 -11.37,-22.7l-5.23,1.32l1.36,23.83c4.01,69.89 47.79,93.13 91.89,48.76c33.59,-33.79 -0.78,-2.03 63.02,70.88c17.62,20.15 17.54,21.72 -1.28,24.49c-55.21,8.15 -76.59,49.42 -84.04,60.82c-22.53,34.49 -19.53,103.55 5.41,124.2c8.87,7.34 8.63,12.65 -0.44,9.8c-23.96,-7.52 -46.67,-58.34 -43.7,-97.83c1.14,-15.09 1.05,-15.57 -2.9,-15.56c-39.55,0.07 -60.67,-59.62 -35.01,-98.94c3.64,-5.57 1.3,-9.06 -7.31,-10.89c-20.53,-4.35 -44.22,-17.61 -70.33,-39.36c-9.73,-8.11 -9.85,-9.8 -1.11,-15.77c19.33,-13.22 37.73,-43.27 46.36,-75.7c2.8,-10.54 2.6,-10.76 -9.22,-9.77c-11.2,0.93 -11.93,1.65 -13.44,13.22c-3.06,23.43 -21.9,50.23 -46.09,65.57c-12.98,8.23 -12.92,5.91 -0.57,22.54c14.11,19.02 46.43,42.87 67.79,50.04c11.5,3.87 11.82,5.18 5.86,24.23c-8.33,26.65 0.6,73.71 45.96,88.6c0.56,112.33 79.72,141.49 129.24,108.57c12.97,-8.63 12.44,-9.85 -3.77,-8.61c-76.81,5.84 -87.72,-118.45 -14,-159.46c26.04,-14.49 31.95,-24.51 318.22,-24.14c1.5,0 1832.83,-7.72 2120.99,6.42c280.73,13.74 358.78,-19.41 430.45,42.1c69.62,59.75 13.21,171.05 -58.92,114.84c-27.87,-21.72 -3.92,16.08 24.27,32.49c72.71,42.33 126.03,-31.01 132.74,-90.75zm-1308.47,-127.39c-802.29,-6.23 -1207.55,5.11 -1529.67,3.76c-13.19,-0.05 -27.76,0.71 -40.54,-3.04c-32.26,-9.49 -58.16,-32.77 -72.19,-63.3c-16.05,-34.92 -12.67,-70.96 8.52,-90.79c5.51,-5.15 13.38,-12.56 17.5,-16.47c15.81,-14.98 37.02,-15.33 21.09,-21.9c-69.51,-28.65 -69.06,-140.08 0.7,-178.42c51.39,-28.2 144.88,-6.66 600.07,-6.65c34.71,0 1393.47,3.37 1432.14,3.28c495.6,-1.16 617.15,-1.8 649.19,1.03c55.32,4.89 120.68,98.65 67.44,159.26c-24.77,28.2 -62.08,25.62 -29.28,37.22c27.95,9.88 69.15,62.74 51.38,119.57c-9.87,31.56 -41.99,57.98 -76.62,63c-46.96,6.82 -368.28,-0.86 -1099.73,-6.55zm1096.39,-3.36c49.13,-8.09 81.35,-73.21 58.11,-117.46c-13.03,-24.84 -46.1,-49.78 -71.32,-53.79c-8.95,-1.43 -8.95,-4.75 0,-8.88c20.19,-9.32 62.84,-23.91 68.92,-45.91c7.1,-25.65 1.79,-77.8 -29.79,-107.98c-19.24,-18.39 -57.69,-18.94 -333.42,-18.72c-199.54,0.17 -1936.66,-5.26 -1945.74,-5.9c-10.27,-0.72 -323.59,-8.3 -394.17,-3.29c-86.2,6.1 -106.91,96.09 -63.72,139.21c12.95,12.92 44.04,32.32 46.2,28.82c0.74,-1.19 3.36,-1.89 5.82,-1.55c8.21,1.15 6.32,22.2 -2,22.23c-10.16,0.03 -46.42,16.33 -62.7,45.78c-16.58,29.98 -11.19,80.4 50.73,112.6c24.13,12.55 -25.76,8.8 457.06,9.34c75.53,0.08 1150.62,-7.96 1455.6,2.6c1,0.03 471.43,4.46 473.7,6.72c2.25,2.25 271.7,-1.34 286.72,-3.82zm71.25,-169.96c-9.82,-10.28 -4.55,-27.22 9.28,-29.83c9.58,-1.82 15.55,5.01 15.57,17.81c0.03,15.49 -14.71,22.62 -24.85,12.02zm-2833.72,2.58c-13.64,-14.55 -4.64,-36.33 14.59,-35.34c12.59,0.64 17.1,6.19 17.79,21.87c0.79,17.87 -20.1,26.57 -32.38,13.47zm1437.38,367.31c6.69,-12.99 0.19,-29.37 -8.28,-20.88c-4.88,4.9 -5.31,17.99 -0.76,23c4.25,4.68 5.72,4.33 9.04,-2.12zm222.32,-80.61c-0.03,-19.11 11.27,-3.54 11.27,0.71c0.02,7.15 24.46,32.96 24.47,36.19c0,2.32 8.93,1.86 11.39,1.86l-0.93,-18.73c-1.13,-22.9 -1.13,-22.9 18.19,-13.53c39.5,19.15 73.88,22.11 113.52,9.77c7.72,-2.41 16.98,-6.78 72.65,-34.33c130.26,-64.46 242.19,-67.21 277.73,-6.82c8.8,14.95 8.22,25.59 -0.96,17.66c-17.17,-14.84 -36.99,3.72 -25.27,23.64c10.75,18.28 31.59,14.75 39.51,-6.68c32.2,-87.11 -134.09,-119.05 -270.6,-51.98c-22.81,11.21 -20.47,11.14 -23.12,0.69c-5.42,-21.39 -24.22,-38.16 -42.81,-38.19c-12.04,-0.02 -13.8,2.43 -6.9,9.61c4.68,4.86 5.44,7.27 6.06,19.11l0.71,13.56c-13.66,18.23 -35.84,58.95 -123.28,20.69c-94.16,-41.21 -68.06,-38.51 -100.5,-50.38c-7.75,-2.83 -17.89,-6.66 -22.54,-8.5c-50.89,-20.17 -141.56,-5.81 -161.69,25.61c-4.16,6.48 -30.88,34.85 -15.91,34.83c12.52,-0.02 14.99,-24.44 36.24,-36.95c4.29,-2.52 8.79,-5.78 9.98,-7.22c19,-22.98 98.73,-13.57 126.27,14.91c25.69,26.56 18.09,70.97 -13.94,81.42c-7.27,2.38 -8.71,5.2 -4.69,9.21c4.85,4.83 65.17,-0.24 65.15,-46.16zm-486.16,25.78c17.95,-18.56 11.35,-2.42 50.79,17.1c10.52,5.2 34.02,4.46 46.45,-1.48c9.48,-4.52 13.35,-10.01 6.55,-9.31c-29.11,3.02 -49.58,-22.36 -41.66,-51.64c17.26,-63.75 129.75,-68.88 173.41,-7.92c7.84,10.94 11.51,14.17 16.14,14.16c9.06,-0.02 -13.9,-33.63 -31.83,-46.6c-31.8,-23.01 -94.62,-32.11 -132.67,-19.21c-32.35,10.96 -53.59,19.38 -62.84,24.92c-70.87,42.41 -101.69,57.5 -163.03,48.1c-40.48,-6.2 -58.4,-38.86 -36.17,-65.92c6.9,-8.41 6.15,-10 -4.67,-9.99c-31.68,0.06 -37.21,29.46 -43.23,39.23c-0.23,0.37 -7.4,-2.79 -15.94,-7.01c-25.83,-12.78 -18.44,-4.85 -45.88,-16.33c-8.15,-3.41 -37.03,-7.53 -42.11,-9c-88.99,-25.77 -195.67,15.27 -190.7,73.35c2.52,29.38 35.57,42.75 45.66,18.48c6.92,-16.65 -12.49,-32.65 -25.69,-21.16c-8.82,7.67 -9.03,-2.67 -0.42,-20.49c7.53,-15.59 36.63,-35.59 57.66,-39.63c56.34,-10.81 120.7,-0.04 187.05,31.3c14.34,6.78 31.16,12.05 35.41,17.02c1.05,1.23 83.63,50.27 164.29,29.45c12.64,-3.26 19.38,-2.56 24.93,-8.38c7.75,-8.15 19.63,-4.88 7.41,7.37c-29,29.1 -15.71,51.65 21.09,13.59zm269.54,7.69c7.36,-8.16 -3.47,-12.38 -21.23,-8.26c-4.6,1.07 -5.62,6.26 -1.96,9.92c3.88,3.86 19.2,2.77 23.19,-1.66zm26.18,-24.35c29.86,-10.33 60.73,-62.04 33.95,-56.87c-3.78,0.73 -6.19,2.96 -8.41,7.82c-20.59,44.87 -102,50.89 -123.61,9.13c-3.91,-7.57 -5.95,-7.27 -14.46,-15.17c-16.1,-14.93 -5.38,24.66 11.13,41.11c18.78,18.71 68.09,25.51 101.4,13.98zm1470.63,-25.65c-4.86,1.28 -5.4,8.66 -0.57,7.73c3.74,-0.71 6.67,-9.33 0.57,-7.73zm-1111.24,-50.04c-8.13,0.02 -5.86,-3.74 -3.83,-3.74c2.81,-0.01 2.68,-5.15 8.11,-9.57c8.7,-7.08 4.6,-7.35 -107.79,-7.15c-62.43,0.11 -108.75,0.9 -108.75,1.86c0.02,7.99 202.66,2.78 207.13,7.25c3.35,3.33 -177.08,-1.02 -177.08,1.87c0.01,5.08 11.39,6.03 73.77,6.16c75.9,0.16 112.74,2.32 58.57,3.44c-45.8,0.95 -110.3,-1.15 -111.15,1.41c-1.79,5.41 10.1,6.25 89.2,6.27c52.73,0.01 78.23,0.62 74.53,1.78c-3.14,0.99 -36.17,1.69 -74.67,1.6c-72.21,-0.18 -74.85,0.02 -65.16,5.01c5.24,2.7 14.95,3.08 78.08,3.07c39.65,0 72.09,0.61 72.09,1.37c0,1.98 -99.27,3.57 -118.16,1.89c-19.18,-1.71 -22,-0.51 -11.45,4.85c7.78,3.94 9.43,4.02 66.92,3.2c41.32,-0.59 58.95,-0.24 58.96,1.18c0,2.16 -13.38,2.74 -68.84,3.01c-33.37,0.17 -37.76,0.91 -30.32,5.13c3.19,1.81 14.83,2.58 42.62,2.8c21.02,0.17 38.69,0.78 39.26,1.34c0.97,0.97 -9.78,1.31 -46.05,1.46c-18.23,0.07 -18.54,0.3 -5.62,4.13c72.81,21.61 101.39,-49.69 59.63,-49.62zm-756.93,50.79c23.74,-2.9 4.31,-6.78 -24.88,-4.98c-19.03,1.18 -20.2,1.47 -15.01,3.68c6.13,2.61 24.27,3.2 39.89,1.3zm1871.14,-9.56c-1.12,-5.59 -1.06,-5.63 7.23,-5.65c51.1,-0.08 47.4,-62.6 25.15,-79.81c-22.16,-17.15 1.18,-9.61 22.53,-19.59l8.44,-3.94c-72.36,8.83 -2.25,8.88 -146.39,8.71c0.19,-1.82 1.2,-8.45 -0.51,-8.43c-1.33,0.03 -9.81,13.73 -9.8,15.86c0,0.57 24.92,1 55.37,0.94c75.02,-0.13 64.98,3.64 23,3.74c-47.81,0.14 -68.67,2.33 -76.77,0.03c-6.97,-1.99 -7.02,-0.9 -18.47,10.23l13.62,5c25.32,9.28 35.16,14.56 44.14,23.62c6.58,6.66 9.04,8.2 9.48,5.93c1.33,-7 87.66,-5.83 87.67,1.18c0.01,5.16 -76.38,9.61 -82.54,4.8c-3.55,-2.77 -3.6,-2.73 -0.96,0.84c13.43,18.21 18.51,22.33 26.89,21.8c9.02,-0.57 11.48,9.29 2.99,12c-4.46,1.42 -4.62,5.96 -0.26,7.09c8.76,2.27 10.38,1.51 9.19,-4.35zm2.98,-12.51c-6.17,-2.48 -0.99,-4.39 11.96,-4.41c12.5,-0.02 14.01,0.33 11.97,2.79c-2.26,2.74 -18.4,3.83 -23.93,1.62zm34.67,-16.68c6.49,2.61 -4.16,4.49 -33.43,5.91c-74.18,3.58 20.53,-11.09 33.43,-5.91zm-91.52,-26.78c0,-1.27 3.59,-2.18 8.91,-2.26c26.75,-0.42 94.26,-5 88.41,0.87c-2.13,2.14 -97.32,3.5 -97.32,1.39zm-27.6,-15.77c-11.86,-5.12 -13.92,-6.93 -7.94,-6.93c100.27,-0.18 133.32,-3.6 123.45,6.31c-5.03,5.05 -104.05,5.58 -115.51,0.62zm-1736.67,65.32c-0.01,-2.89 -47.77,0.48 -89.6,0.61c-12.63,0.04 -23.4,0.78 -23.94,1.65c-2.25,3.66 5.15,7.77 11.99,6.66c18.32,-3 101.56,-0.2 101.55,-8.92zm-52.11,-10.69c-59.7,0.69 -68.97,1.17 -68.97,3.6c0,2.44 8.05,2.81 60.44,2.76c59.71,-0.05 65.87,1.76 65.87,1.76c10.27,-3.95 49.04,-9.33 -57.34,-8.12zm-1137.43,6.07c8.64,-5.11 -12.67,-8.33 -29.57,-4.47l-5.63,1.29l6.57,2.14c11.75,3.83 23.21,4.24 28.63,1.04zm1494.52,-8.84c-4.37,0 -6.29,3.4 -3.49,6.19c2.26,2.25 14.89,-6.21 3.49,-6.19zm-1536.52,0.8c-2.44,0 -0.19,3.75 2.32,3.75c2.44,0 0.2,-3.75 -2.32,-3.75zm1293.42,-18.57c24.13,-12.13 24.96,-14.47 4.67,-13.04c-32.73,2.32 -165.5,1.93 -170.05,-0.49c-3.54,-1.89 -4.61,-1.7 -6.7,1.17c-6.29,8.63 -2.44,8.94 91.17,7.26c115.73,-2.06 101.03,2.73 -12.26,4.01c-85.57,0.96 -98.27,1.84 -91.02,6.3c1.39,0.86 38.55,1.15 82.57,0.65c163.67,-1.86 33.6,6.45 -81.83,5.17c-1.29,-0.01 -2.35,1.45 -2.34,3.26c0,6.46 142.68,-0.5 147.04,3.84c4.43,4.43 -1.1,1.9 38.75,-18.13zm-538.86,-10.9c-15.14,0.02 -18.97,14.18 -6.73,24.88c15.99,13.97 32.53,-24.93 6.73,-24.88zm1313.75,9.14c10.67,-3.37 19.06,-6.46 18.65,-6.87c-1.12,-1.12 -73.37,-2.24 -76.13,-1.19c-8.26,3.17 2.99,6.11 23.29,6.07c11.85,-0.02 21.35,0.73 21.35,1.7c0.01,2.72 -5.31,3.29 -22,2.39c-17.1,-0.92 -19.2,0.38 -15.64,9.69c4.63,12.12 15.82,-0.84 50.48,-11.79zm267.78,-6.23c-7.19,-13.85 -29.13,-7.03 -29.1,9.05c0.04,20.87 42.6,16.93 29.1,-9.05zm-2287.71,21.64c1.69,-4.41 1.17,-4.5 -29.55,-4.76c-15.92,-0.13 -30.01,-1.06 -31.3,-2.07c-3.21,-2.49 -2.95,-0.27 0.59,5.11c3.74,5.68 58.16,7.24 60.26,1.72zm1503.25,-2.33c5.61,-4.11 2.11,-5.49 -13.41,-5.29c-15.7,0.2 -18.54,1.36 -13.08,5.34c4.72,3.44 21.78,3.41 26.49,-0.05zm741.28,-9.89c-3.58,0 -4.18,-3.75 0.94,-3.76c2.5,0 3.75,-1.26 3.74,-3.76c0,-3.44 -1.25,-3.75 -15.13,-3.72c-20.4,0.03 -18.07,-4.14 2.77,-2.57c11.5,0.86 15.95,0.55 17.01,-1.18c2.75,-4.45 -3.77,-5.61 -31.42,-5.59c-28.46,0.02 -33.62,1.45 -19.69,5.48c8.48,2.45 38.63,16.96 40.17,19.32c3.39,5.24 7.12,-4.23 1.61,-4.22zm70.26,2.76c8.62,-4.48 8.26,-19.65 -0.51,-21.32c-10.25,-1.96 -17.09,16.94 -8.18,22.59c2.94,1.86 2.56,1.91 8.69,-1.27zm-1321.5,-6.21c-4.99,0.01 -5.51,0.42 -3.52,2.82c1.29,1.55 3.93,2.81 5.87,2.81c3.98,-0.01 6.3,-5.65 -2.35,-5.63zm-317.69,-0.46c3.89,-5.96 1.23,-13.18 -5.84,-15.85c-6.39,-2.42 -10.32,-0.54 -13.18,6.29c-5.2,12.43 11.63,20.88 19.02,9.56zm64.62,0.43c9.9,-5.67 9.33,-7.05 -2.92,-7.03c-10.74,0.02 -13.73,3.37 -8.05,9.02c2.88,2.87 2.31,2.97 10.97,-1.99zm780.17,-3.09c4.94,-3.29 9.36,-6.27 9.81,-6.62c8.68,-6.92 -82.25,-5.62 -83.3,-2.84c-1.49,3.89 1.55,4.32 30.26,4.35c30.52,0.03 41.97,1.17 37.87,3.78c-3.61,2.3 -54.14,1.09 -54.14,3.32c0.01,7.49 47.62,5.89 59.5,-1.99zm830.03,-14.02c-10.53,-5.86 -23.35,4.61 -15.81,12.91c9.55,10.52 31.55,-4.14 15.81,-12.91zm-1707.04,15.57c8.9,-4.07 2.85,-16.59 -8.02,-16.58c-9.86,0.02 -12.62,7.05 -5.65,14.44c4.62,4.91 6.86,5.26 13.67,2.14zm-634.8,0.29c17.96,-5.55 6.78,-7.95 -35.23,-7.57c-23.21,0.21 -42.21,0.95 -42.21,1.63c0.01,5.86 2.29,6.26 38.04,6.61c19.87,0.19 37.59,-0.11 39.4,-0.67zm973.66,-8.63c-22.05,-1.01 -25.8,0.09 -14.87,4.38c16.8,6.59 64.92,-2.08 14.87,-4.38zm-233.39,1.05c2.52,2.51 18.02,-3.39 16.98,-6.46c-0.8,-2.37 -42.37,-3 -43.82,-0.67c-1.73,2.8 3.33,9.47 5.52,7.27c2.76,-2.77 18.78,-2.67 21.32,-0.14zm1314.99,-8.8c-5.81,-1.8 -120.57,-2.45 -121.66,-0.68c-5.13,8.33 82.12,6.58 106.91,8.69c4.13,0.34 25.75,-4.59 14.75,-8.01zm-1046.93,-2.75c-1.41,-1.41 -84.85,-0.25 -96.16,-0.14c-2.32,0.02 -4.22,0.79 -4.22,1.72c0.01,2.49 27.8,7.29 37.55,6.48c21.76,-1.8 69.76,-1.16 62.83,-8.06zm282.19,3.66c37.88,-7.15 -89.09,-4.7 -144.66,-4.42c-63.82,0.32 -74.61,0.77 -74.61,3.1c0.01,5.37 6.59,5.69 94.19,4.62c115.83,-1.43 90.72,3.19 125.08,-3.3zm-1275.01,-0.37c4.92,-4.1 -1.3,-4.68 -49.8,-4.58c-40.8,0.09 -42.25,0.22 -42.76,3.85c-0.71,4.95 86.66,5.64 92.56,0.73zm1487.49,-3.27c-2.63,-2.62 -48.57,-4.86 -53.08,-2.59c-7.46,3.77 -2.02,5.2 21.6,5.65c28.83,0.56 34.54,0 31.48,-3.06zm42.11,-0.01c4.91,-3.6 1.74,-4.52 -11.19,-3.24c-9.88,0.98 -10.8,1.4 -7.51,3.4c5.03,3.05 14.44,2.97 18.7,-0.16zm-1522.07,-6.79c-3.25,1.25 -3.84,2.6 -1.14,2.59c2.27,0 5.14,-4.13 1.14,-2.59zm17.72,-10.64c4.64,-3.56 4.11,-3.58 -50.86,-2.32c-37.38,0.86 -55.94,0.65 -56.74,-0.65c-5.28,-8.5 146.74,0.19 135.06,-11.45c-0.95,-0.94 -89.01,-0.47 -115.71,0.62c-19.15,0.78 -19.62,1.05 -23.31,13.43c-1.33,4.47 2.32,6.47 9.41,5.17c12.06,-2.22 93.76,1.66 102.15,-4.8zm-92.05,-27.93c94.34,-1.12 114.43,1.59 109.69,-6.04c-1.47,-2.37 -102.37,-0.73 -111.21,-3.24c-7.5,-2.14 -14.65,-0.35 -8.15,2.04c4.83,1.78 5.17,5.69 1.04,12.01c-2.93,4.49 -3.42,9.14 8.63,-4.77zm3110.21,-7.19c10.65,0.56 46.29,-18.03 41.02,-21.4c-0.3,-0.19 -181.96,4.1 -180.96,3.1c-0.37,0.38 -1.1,3.06 -1.62,5.96c-0.52,2.91 -1.91,6.45 -3.08,7.86c-9.61,11.63 97.55,2 144.64,4.48zm-138.01,-8.82c13.46,-1.03 167.03,-5.41 155.73,-0.81c-3.82,1.56 -138.41,5.51 -155.73,0.81zm-2875.79,-4.1c-7.58,-1.89 -133.3,0.86 -137.1,2.99c-10.21,5.74 182.05,8.21 137.1,-2.99zm-145.43,-0.45c-2.45,0 -0.19,3.75 2.32,3.75c2.44,-0.01 0.2,-3.76 -2.32,-3.75zm3058.37,-12.97c4.68,1.07 12.13,0.79 21.58,-0.81c18.61,-3.16 116.02,-5.72 117.65,-3.09c1.76,2.85 4.7,2.28 4.7,-0.92c0,-1.55 -0.85,-2.81 -1.88,-2.81c-3.7,0 -16.7,-13.45 -24.48,-25.35c-7.9,-12.08 -9.98,-13.83 -12.19,-10.25c-0.63,1.03 -8.25,1.89 -16.93,1.9c-13.48,0.03 -16.05,0.54 -17.65,3.54c-4.89,9.18 43.98,-4.61 44.88,11.61c0.03,0.62 -11.9,1.65 -26.53,2.3c-20.36,0.91 -27.27,1.87 -29.49,4.1c-3.63,3.65 -4.91,3.52 29.82,2.94c14.96,-0.24 29.32,0.35 31.91,1.33c3.91,1.49 -54.74,4.86 -69.44,3.99c-1.55,-0.09 -9.35,1.64 -17.32,3.85c-25.48,7.03 -45.1,4.36 -60.05,-8.17c-6.44,-5.4 -8.91,-4.69 -8.63,2.47c0.41,10.76 -4.92,21.19 0.07,14.71c4.55,-5.9 30.32,-2.18 33.98,-1.34zm-2978.59,0.83c13.76,1.9 7.63,-3.03 0.2,-3.02c-3.49,0.01 -8.72,-0.96 -11.63,-2.14c-5.26,-2.15 -91.5,-2.31 -94.93,-0.18c-7.96,4.94 4.28,6.22 48.12,5.03c53.08,-1.42 45.42,-1.45 58.24,0.31zm59.24,-5.68c-1.51,-1.51 -24.23,-1.89 -25.68,-0.44c-2.41,2.43 3.92,4.86 12.61,4.84c11.31,-0.02 14.07,-3.41 13.07,-4.4zm-100.99,-17.71c-4.13,-5.21 -7.83,-10.42 -8.22,-11.58c-0.95,-2.82 -55.71,-2.32 -59.14,0.55c-13.77,11.46 61.37,-2.58 61.39,7.49c0.01,5 9.51,8.91 2.65,9.03c-78.32,1.35 -76.61,1.19 -72.13,6.57c1.81,2.17 5.08,2.63 13.88,1.93c69.46,-5.47 74.77,2.65 61.57,-13.99zm90.89,6.65c-2.25,2.27 -1.02,4.25 2.64,4.25c8.64,-0.02 0.03,-6.92 -2.64,-4.25zm-166.31,-8.6c-2.48,0.01 -2.47,3.76 0.01,3.76c2.48,-0.01 2.47,-3.76 -0.01,-3.76zm3123.9,-27.75c7.13,-6.57 8.29,-10.15 9.64,-29.65c0.93,-13.35 1.87,-17.14 4.83,-19.45c3.35,-2.62 0.79,-2.92 -28.35,-3.26c-43.49,-0.5 -35.64,-2.59 -26.09,34.14c5.7,21.94 25.94,31.17 39.97,18.22zm77.78,4.36c3.71,-3.34 -4.41,-9.53 -9.29,-7.09c-3.47,1.74 -7.86,2.34 -11.75,1.62c-6.7,-1.24 -13.5,3.41 -9.01,6.17c1.9,1.18 28.67,0.55 30.05,-0.7zm-3179.25,0.86c-7.28,3.91 -1.61,5.37 19.34,4.98c52.84,-0.98 -7.37,-11.42 -19.34,-4.98zm109.14,-12.86c5.47,-10.17 11.14,-38.08 9.49,-46.66c-0.86,-4.46 -0.92,-4.47 -20.83,-3.37c-27.08,1.49 -25.19,0.12 -23.74,17.22c2.56,30.18 5.62,37.34 17.53,41.06c10.31,3.21 11.75,2.54 17.55,-8.25zm3056.87,-3.93c6,-0.04 8.51,-4.51 4.68,-8.32c-4.71,-4.7 1.37,-15.2 -6.33,-9.78c-2.18,1.53 -5.03,2.38 -6.33,1.88c-2.52,-0.96 -5.37,4.25 -3.74,6.87c0.54,0.86 0.12,2.11 -0.93,2.76c-4.08,2.53 -2.15,8.97 2.33,7.76c2.32,-0.62 6.97,-1.15 10.32,-1.17zm-6.11,-7.56c-3.54,-1.35 -3.56,-1.51 -0.35,-2.83c1.88,-0.76 4.27,-0.53 5.33,0.52c2.64,2.63 -0.42,4.05 -4.98,2.31zm-3124.22,5.67c-0.01,-3.34 -21.11,-4.28 -26.12,-1.17c-6.48,4.02 -0.59,6 15.09,5.06c8.96,-0.53 11.04,-1.26 11.03,-3.89zm-0.02,-12.23c-0.01,-6.33 -2.07,-8.68 -5.02,-5.73c-4.63,4.65 -15.63,0.84 -15.63,5.62c0.01,2.16 2.41,2.81 10.33,2.79c7.66,-0.01 10.32,-0.7 10.32,-2.68zm3465.75,-48.82c10.43,-2.75 3.53,-5.17 -8.27,-2.9c-12.08,2.32 -191.2,3.31 -195.59,3.57c-1.56,0.1 -1.12,15.19 -1.13,14.19c5.61,1.41 30.8,8.2 32.71,6.4c2.17,-2.05 72.5,-5.52 74.51,-3.68c3.2,2.91 -34.31,7.84 -44.36,5.83c-8.11,-1.62 -24.87,0.73 -24.87,0.73c2.6,1.99 5.94,3.82 8.24,6.11c4.83,4.81 7.23,9.88 14.2,12.4c17.81,6.43 18.42,-9.39 144.56,-42.65zm-186.73,11.06c-11.73,1.39 -13.99,-2.76 -12.21,-2.86c0,0 87.53,-1.53 120.12,-2.92c50.74,-2.15 10.76,6.44 -39.51,6.33c-13.48,-0.03 -28.26,0.39 -32.84,0.92c-12.62,1.47 -22.82,-2.98 -35.56,-1.47zm-3462.7,16.48c19.51,-18.24 95.61,-28.69 -31.3,-22.52c-44.57,2.17 -66.63,3.66 -66.63,1.86c0,-3.62 50,-7.42 99.83,-7.58c33.65,-0.11 42.86,-1.31 37.12,-4.84c-3.19,-1.97 -75.02,0.46 -129.46,1.16c-90.7,1.19 -47.81,6.28 -43.32,4.85c4.88,-1.56 5.42,1.33 21.75,5.29c13.78,3.34 28.85,9.35 48.83,16.94c29.36,11.14 38.56,21.48 45.08,16.81c6.07,-4.34 13.19,-7.38 18.1,-11.97zm-60.38,-13.59c7.18,-2.93 80.7,-6.34 80.71,-3.75c0,5.15 -19.52,3.94 -58.18,6.73c-11.86,0.85 -25.94,-1.6 -22.53,-2.98zm241.39,8.25c-1.36,-3.53 -8.63,-3.35 -8.63,0.21c0.01,4.11 3.76,1.83 3.76,4.69c0.01,3.04 -9.38,0.29 -9.37,4.71c0.01,4.6 10.04,1.24 12.57,5.14c1.76,2.7 3.27,-10.61 1.67,-14.75zm3239.99,4.3c24.44,-16.54 15.89,-65 -12.29,-69.71c-23.89,-4 -36.97,17.7 -29.54,49.01c6.14,25.85 22.37,33.88 41.83,20.7zm-21.4,-14.17c-8.4,-5.22 -10.99,-38.93 -3.05,-39.8c11.19,-1.22 15.1,-7.31 12.69,0.27c-9.96,31.29 9.41,22.09 10.85,16.56c2.02,-7.79 5.51,-1.66 4.59,8.07c-1.45,15.4 -13.12,22.33 -25.08,14.9zm-3305.01,11.86c18.38,-12.09 21.65,-42.01 6.41,-58.63c-18.29,-19.94 -29.2,1.67 -36.06,4.1c-8.82,3.13 -9.38,35.85 -0.81,47.05c7.47,9.77 21.68,13.25 30.46,7.48zm-19.16,-9.06c-8.79,-6.13 -11.05,-32.26 -3.32,-38.37c13.04,-10.29 4,9.79 12.43,15.67c5.73,3.99 6.46,3.74 7.74,-2.73c1.58,-7.99 6.12,-7.15 7.5,1.4c2.99,18.54 -11.59,32.94 -24.35,24.03zm3291.53,-14.8c-0.01,-4.11 0.5,-15.46 -2.38,-17.76c-2.5,-2.01 -159.63,-1.21 -162.91,0.82c-2.39,1.49 -2.25,11.49 0.22,16.1c4.06,7.54 162.69,0.94 165.07,0.84zm304.93,-3.61c0.59,-0.96 0.3,-2.22 -0.65,-2.8c-2.56,-1.58 -13.46,1.02 -12.27,2.92c1.36,2.2 11.55,2.1 12.92,-0.12zm-169.92,-59.97c-57.95,59.26 -55.89,22.58 -58.29,56.68c414.13,-11.29 190.08,9.83 58.29,-56.68zm-3233.45,52.92c1.54,-1.54 -1,-16.41 -3.17,-18.58c-1.95,-1.94 -140.56,3.56 -143.11,5.69c-3.05,2.54 -1.91,16.52 1.53,18.69c4.99,3.14 143.23,-4.27 144.76,-5.8l-0.01,0zm3427.68,0.11c5.2,-2 3.19,-4.49 -3.61,-4.48c-6.84,0.01 -8.99,2.86 -3.28,4.34c1.81,0.47 3.43,0.95 3.61,1.07c0.17,0.12 1.65,-0.3 3.28,-0.93zm-3693.9,-5.45c36.21,0.08 43.27,-0.35 44.58,-2.7c6.85,-12.29 -11.86,-2.68 -55.95,-38.1c-8.96,-7.19 -10,-7.37 -15.99,-2.69c-5.65,4.43 -31.41,14.11 -56.05,23.79c-20.22,7.95 -48.17,13.99 -88.18,19.04c-12.1,1.53 -14.47,2.6 -10.99,4.94c5.59,3.75 107.69,-4.43 182.58,-4.28zm172.2,-27.58c-5.26,-0.04 -5.52,-3.5 -0.36,-4.73c6.27,-1.49 4.58,-4.58 -3.21,-5.9c-14.52,-2.44 -4.31,1.69 -4.29,11.42c0.01,3.2 1.19,3.88 6.74,3.87c9.97,-0.02 5.63,-4.62 1.12,-4.66zm92.17,0.02c1.77,-2.49 -0.12,-25.95 -2.62,-32.48c-0.96,-2.52 -1.75,-6.57 -1.76,-9c-0.01,-6.24 -10.28,-15.96 -16.85,-15.95c-5.29,0.01 -8.88,2.48 -16.42,11.29c-4.18,4.9 -9.67,41.65 -7.18,48.11c1.35,3.49 42.23,1.7 44.83,-1.97zm3050.05,-22.82c2.91,-1.73 -2.98,-6.18 -8.18,-6.17c-5.71,0.01 -11.89,4.82 -10.03,7.81c1.06,1.72 14.62,0.5 18.21,-1.64zm-3135.59,-3.06c-0.75,-2.24 -19.3,-3.84 -22.56,-1.94c-3.87,2.25 1.91,4.32 12.04,4.31c8.21,-0.02 11.09,-0.66 10.52,-2.37zm-13.16,-12.26c-13.89,-0.49 -16.71,0.48 -12.76,4.42c3.97,3.96 49.49,-3.09 12.76,-4.42zm3157.18,-4.49c0.54,-2.85 -0.97,-3.28 -11.56,-3.26c-13.93,0.02 -18.12,1.18 -18.12,5c0.01,4.41 28.84,2.72 29.68,-1.74zm5.86,-9.73c3.81,-4.61 -3.31,-6.48 -20.62,-5.43c-19.21,1.17 -20.82,1.61 -19.4,5.3c1.56,4.04 36.68,4.16 40.02,0.13zm-3145.7,-0.27c2.78,-3.37 3.93,-3.21 -21.59,-3.05c-15.41,0.09 -18.88,0.63 -19.37,3.02c-0.88,4.24 37.46,4.26 40.96,0.03zm5.52,-12.04c1.84,-3.47 0.94,-3.58 -25.72,-3.24c-24.69,0.31 -27.71,0.7 -28.27,3.63c-1,5.27 51.17,4.89 53.99,-0.39zm3157.15,-10.09c-0.01,-4.07 12.2,-3.54 12.19,-9.48c-0.01,-4.04 -86.11,-4.77 -90.1,-0.76c-4.63,4.66 5.99,6.1 40.83,5.53c63.48,-1.05 29.82,5.91 -11.54,3.84c-12.24,-0.62 -19.48,0.97 -18.45,4.06c1.26,3.79 54.67,3.38 57.75,4.6c1.08,0.42 9.33,-4.5 9.32,-7.79zm-162.49,-12.2c-5.2,0.01 -6.45,0.74 -6.45,3.77c0.02,10.35 27.16,-3.81 6.45,-3.77zm-2983.93,4.92c6.13,-5.1 1.4,-5.62 -39.54,-4.31c-31.09,1 -42.36,0.78 -43.36,-0.84c-2.47,-3.97 0.41,-4.29 48.22,-5.31c35.37,-0.76 48.77,-1.69 52.61,-3.65c7.61,-3.88 6.3,-6.35 -2.82,-5.31c-15.09,1.73 -86,2.37 -86.98,0.79c-1.47,-2.37 -12.02,3.71 -12.02,6.91c0,1.52 -0.84,2.77 -1.87,2.77c-3.05,0.01 -2.14,4.16 1.84,8.38c4.23,4.5 78.61,5 83.92,0.57zm97.2,-5.12c1.81,-4.74 -1.06,-6.33 -9.06,-4.99c-9.4,1.57 -9.87,1.92 -7.04,5.33c2.83,3.4 14.77,3.15 16.1,-0.34zm3056.7,-6.31c-0.02,-10.14 -4.77,-10.63 -92.68,-9.55c-47.84,0.59 -82.14,0.3 -82.76,-0.69c-2.04,-3.31 10.04,-3.85 82.02,-3.67c76.41,0.19 77.73,0.09 69.69,-5.16c-4.53,-2.96 -9.78,-3.23 -51.21,-2.71c-127.1,1.59 -115.51,-3.92 -103.11,20.79c145.16,-1.44 172.06,-2.04 173.19,0.88c1.27,3.28 4.86,3.36 4.86,0.11zm-3065.63,-3.16c9.68,0.56 10.91,0.22 11.38,-3.13c0.54,-3.75 -62.54,-6.09 -66.17,-2.45c-0.65,0.65 2.45,0.79 6.88,0.31c13.95,-1.54 30.62,9.5 34.77,6.36c1.25,-0.94 7.16,-1.44 13.14,-1.09zm17.38,-21.28c0,-3.09 -164.31,-1.01 -167.43,2.12c-4.4,4.41 2.18,6.25 18.23,5.1c51.42,-3.69 149.21,-0.28 149.2,-7.22zm2997.64,-4.86c5.38,2.87 3.91,-1.94 1.68,-1.94c-1.08,0 -4.31,-1.74 -7.19,-3.86c-5.08,-3.73 -7.31,-3.84 -70.79,-3.45c-77.07,0.47 -70.24,0.22 -70.24,2.57c0.01,6.03 5.53,8.01 18.27,6.57c14.42,-1.63 122.92,-2.74 128.27,0.11zm-2993.22,-4.29c5.71,-5.26 -2.35,-5.75 -75.35,-4.54c-72.04,1.18 -79.25,1.83 -79.24,7.08c0.01,2.12 152.24,-0.37 154.59,-2.54zm2847.72,-6.68c0.99,-0.99 29.13,-2.35 63.72,-3.08l61.93,-1.32c11.29,-12.41 12.17,-22.56 11.04,-24.39c-1.79,-2.88 -125.29,0.42 -121.27,-3.61c1.64,-1.65 18.57,-2.3 63.23,-2.46c61.16,-0.21 64.84,-0.61 61.07,-6.7c-1.7,-2.73 -28.2,-1.96 -115.76,-0.57c-10.03,7.56 -11.1,9.46 -37.7,19.56c-15.46,5.86 2.9,7.12 6.35,3.66c2.61,-2.63 135.14,-4.69 136.73,-2.13c7.83,12.62 -18.34,7.15 -99.42,9.46c-35.37,1.01 -41.62,0.77 -43.59,-1.64c-1.96,-2.41 -2.3,-2.42 -2.34,-0.08c-0.06,2.62 10.77,15.08 13.1,15.08c0.62,0 1.93,-0.8 2.91,-1.78zm-2835.3,-15.06c-0.01,-3.28 5.31,-3.06 -62.73,-2.59c-57.46,0.4 -58.14,0.45 -68.5,5.09c-6.77,3.03 -8.48,4.32 -4.84,3.64c16.74,-3.11 136.08,2.89 136.07,-6.14zm1.35,-11.44c-3.95,-3.93 -20.04,-8.18 -23.89,-6.3c-3.64,1.78 -91.24,2.41 -102.93,2.55c-1.36,-2.07 -6.53,-9.16 -5.26,-11.22c1.94,-3.16 90.04,-2.83 96.17,0.36c17.74,9.21 -0.14,-3.94 -19.55,-22.02c-87.48,1.31 -83.78,0.55 -84.46,5.34c-0.53,3.68 0.36,3.74 45.05,3.06c62.39,-0.96 55,2.95 -1.8,3.73c-48.17,0.67 -46.96,0.28 -39.16,12.48c8.65,13.53 13.95,17.85 20.31,16.56c14.07,-2.83 121.52,1.44 115.52,-4.54zm2975.83,-26.21c-0.5,-2.95 -2.49,-15.78 -3.54,-17.55c-1.62,-2.72 -80.65,-1.52 -82.95,1.26c-3.76,4.54 -0.07,4.99 40.54,4.91c50.03,-0.08 69.5,4.32 -47.75,3.12l-5.78,4.59c-8.12,6.45 -6.46,8.27 -3.09,5.46c3.34,-2.78 30.2,-2.24 102.57,-1.79zm-1252.32,-3.8c-19.8,-1.76 -25.62,-5.15 -23.4,-1.58c3.47,5.59 -77.01,-4.49 -60.82,5.84c4.61,2.94 137.98,0.5 84.22,-4.26zm181.12,-0.15c3.13,-2.61 1.11,-14 -2.93,-16.52c-5.1,-3.17 -25.29,-5.32 -23.55,-2.5c0.91,1.46 -0.53,2.17 -4.4,2.18c-6.8,0.01 -7.33,-1.3 -1.52,-3.82c8.55,-3.72 -12.14,0.46 -25.61,5.16c-43.99,15.36 30.29,2.94 49.56,7.82c7.72,1.95 10.21,1.73 -34.54,3.07c-61.36,1.84 -13.14,-6.49 -53.67,2.89c-19.14,4.44 -14.45,8 8.46,6.42c21.19,-1.45 85.33,-2.31 88.2,-4.7zm-15.84,-17.73c2.6,1.61 2.12,2.74 -1.18,2.74c-3.95,0.01 -1.12,-4.15 1.18,-2.74zm81.01,21.15c4.28,-2.3 -28.42,-15.18 -33.74,-13.29c-5.23,1.86 -1.82,4.18 6.11,4.17c4.65,-0.01 8.45,0.85 8.45,1.91c0,1.12 -4.32,1.79 -10.4,1.6c-11.37,-0.35 -17.63,2.85 -10.51,5.37c6.81,2.41 35.74,2.58 40.09,0.24zm-1082.42,0.15c0.66,-1.08 0.27,-3.09 -0.87,-4.46c-1.14,-1.37 -1.6,-3.73 -1.02,-5.24c2,-5.25 -3.6,-7.49 -12.08,-4.83c-8.1,2.55 -9.24,5.79 -2.37,6.79c10.86,1.58 2.6,4.23 -11.75,3.77c-15.91,-0.51 -19.38,0.3 -17.09,4c1.65,2.66 43.54,2.63 45.18,-0.03zm312.46,-0.4c-0.01,-4.24 -8.22,-6.01 -22.27,-4.81c-25.02,2.16 -57.87,-5.53 -53.63,1.32c1.54,2.47 -4.81,0.78 -4.81,3.56c0,1.2 14.71,1.85 40.36,1.81c24.67,-0.04 40.35,-0.77 40.35,-1.88zm129.5,-9.04c-6.34,-3.73 -7.93,-7.32 -8.45,-19.11c-1.1,-25.19 35.64,-30.43 39.65,-5.66c1.74,10.78 4.99,12.38 12.87,6.35c8.32,-6.37 8.29,-8.59 -0.12,-8.57c-9.32,0.01 -6.05,-3.96 2.06,-3.43c8.77,0.57 7.54,1.15 10.46,-16.75c-53.72,0.38 -30.71,0.22 -84.42,0.59c-2.44,16.42 -4.1,19.63 9.6,19.66c24.07,0.06 -15.76,9.23 -43.17,0.95c-7.67,-2.31 -1,4.79 -7.86,4.8c-3.64,0.01 -6.95,3.18 -5.16,4.96c4.63,4.61 70.19,-3.88 62.69,3.65c-3.58,3.59 -78.16,-1.76 -78.25,10.2c0,0.52 18.19,0.17 40.44,-0.76c36.99,-1.56 44.64,-1.26 41.76,1.63c-2.52,2.53 -93.46,0.66 -93.45,6.5c0.01,4.23 5.39,5.35 22.25,4.62c80.81,-3.49 92.53,-1.73 79.1,-9.63zm-8.51,-36.29c0.72,1.17 -2.63,1.87 -8.8,1.87c-20.93,-0.03 5.74,-6.8 8.8,-1.87zm50.09,-3.81c8.34,0.01 11.01,0.55 9.03,1.83c-8.38,5.44 -34.3,-1.85 -9.03,-1.83zm239.93,49.31c4.82,-1.54 2.9,-5.94 -3.26,-7.47c-7.05,-1.76 -14.66,-10.28 -17.98,-10.48c-9.3,-0.58 -76.34,1.7 -76.35,-1.48c0,-2.12 24.41,-3.35 47.64,-2.41c15.63,0.63 18.95,-0.32 16.47,-4.73c-3.28,-5.84 -22.83,-0.09 -22.83,-4.33c-0.01,-4.2 15.4,1.65 16.53,-4.29c0.95,-4.95 -5,-6.08 -11.56,-2.19c-9.27,5.49 -36.49,9.93 -41.82,6.81c-3.33,-1.96 -3.29,-2.13 0.71,-3.26c2.32,-0.66 4.22,-1.84 4.22,-2.62c0,-2.46 -5.39,-6.01 -7.3,-4.82c-1.01,0.62 -2.36,0.27 -3.01,-0.77c-0.7,-1.13 1.07,-1.91 4.33,-1.92c5.67,-0.01 10.86,-4.16 8.97,-7.19c-1.87,-3.02 -17.15,3.18 -23.63,-0.28c-5.22,-2.78 -4.75,-1.29 1.85,5.92c9.47,10.32 4.5,39.11 -6.74,39.13c-2.44,0 -3.57,4 -1.67,5.9c1.36,1.34 111.27,1.81 115.43,0.48zm-103.2,-8.21c0,-1.67 81.78,-3.94 86.37,-2.41c1.03,0.34 1.4,1.4 0.81,2.35c-1.44,2.35 -87.17,2.41 -87.18,0.06zm545.27,4.61c4.05,-2.08 8.3,-3.77 9.45,-3.77c8.12,-0.02 29.84,-38.82 1.55,-42.56c-13.95,-1.85 -16.49,10.98 -3.4,17.16c16.79,7.93 -1.35,38.69 -83.64,13.42c-36.55,-11.22 -42.31,-12.37 -59.21,-11.78c-17.63,0.61 -21.93,3.1 -12.26,7.08c3.1,1.28 6.13,3.85 6.72,5.71c3.13,9.78 13.11,9.63 10.29,-0.16c-1.67,-5.78 -1.59,-5.9 3.38,-4.65c11.04,2.76 29.31,3.31 52.03,12.99c22.8,9.7 62.22,13.15 75.09,6.56zm89.07,-0.03c8.62,-6.65 -1.3,-17.67 -11.32,-12.56c-7.62,3.88 -8.92,8.39 -3.61,12.49c5.89,4.55 9.11,4.56 14.93,0.07zm-1431.01,1.07c2.98,-2.99 2.91,-3.4 -1.13,-6.66c-8.15,-6.57 -17.4,-0.38 -10.18,6.81c3.9,3.89 7.33,3.84 11.31,-0.15zm722.24,-1.36c4.18,-2.42 -3.67,-4.78 -14.65,-4.41c-7.59,0.26 -12.28,-0.33 -12.28,-1.55c0,-3.14 -3.34,-2.31 -8.36,2.07c-7.38,6.44 24.76,9.99 35.29,3.89zm674,-0.85c7.27,-7.3 -0.18,-18.3 -11.74,-17.32c-6.72,0.58 -6.93,0.81 -6.91,8.04c0.01,10.56 11.62,16.33 18.65,9.28zm-1361.68,-0.67c8.76,-9.44 -5.71,-22.1 -15.29,-13.39c-7.84,7.11 -3.12,15.16 10.13,17.3c0.73,0.12 3.06,-1.64 5.16,-3.91zm626.01,1.2c0.62,-1.01 4.48,-2.74 8.57,-3.85c41.83,-11.34 32.16,-78.41 -13.85,-96.03c-30.88,-11.82 -87.41,-10.13 -127.19,3.8c-39.51,13.85 -66.08,19.26 -95.22,19.41c-13.61,0.07 -17.36,0.66 -17.36,2.72c0.02,11.62 56.14,4.44 54.77,10.49c-0.89,3.93 -7.11,9.32 -10.78,9.33c-1.72,0 -7.98,3.26 -13.92,7.24c-10.49,7.03 -36.34,18.22 -64.17,27.78c-35.83,12.3 -102.07,7.35 -129.2,-30.62c13.26,-12.56 14.07,-12.21 12.01,-19.36c-3.78,-13.17 -27.02,-5.49 -26.99,8.92c0.07,39.99 82.34,71.31 147.44,56.13c53.95,-12.58 125.22,-44.47 133.88,-59.91c5.29,-9.44 17.76,-4.54 5.99,8.91c-12.11,13.84 -26.67,53.4 -19.66,53.39c9.66,-0.02 28.13,-19.07 37.3,-38.48c7.3,-15.46 10.01,-16.96 15.86,-8.77c3.61,5.04 14.13,11.47 18.77,11.46c1.17,0 2.06,-3.38 2.05,-7.75c-0.02,-10.66 9.87,-30.31 18.83,-37.44c43.99,-34.97 110.39,16.33 78.2,60.41c-8.72,11.95 -44.47,15.18 -39.57,3.58c4.49,-10.62 -0.33,-20.46 -8.94,-18.28c-12,3.03 -10.66,27.14 1.8,32.27c10.53,4.33 29.81,7.19 31.38,4.65zm-463.58,-6.67c-2.25,-13.18 3.22,-18.56 22,-21.66c7.69,-1.27 9.57,-4.6 2.81,-4.99c-20.07,-1.13 -47.92,2.48 -61.65,7.99c-29.17,11.7 -46.15,15.61 -63.12,14.53c-24.96,-1.58 -40.54,-10.89 -31.43,-18.75c8.41,-7.26 3.24,-20.47 -6.75,-17.28c-5.86,1.87 -13.51,13.73 -12.2,18.91c7.19,28.43 52.61,33.18 112.12,11.75c25.66,-9.25 25.64,-9.25 27.15,0.12c1.24,7.65 6.92,16.82 10.43,16.81c1.18,0 1.42,-2.83 0.64,-7.43zm580.66,0.53c12.5,-10.84 15.52,-26.34 6.51,-33.41c-9.48,-7.43 -17.73,-1.01 -14.43,11.24c5.68,21.15 -26.18,22.7 -41.49,2.02c-24.22,-32.71 19.7,-79.26 64.63,-68.49c25.09,6 45.94,35.41 36.21,51.05c-3.95,6.35 -0.11,8.56 9.76,5.63c10.78,-3.21 15.05,-9.83 13.3,-20.64c-1.92,-11.86 2.26,-10.37 8.57,3.05c3.24,6.89 9.11,15.6 13.03,19.34c3.93,3.75 10.92,10.4 15.53,14.78c14.29,13.57 22.57,4.81 11.45,-12.11c-5.16,-7.86 2.63,-10.41 -4.6,-22.05c-5.79,-9.34 -0.17,-12.14 6.73,-3.36c11.08,14.11 76.84,44.41 106.33,48.99c6.95,1.08 14.92,2.83 17.72,3.89c6.48,2.45 51.88,2.29 61.17,-0.21c3.87,-1.05 9.78,-2.64 13.13,-3.54c49.09,-13.25 78.55,-39.5 62.92,-56.07c-9.9,-10.51 -24.68,0.48 -20.56,15.28c11.24,40.43 -103.64,39.64 -185.55,-1.27c-36.06,-18.01 -42.09,-24.82 -15.05,-16.98c8.92,2.58 12.46,2.67 25.9,0.65c51.17,-7.71 -17.05,-4.06 -90.7,-28.76c-89.13,-29.89 -165.24,-7.57 -165.88,48.66c-0.39,33.97 42.77,61.9 65.37,42.31zm207.6,2.04c-3.82,-3.48 -26.02,-9.64 -27.92,-7.73c-3.46,3.47 -36.79,-0.05 -36.78,4.44c0,4.03 0.14,4.05 34.06,4.51c18.92,0.26 31.7,-0.25 30.64,-1.22zm-557.72,-0.55c-0.68,0.69 -0.12,1.25 1.26,1.25c3.35,-0.01 0.41,-2.93 -1.26,-1.25zm45.52,-0.7c19.02,-0.04 19.55,-0.15 19.55,-4.26c-0.01,-4.22 -33.47,-6.21 -61,3.39c3.34,0.44 16.28,2.36 19.39,1.55c1.38,-0.36 11.3,-0.67 22.06,-0.68zm240.77,-5.42c-2.67,-3.21 -16.91,-2.69 -18.01,0.66c-0.83,2.54 5.24,3.72 14.1,2.72c5.11,-0.57 5.77,-1.15 3.91,-3.38zm201.02,-20.69c-0.83,7.92 -0.18,8.44 10.37,8.42c13.68,-0.02 13.78,3.73 0.01,3.76c-9.56,0.01 -12.18,1.28 -9.06,4.39c0.69,0.69 10.19,1.17 21.11,1.07l19.87,-0.18c-40.86,-19.81 -41.31,-26.88 -42.3,-17.46zm-1689.52,16.07c2.26,-2.26 -9.95,-17.8 -13.98,-17.79c-7.06,0.01 -3.28,-6.48 -6.93,-1.69c-1.78,2.35 -5.33,2.92 -16.36,2.63c-14.02,-0.38 -25.74,2.94 -23.45,6.64c1.77,2.84 51.62,-2.03 51.62,1.3c0.01,2.1 -28.54,4.31 -47.85,3.71c-18.13,-0.57 -23.02,5.73 -5.15,6.63c12.53,0.64 61.16,-0.48 62.1,-1.43zm1241.87,-1.13c0.61,-0.99 6.88,-1.42 14.11,-0.95l13.01,0.83c5.73,-22.55 8.57,-23.89 -3.2,-16.59c-6.13,3.8 -6.34,4.24 -3.13,6.57c3.09,2.25 2.73,2.5 -3.57,2.52c-6.18,0.01 -21.86,6.12 -21.86,8.52c0,1.61 3.51,0.94 4.64,-0.9zm288.35,-4.81c1.13,-14.62 1.93,-19.33 3.52,-20.93c9.88,-9.92 -16.98,-5.07 -22.22,-8.37c-4.18,-2.64 3.97,-3.78 17.03,-2.38c18.17,1.96 62.5,1.38 62,-0.81c-1.65,-7.33 -6.18,-16.73 -8.75,-18.16c-1.68,-0.94 -3.06,-2.83 -3.07,-4.21c-0.01,-10.48 -33.37,-3.3 -39.19,-6.92c-5.26,-3.27 -28.37,11.5 -28.36,18.14c0,1.31 -1.3,3.47 -2.9,4.81c-3.61,3 -2.28,10.66 -1.75,17.75l10.58,-0.65c14.84,-0.92 18.91,4.82 -3.69,3.64c-8.95,-0.47 -7.6,5.93 1.59,7.54c3.61,0.63 5.13,1.26 3.38,1.4c-5.84,0.47 -5.51,3.92 0.75,7.72c7.11,4.32 10.81,4.8 11.08,1.43zm-11.06,-38.41c-7.7,-2.72 3.67,-4.28 31.55,-4.33c28.81,-0.05 38.27,1.43 28.52,4.47c-3.86,1.2 -56.62,1.08 -60.07,-0.14zm3.27,-13.51c0,-1.97 45.87,-2.42 50.68,-0.49c3.78,1.51 1.6,1.97 -11.26,2.37c-39.65,1.22 -39.41,0.85 -39.42,-1.88zm1507.3,50.1c-0.01,-5.48 -6.33,-6.64 -33.39,-6.1c-25.34,0.49 -37.63,2.61 -32.74,5.62c3.21,1.97 66.13,2.43 66.13,0.48zm-40.13,-13.46c-3.12,3.13 1.23,5.09 9.2,4.15c16.12,-1.91 -4.24,-9.13 -9.2,-4.15zm-16.21,-2.73c-2.5,-1.54 -2.5,2.82 0.01,2.82c2.18,0 2.72,-1.14 -0.01,-2.82zm-1529.03,-24.76c-4.03,-4.44 2.11,-0.3 -42.95,1.68c-28.97,1.27 -33.84,1.92 -34.34,4.54c-0.5,2.64 1.37,2.97 14.06,2.43c59.64,-2.54 72.05,1.06 63.23,-8.65zm-6.38,-5.17c-0.01,-4.96 -6.04,-6.2 -24.61,-5.05c-12.08,0.75 -19.92,0.48 -21.41,-0.75c-2.8,-2.32 -10.22,0.1 -13.88,4.54c-2.28,2.74 0.28,3.01 28.7,2.96c17.16,-0.03 31.2,-0.8 31.2,-1.7zm-38.81,-8.93c-0.68,0.69 -0.12,1.26 1.26,1.25c3.35,0 0.41,-2.92 -1.26,-1.25zm84.98,-13.75c10.08,-4.6 13.83,-10.26 13.82,-20.83c-0.05,-24.36 -35.17,-27.88 -48.28,-4.85c-9.56,16.82 14.53,34.77 34.46,25.68zm-20.51,-6.88c-4.77,-2.58 -5.21,-3.67 -4.71,-11.63c0.65,-10.43 5.62,-13.22 9.28,-5.22c1.57,3.44 3.66,4.82 7.25,4.82c4.37,-0.01 11.26,4.81 11.26,7.89c0.01,5.05 -16.06,7.93 -23.08,4.14zm18.51,-48.68c10.35,-10.38 -3.44,-24.88 -14.99,-15.76c-6.17,4.87 -6.27,9.97 -0.31,15.91c5.85,5.82 9.39,5.79 15.3,-0.15zm486.58,96.73c8.21,-1.72 41.69,-15.4 52.15,-27.96c7.68,-9.23 12.06,-11.05 12.07,-5.03c0.02,10.67 -29.21,31.52 -50.43,35.96c-4.74,0.99 -10.95,2.32 -13.78,2.95c-7.87,1.75 -6.25,-4.62 -0.01,-5.92zm-1002.37,-11.83c-15.21,-9.97 -24.61,-24.58 -17.55,-27.3c3.37,-1.3 6.59,1.47 13.21,11.37c4.75,7.09 19.87,19.22 23.95,19.21c0.85,0 1.55,0.84 1.55,1.87c0.01,4.17 -11.03,1.49 -21.16,-5.15z" id="path839"/>
  </g>
 </g>
</svg>