<?xml version="1.0"?>
<svg width="4839" height="230"
    viewBox="0 0 4839 460"
    xmlns="http://www.w3.org/2000/svg"
    xmlns:svg="http://www.w3.org/2000/svg"
    preserveAspectRatio="none"
    version="1.1">
    <g class="layer">
        <title>Layer 1</title>
        <g fill="#050505" id="svg_8">
            <path
                d="m265.86,148.02c-27.75,11.14 -52.08,25.85 -64.52,54.4c-3.85,8.85 -7.42,17.32 -6.36,27.13l6.86,-1.09c32.97,-14.52 55.04,-32.68 68.53,-67.16c1.82,-4.64 3.96,-8.79 2.92,-13.87l-7.43,0.59z"
                id="svg_9" />
            <path
                d="m4572.96,148.02c27.74,11.14 52.08,25.85 64.52,54.4c3.85,8.85 7.42,17.32 6.36,27.13l-6.86,-1.09c-32.97,-14.52 -55.04,-32.68 -68.53,-67.16c-1.82,-4.64 -3.96,-8.79 -2.92,-13.87l7.43,0.59z"
                id="svg_10" />
            <path
                d="m236.96,91.82c11.26,7.7 25.38,12.74 37.8,18.4c-21.91,-59.55 -20.41,-76.99 -84.23,-110.22c7.1,34.51 15.24,70.5 46.43,91.82z"
                id="svg_11" />
            <path
                d="m4601.86,91.82c-11.26,7.7 -25.38,12.74 -37.8,18.4c21.91,-59.55 20.41,-76.99 84.23,-110.22c-7.1,34.51 -15.24,70.5 -46.43,91.82z"
                id="svg_12" />
            <path
                d="m340.41,111.12c-11.03,-9.59 -18.38,-7.64 -32.89,-6.55c-17.23,1.3 -21.58,5.08 -30.88,11.03c-21.34,-0.86 -44.37,0.17 -65.43,-2.75c-62.23,-8.64 -54.29,-33.07 -211.21,12.39c125.8,42.37 182.66,17.18 213.98,15.7c19.81,-0.94 48.77,2.81 67.11,-4.64c5.3,6.88 6.51,7.05 15.2,8.25c21.51,2.98 39.86,-4.1 60.71,-5.08c923.58,1.96 3198.8,1.97 4124.8,0c20.86,0.98 39.21,8.06 60.72,5.08c8.69,-1.2 9.89,-1.37 15.2,-8.25c18.34,7.45 47.29,3.7 67.1,4.64c31.32,1.48 88.19,26.67 213.98,-15.7c-156.91,-45.46 -148.98,-21.03 -211.21,-12.39c-21.06,2.92 -44.09,1.89 -65.43,2.75c-9.29,-5.95 -13.64,-9.73 -30.87,-11.03c-14.51,-1.09 -21.86,-3.04 -32.89,6.55c-911.7,-2.33 -3245.5,-2.34 -4158,0l0.01,0z"
                id="svg_13" />
        </g>
    </g>
</svg>