<?xml version="1.0"?>
<svg width="160" height="47" xmlns="http://www.w3.org/2000/svg" xmlns:svg="http://www.w3.org/2000/svg" enable-background="new 0 0 750 500" version="1.1" xml:space="preserve">
 <g class="layer">
  <title>Layer 1</title>
  <g id="BACKGROUND"/>
  <g id="OBJECTS" transform="rotate(-180 80.2297 23.7891)">
   <g id="svg_235">
    <g id="svg_236">
     <rect fill="#231F20" height="2.48" id="svg_237" width="141.6" x="16.89" y="21.93"/>
    </g>
    <g id="svg_238">
     <g id="svg_239">
      <g id="svg_240">
       <g id="svg_241">
        <path d="m141.51,11.87c1.98,-1.4 4.68,-1.41 6.94,-0.66c2.34,0.73 4.01,2.6 5.41,4.41c1.42,1.8 2.42,3.82 3.16,5.86c0.7,2.06 1.24,4.12 1.65,6.2l-0.35,0.13c-0.97,-1.89 -1.87,-3.79 -2.98,-5.53c-1.08,-1.74 -2.29,-3.35 -3.69,-4.68c-0.69,-0.65 -1.5,-1.18 -2.31,-1.62c-0.82,-0.45 -1.6,-0.9 -2.38,-1.36c-1.59,-0.94 -3.2,-1.7 -5.39,-2.38l-0.06,-0.37z" fill="#231F20" id="svg_242"/>
       </g>
      </g>
      <g id="svg_243">
       <g id="svg_244">
        <path d="m158.45,27.38c-3.21,-4.14 -7.5,-7.03 -12.13,-8.55c-2.34,-0.73 -4.67,-1.14 -7.14,-1.13c-2.48,-0.06 -5.14,0.1 -7.97,-0.29c-2.77,-0.44 -5.84,-1.48 -7.9,-4.1c-0.97,-1.26 -1.66,-2.8 -1.75,-4.52c-0.04,-0.85 0.09,-1.74 0.4,-2.55c0.32,-0.81 0.8,-1.52 1.36,-2.1c2.27,-2.38 5.65,-2.9 8.41,-2.07c2.79,0.87 4.93,3.27 5.3,5.89c-1.17,-2.34 -3.42,-3.87 -5.7,-4.1c-2.28,-0.3 -4.63,0.6 -5.82,2.18c-0.59,0.8 -0.8,1.64 -0.7,2.51c0.1,0.88 0.57,1.8 1.23,2.54c1.27,1.47 3.44,2.3 5.73,2.64c2.31,0.41 4.86,0.29 7.56,0.46c2.72,0.19 5.55,0.78 8.04,1.95c5.02,2.22 9.22,6.3 11.08,11.24z" fill="#231F20" id="svg_245"/>
       </g>
      </g>
     </g>
     <g id="svg_246">
      <g id="svg_247">
       <g id="svg_248">
        <path d="m141.57,35.34c2.19,-0.68 3.8,-1.45 5.39,-2.39c0.78,-0.46 1.56,-0.9 2.37,-1.35c0.82,-0.45 1.63,-0.97 2.32,-1.63c1.4,-1.32 2.61,-2.93 3.69,-4.68c1.11,-1.73 2.01,-3.63 2.97,-5.52l0.36,0.12c-0.41,2.09 -0.95,4.15 -1.66,6.2c-0.73,2.05 -1.73,4.06 -3.15,5.87c-1.4,1.8 -3.07,3.67 -5.41,4.4c-2.26,0.75 -4.96,0.74 -6.94,-0.66l0.06,-0.36z" fill="#231F20" id="svg_249"/>
       </g>
      </g>
      <g id="svg_250">
       <g id="svg_251">
        <path d="m158.45,20.19c-1.86,4.94 -6.06,9.03 -11.08,11.25c-2.49,1.17 -5.32,1.76 -8.04,1.95c-2.69,0.17 -5.25,0.05 -7.55,0.45c-2.3,0.34 -4.47,1.18 -5.74,2.65c-0.66,0.74 -1.13,1.66 -1.23,2.54c-0.09,0.87 0.11,1.71 0.7,2.51c1.19,1.58 3.54,2.48 5.82,2.18c2.28,-0.23 4.53,-1.76 5.7,-4.11c-0.37,2.63 -2.51,5.03 -5.3,5.9c-2.76,0.83 -6.14,0.3 -8.41,-2.07c-0.56,-0.58 -1.04,-1.29 -1.36,-2.1c-0.31,-0.81 -0.44,-1.7 -0.4,-2.55c0.09,-1.72 0.78,-3.26 1.75,-4.52c2.06,-2.62 5.14,-3.66 7.9,-4.1c2.83,-0.39 5.49,-0.23 7.97,-0.29c2.47,0.01 4.8,-0.4 7.14,-1.13c4.63,-1.52 8.92,-4.42 12.13,-8.56z" fill="#231F20" id="svg_252"/>
       </g>
      </g>
     </g>
    </g>
    <g id="svg_253">
     <g id="svg_254">
      <g id="svg_255">
       <g id="svg_256">
        <path d="m19.01,24.18c-2.76,-2.25 -6.39,-2.94 -9.45,-2.06c-3.01,0.86 -5.54,3.56 -5.3,6.43c0.07,1.42 0.75,2.79 1.88,3.55c1.13,0.83 2.69,1.05 3.94,0.5c1.28,-0.55 2.34,-1.92 2.34,-3.41c0.02,-1.5 -1.02,-3.15 -2.71,-3.73c1.82,0.03 3.56,1.6 3.92,3.61c0.34,2.06 -0.8,4.19 -2.65,5.25c-1.9,1.13 -4.33,0.86 -6.13,-0.25c-1.87,-1.16 -2.93,-3.3 -3.06,-5.38c-0.12,-2.13 0.78,-4.24 2.17,-5.69c1.42,-1.44 3.23,-2.43 5.17,-2.76c3.84,-0.71 7.87,0.95 9.88,3.94z" fill="#231F20" id="svg_257"/>
       </g>
      </g>
     </g>
     <g id="svg_258">
      <g id="svg_259">
       <g id="svg_260">
        <path d="m19.01,21.65c-2.01,2.99 -6.04,4.65 -9.88,3.94c-1.94,-0.33 -3.75,-1.32 -5.17,-2.76c-1.39,-1.45 -2.29,-3.56 -2.17,-5.69c0.13,-2.08 1.19,-4.21 3.06,-5.37c1.8,-1.12 4.23,-1.39 6.13,-0.26c1.85,1.06 2.99,3.19 2.65,5.26c-0.37,2.01 -2.1,3.58 -3.93,3.6c1.7,-0.57 2.74,-2.22 2.72,-3.73c0,-1.49 -1.06,-2.85 -2.34,-3.41c-1.25,-0.55 -2.82,-0.32 -3.94,0.5c-1.13,0.76 -1.82,2.13 -1.88,3.56c-0.24,2.86 2.29,5.57 5.3,6.42c3.06,0.88 6.69,0.19 9.45,-2.06z" fill="#231F20" id="svg_261"/>
       </g>
      </g>
     </g>
    </g>
    <g id="svg_262">
     <path d="m20.4,23.46c0,1.48 -1.2,2.69 -2.68,2.69c-1.48,0 -2.68,-1.21 -2.68,-2.69c0,-1.48 1.2,-2.68 2.68,-2.68c1.48,0 2.68,1.2 2.68,2.68z" fill="#231F20" id="svg_263"/>
    </g>
    <g id="svg_264">
     <circle cx="48.31" cy="22.79" fill="#231F20" id="svg_265" r="2.79"/>
    </g>
    <g id="svg_266">
     <circle cx="84.9" cy="22.79" fill="#231F20" id="svg_267" r="2.79"/>
    </g>
   </g>
  </g>
 </g>
</svg>