<?xml version="1.0"?>
<svg width="379" height="28.999999999999996" xmlns="http://www.w3.org/2000/svg" xmlns:svg="http://www.w3.org/2000/svg" enable-background="new 0 0 1122 1122" version="1.1" xml:space="preserve">
 <g class="layer">
  <title>Layer 1</title>
  <g id="Bg"/>
  <g id="Objects">
   <g id="svg_162">
    <g id="svg_163">
     <path d="m189.61,27.54c-0.21,0 -0.43,-0.05 -0.58,-0.19l-0.06,-0.07c-2.11,-2.17 -6.98,-7.17 -13.27,-11.53c-7.45,5.34 -14.18,8.04 -20.02,8.04c-0.06,0 -0.12,0 -0.17,0c-5.69,-0.04 -8.35,-4.45 -8.41,-8.53c-0.07,-4.09 2.46,-8.58 8.16,-8.79c5.86,-0.23 12.73,2.29 20.41,7.45c6.4,-4.72 11.45,-10 13.35,-12.09c0.28,-0.31 0.82,-0.31 1.11,0c1.9,2.09 6.94,7.37 13.34,12.09c7.68,-5.16 14.55,-7.68 20.42,-7.45c5.69,0.21 8.22,4.7 8.16,8.79c-0.07,4.08 -2.72,8.49 -8.42,8.53c-0.05,0 -0.11,0 -0.17,0c-5.84,0 -12.57,-2.7 -20.02,-8.04c-6.28,4.36 -11.16,9.36 -13.26,11.53c-0.15,0.14 -0.37,0.26 -0.57,0.26zm-0.58,-1.24l0.54,0.52l-0.54,-0.52zm-12.05,-11.48c5.77,4.06 10.31,8.59 12.59,10.93c2.29,-2.34 6.82,-6.86 12.59,-10.93c-5.76,-4.31 -10.39,-9.02 -12.59,-11.38c-2.19,2.36 -6.83,7.07 -12.59,11.38zm27.79,0.03c7.01,4.94 13.29,7.44 18.69,7.44c0.06,0 0.11,0 0.16,0c4.69,-0.03 6.88,-3.68 6.93,-7.05c0.05,-3.38 -2.03,-7.1 -6.72,-7.27c-5.42,-0.2 -11.84,2.11 -19.06,6.88zm-48.79,-6.89c-0.23,0 -0.45,0 -0.67,0.01c-4.68,0.17 -6.76,3.89 -6.71,7.26c0.05,3.38 2.24,7.03 6.92,7.06c0.05,0 0.11,0 0.16,0c5.4,0 11.69,-2.5 18.7,-7.44c-6.94,-4.58 -13.12,-6.89 -18.4,-6.89z" fill="#1E1E1E" id="svg_164"/>
    </g>
    <g id="svg_165">
     <g id="svg_166">
      <path d="m362.36,15.33l-131.08,0c-0.41,0 -0.75,-0.33 -0.75,-0.75c0,-0.41 0.34,-0.75 0.75,-0.75l131.08,0c0.41,0 0.75,0.34 0.75,0.75c0,0.42 -0.34,0.75 -0.75,0.75z" fill="#1E1E1E" id="svg_167"/>
     </g>
     <g id="svg_168">
      <path d="m370.23,23.2c-0.19,0 -0.38,-0.07 -0.53,-0.22l-7.87,-7.87c-0.14,-0.14 -0.22,-0.33 -0.22,-0.53c0,-0.2 0.08,-0.39 0.22,-0.53l7.87,-7.87c0.28,-0.28 0.78,-0.28 1.06,0l7.88,7.87c0.14,0.14 0.22,0.33 0.22,0.53c0,0.2 -0.08,0.39 -0.22,0.53l-7.88,7.87c-0.14,0.15 -0.34,0.22 -0.53,0.22zm-6.81,-8.62l6.81,6.81l6.81,-6.81l-6.81,-6.81l-6.81,6.81z" fill="#1E1E1E" id="svg_169"/>
     </g>
     <g id="svg_170">
      <path d="m354.11,15.33c-0.19,0 -0.39,-0.07 -0.53,-0.22c-0.29,-0.29 -0.29,-0.77 0,-1.06l13.62,-13.62c0.3,-0.3 0.77,-0.3 1.06,0c0.3,0.29 0.3,0.76 0,1.06l-13.62,13.62c-0.15,0.15 -0.34,0.22 -0.53,0.22z" fill="#1E1E1E" id="svg_171"/>
     </g>
     <g id="svg_172">
      <path d="m367.73,28.96c-0.19,0 -0.38,-0.08 -0.53,-0.22l-13.62,-13.63c-0.29,-0.29 -0.29,-0.77 0,-1.06c0.29,-0.29 0.77,-0.29 1.06,0l13.62,13.62c0.3,0.3 0.3,0.77 0,1.07c-0.14,0.14 -0.34,0.22 -0.53,0.22z" fill="#1E1E1E" id="svg_173"/>
     </g>
    </g>
    <g id="svg_174">
     <g id="svg_175">
      <path d="m147.86,15.33l-131.08,0c-0.41,0 -0.75,-0.33 -0.75,-0.75c0,-0.41 0.34,-0.75 0.75,-0.75l131.08,0c0.42,0 0.75,0.34 0.75,0.75c0,0.42 -0.33,0.75 -0.75,0.75z" fill="#1E1E1E" id="svg_176"/>
     </g>
     <g id="svg_177">
      <path d="m8.91,23.2c-0.19,0 -0.38,-0.07 -0.53,-0.22l-7.87,-7.87c-0.14,-0.14 -0.22,-0.33 -0.22,-0.53c0,-0.2 0.08,-0.39 0.22,-0.53l7.87,-7.87c0.28,-0.28 0.78,-0.28 1.06,0l7.87,7.87c0.15,0.14 0.22,0.33 0.22,0.53c0,0.2 -0.07,0.39 -0.22,0.53l-7.87,7.87c-0.15,0.15 -0.34,0.22 -0.53,0.22zm-6.81,-8.62l6.81,6.81l6.81,-6.81l-6.81,-6.81l-6.81,6.81z" fill="#1E1E1E" id="svg_178"/>
     </g>
     <g id="svg_179">
      <path d="m25.03,15.33c-0.19,0 -0.38,-0.07 -0.53,-0.22l-13.62,-13.62c-0.29,-0.29 -0.29,-0.77 0,-1.06s0.77,-0.3 1.06,0l13.63,13.62c0.29,0.3 0.29,0.77 0,1.06c-0.15,0.15 -0.34,0.22 -0.54,0.22z" fill="#1E1E1E" id="svg_180"/>
     </g>
     <g id="svg_181">
      <path d="m11.41,28.96c-0.19,0 -0.38,-0.08 -0.53,-0.22c-0.29,-0.3 -0.29,-0.77 0,-1.07l13.62,-13.62c0.3,-0.29 0.77,-0.29 1.07,0c0.29,0.29 0.29,0.77 0,1.06l-13.63,13.63c-0.15,0.14 -0.34,0.22 -0.53,0.22z" fill="#1E1E1E" id="svg_182"/>
     </g>
    </g>
    <g id="svg_183">
     <path d="m202.09,27.84c-0.19,0 -0.38,-0.07 -0.53,-0.22l-6.28,-6.28c-0.29,-0.29 -0.29,-0.76 0,-1.06c0.29,-0.29 0.77,-0.29 1.06,0l6.28,6.28c0.3,0.29 0.3,0.77 0,1.06c-0.14,0.15 -0.34,0.22 -0.53,0.22z" fill="#1E1E1E" id="svg_184"/>
    </g>
    <g id="svg_185">
     <path d="m183.45,9.2c-0.19,0 -0.38,-0.07 -0.53,-0.22l-5.46,-5.46c-0.29,-0.29 -0.29,-0.77 0,-1.06c0.3,-0.29 0.77,-0.29 1.06,0l5.46,5.46c0.3,0.29 0.3,0.77 0,1.06c-0.14,0.15 -0.34,0.22 -0.53,0.22z" fill="#1E1E1E" id="svg_186"/>
    </g>
    <g id="svg_187">
     <path d="m177.05,27.84c-0.19,0 -0.38,-0.07 -0.53,-0.22c-0.29,-0.29 -0.29,-0.77 0,-1.06l6.28,-6.28c0.3,-0.29 0.77,-0.29 1.06,0c0.3,0.3 0.3,0.77 0,1.06l-6.28,6.28c-0.14,0.15 -0.34,0.22 -0.53,0.22z" fill="#1E1E1E" id="svg_188"/>
    </g>
    <g id="svg_189">
     <path d="m195.69,9.2c-0.19,0 -0.38,-0.07 -0.53,-0.22c-0.29,-0.29 -0.29,-0.77 0,-1.06l5.46,-5.46c0.3,-0.29 0.77,-0.29 1.06,0c0.3,0.29 0.3,0.77 0,1.06l-5.46,5.46c-0.15,0.15 -0.34,0.22 -0.53,0.22z" fill="#1E1E1E" id="svg_190"/>
    </g>
   </g>
  </g>
 </g>
</svg>