<?xml version="1.0"?>
<svg width="214" height="214" xmlns="http://www.w3.org/2000/svg" xmlns:svg="http://www.w3.org/2000/svg" enable-background="new 0 0 800 800" version="1.1" xml:space="preserve">
 <g class="layer">
  <title>Layer 1</title>
  <g id="Objects" transform="rotate(-180 107.186 107.187)">
   <g id="svg_1515">
    <path d="m214.26,145.05c-0.02,-0.15 -0.05,-0.29 -0.07,-0.43c0.02,-0.27 0.03,-0.53 0.04,-0.81c0.02,-1.65 -0.1,-3.47 -0.48,-5.34c-0.38,-1.88 -1.03,-3.81 -1.97,-5.64c-0.93,-1.83 -2.14,-3.55 -3.49,-5.11c-1.35,-1.57 -2.85,-2.98 -4.39,-4.3c-1.53,-1.31 -3.09,-2.52 -4.59,-3.72c-1.49,-1.2 -2.92,-2.38 -4.09,-3.65c-1.18,-1.29 -2.05,-2.61 -2.32,-4.14c-0.32,-1.57 -0.37,-3.1 -0.05,-4.44c0.32,-1.34 1,-2.47 1.82,-3.27c0.81,-0.81 1.7,-1.35 2.47,-1.7c0.77,-0.36 1.42,-0.55 1.86,-0.67c0.44,-0.11 0.69,-0.14 0.69,-0.14s-0.25,0 -0.71,0.07c-0.45,0.06 -1.12,0.18 -1.95,0.46c-0.82,0.28 -1.81,0.73 -2.78,1.51c-0.97,0.77 -1.88,1.95 -2.41,3.43c-0.54,1.48 -0.66,3.22 -0.49,4.97c0.06,0.89 0.3,1.89 0.7,2.77c0.39,0.9 0.91,1.73 1.49,2.52c1.16,1.58 2.53,2.98 3.9,4.37c1.37,1.38 2.77,2.74 4.07,4.14c1.81,1.93 3.41,3.97 4.6,6.06c-0.77,-0.53 -1.57,-1.01 -2.38,-1.45c-1.73,-0.88 -3.52,-1.57 -5.32,-2.1c-1.8,-0.54 -3.63,-0.87 -5.45,-1.12c-1.82,-0.25 -3.65,-0.36 -5.47,-0.37c-0.2,0 -0.39,0.13 -0.44,0.34c-0.06,0.24 0.09,0.49 0.33,0.55c1.73,0.45 3.43,0.96 5.09,1.54c1.66,0.57 3.26,1.27 4.79,2.02c1.53,0.76 2.98,1.64 4.29,2.63c0.61,0.47 1.19,0.95 1.73,1.45c-0.18,-0.04 -0.36,-0.08 -0.54,-0.11c-2.18,-0.36 -4.27,-0.14 -6.12,0.27c-1.86,0.4 -3.48,1.01 -4.84,1.58c-2.72,1.15 -4.34,2.22 -4.34,2.22s1.81,-0.73 4.62,-1.33c1.4,-0.29 3.05,-0.56 4.79,-0.59c1.74,-0.05 3.57,0.16 5.14,0.75c0.77,0.33 1.5,0.68 2.07,1.18c0.31,0.22 0.55,0.52 0.81,0.76c0.21,0.31 0.47,0.54 0.63,0.87c0.18,0.3 0.36,0.59 0.48,0.92c0.07,0.16 0.14,0.31 0.21,0.47c0.05,0.16 0.11,0.32 0.15,0.49c0.11,0.31 0.21,0.62 0.26,0.95c0.05,0.33 0.15,0.61 0.17,0.93c0.06,0.62 0.14,1.17 0.13,1.69c0.02,0.52 0.04,0.96 0.01,1.34c-0.04,0.76 -0.06,1.19 -0.06,1.19l0,0.08c-0.05,0.13 -0.11,0.27 -0.15,0.4c-0.29,0.72 -0.53,1.29 -0.71,1.68c-0.18,0.38 -0.27,0.59 -0.27,0.59l-0.03,0.06c-0.05,0.12 -0.1,0.24 -0.14,0.37c-0.03,0.1 -0.04,0.2 -0.06,0.31c-0.15,0.19 -0.29,0.39 -0.44,0.58c-1.74,2.16 -4.17,3.67 -6.74,4.32c-0.64,0.17 -1.3,0.27 -1.97,0.33c-0.35,0.03 -0.61,0.03 -0.89,0.05l-0.67,0l-0.16,0l-0.02,0c0.04,-0.01 -0.13,0 0.08,-0.01l-0.03,0l-0.07,0l-0.29,-0.02c-1.53,-0.06 -2.98,-0.32 -4.28,-0.68c-1.31,-0.37 -2.47,-0.87 -3.39,-1.56c-0.6,-0.46 -1.14,-0.97 -1.61,-1.54c0.02,-0.02 0.04,-0.05 0.05,-0.07c1.05,-1.37 2.36,-2.39 3.78,-3.16c1.43,-0.76 3,-1.17 4.51,-1.39c3.04,-0.42 5.77,-0.01 7.62,0.34c0.93,0.19 1.66,0.38 2.15,0.53c0.5,0.14 0.74,0.23 0.74,0.23c0.21,0.08 0.46,0 0.59,-0.2c0.15,-0.23 0.09,-0.54 -0.14,-0.69c0,0 -0.26,-0.17 -0.72,-0.43c-0.47,-0.27 -1.16,-0.65 -2.08,-1.07c-0.92,-0.43 -2.07,-0.89 -3.44,-1.29c-1.38,-0.4 -2.98,-0.76 -4.82,-0.88c-1.82,-0.1 -3.89,0.01 -6.03,0.64c-1.47,0.43 -2.96,1.13 -4.35,2.06c-0.05,-0.33 -0.08,-0.67 -0.11,-1.01c-0.02,-0.34 -0.03,-0.69 -0.03,-1.02l0.02,-0.81l0.04,-0.61c-0.13,-6.03 -0.37,-12.06 -0.57,-18.09c-0.2,-6.03 -0.36,-12.07 -0.49,-18.1c-0.27,-12.06 -0.49,-24.12 -0.84,-36.19c-0.3,-12.06 -0.66,-24.12 -1.05,-36.18l-0.56,-18.1l-0.64,-18.09c-0.01,-0.24 -0.19,-0.43 -0.43,-0.44c-0.25,-0.01 -0.46,0.19 -0.47,0.44l-0.63,18.09l-0.56,18.1c-0.39,12.06 -0.75,24.12 -1.05,36.18c-0.35,12.07 -0.57,24.13 -0.85,36.19c-0.13,6.03 -0.28,12.06 -0.49,18.1c-0.19,5.91 -0.43,11.83 -0.55,17.74l-0.04,0.3l-0.04,0.45c-0.02,0.29 -0.03,0.57 -0.04,0.85c-0.01,0.57 0,1.12 0.02,1.67c0.05,1.11 0.17,2.21 0.37,3.32c0.36,1.91 1.02,3.83 2,5.65l-0.05,0.11c-0.06,0.12 -0.15,0.33 -0.22,0.49c-0.3,0.73 -0.5,1.33 -0.69,2.04c-0.39,1.37 -0.57,2.84 -0.56,4.33c0.04,2.98 0.95,5.94 2.38,8.47c1.43,2.54 3.39,4.7 5.69,6.21c2.29,1.5 4.89,2.37 7.44,2.58c2.55,0.26 5.06,-0.15 7.18,-1c2.13,-0.86 3.82,-2.19 4.95,-3.55c1.13,-1.36 1.75,-2.73 2.1,-3.84c0.34,-1.13 0.41,-2.03 0.45,-2.62c0.01,-0.61 -0.01,-0.93 -0.01,-0.93c-0.01,-0.11 -0.05,-0.21 -0.12,-0.3c-0.19,-0.25 -0.54,-0.3 -0.79,-0.11l-0.01,0.01c0,0 -0.24,0.19 -0.68,0.53c-0.45,0.33 -1.07,0.8 -1.86,1.27c-0.78,0.46 -1.73,0.91 -2.75,1.2c-1.02,0.3 -2.11,0.4 -3.23,0.34c-1.13,-0.06 -2.31,-0.31 -3.53,-0.73c-1.21,-0.45 -2.47,-1.01 -3.73,-1.69c-1.27,-0.67 -2.59,-1.45 -3.66,-2.52c-1.04,-1.03 -1.77,-2.32 -2.05,-3.75c1.83,1.1 3.78,1.82 5.68,2.26c2.17,0.5 4.3,0.65 6.34,0.62l0.39,0l0.3,-0.01l0.16,-0.01l0.67,-0.03c0.62,-0.06 1.25,-0.11 1.78,-0.21c1.11,-0.18 2.21,-0.43 3.28,-0.79c2.12,-0.72 4.14,-1.76 5.89,-3.13c1.77,-1.36 3.29,-2.99 4.51,-4.81c2.43,-3.64 3.63,-8.12 3.13,-12.46z" fill="#736357" id="svg_1516"/>
    <path d="m209.96,176.95c-0.06,-0.19 -0.11,-0.29 -0.11,-0.29s-0.08,0.07 -0.23,0.2c-0.13,0.14 -0.36,0.32 -0.59,0.56c-0.21,0.24 -0.56,0.5 -0.85,0.8c-0.31,0.29 -0.68,0.59 -1.03,0.89c-0.37,0.3 -0.76,0.59 -1.16,0.85c-0.39,0.26 -0.81,0.47 -1.21,0.68c-0.42,0.18 -0.82,0.37 -1.27,0.51c-0.42,0.16 -0.9,0.27 -1.37,0.4c-1.94,0.48 -4.4,0.73 -6.46,1.01c-1.03,0.13 -1.95,0.29 -2.62,0.41c-0.33,0.05 -0.61,0.13 -0.8,0.16c-0.19,0.04 -0.29,0.06 -0.29,0.06s0.05,0.1 0.17,0.25c0.12,0.15 0.28,0.4 0.52,0.65c0.48,0.53 1.21,1.21 2.22,1.83c1,0.63 2.26,1.19 3.75,1.5c1.48,0.33 3.2,0.37 4.93,-0.04c0.86,-0.23 1.72,-0.53 2.51,-0.99c0.8,-0.44 1.51,-1.03 2.11,-1.65c0.59,-0.64 1.05,-1.33 1.39,-2.02c0.14,-0.35 0.3,-0.68 0.41,-1.02c0.09,-0.34 0.18,-0.66 0.24,-0.97c0.1,-0.63 0.16,-1.19 0.13,-1.69c-0.03,-0.51 -0.08,-0.94 -0.17,-1.29c-0.07,-0.35 -0.17,-0.62 -0.22,-0.8z" fill="#736357" id="svg_1517"/>
    <path d="m180.31,197.06c0.85,-2.12 1.26,-4.64 1,-7.18c-0.22,-2.56 -1.08,-5.15 -2.58,-7.45c-1.51,-2.29 -3.67,-4.26 -6.21,-5.69c-2.53,-1.42 -5.49,-2.33 -8.47,-2.37c-1.49,-0.02 -2.96,0.17 -4.33,0.55c-0.71,0.2 -1.31,0.4 -2.04,0.7c-0.16,0.07 -0.37,0.15 -0.49,0.21l-0.11,0.06c-1.82,-0.99 -3.74,-1.64 -5.65,-2c-1.11,-0.21 -2.22,-0.33 -3.32,-0.38c-0.55,-0.02 -1.1,-0.03 -1.67,-0.01c-0.28,0.01 -0.56,0.02 -0.85,0.04l-0.45,0.04l-0.3,0.04c-5.91,0.12 -11.83,0.36 -17.74,0.55c-6.03,0.2 -12.07,0.36 -18.1,0.49c-12.06,0.27 -24.12,0.49 -36.19,0.84c-12.06,0.31 -24.12,0.67 -36.18,1.05l-18.1,0.56l-18.09,0.64c-0.24,0.01 -0.43,0.2 -0.44,0.43c0,0.25 0.19,0.46 0.44,0.47l18.09,0.63l18.1,0.56c12.06,0.39 24.12,0.75 36.18,1.05c12.07,0.35 24.13,0.57 36.19,0.85c6.03,0.13 12.06,0.28 18.1,0.49c6.03,0.19 12.06,0.44 18.09,0.56l0.61,-0.04l0.81,-0.01c0.33,-0.01 0.68,0.01 1.02,0.03c0.34,0.02 0.68,0.06 1.01,0.1c-0.93,1.39 -1.63,2.89 -2.06,4.35c-0.63,2.15 -0.74,4.21 -0.64,6.04c0.12,1.83 0.48,3.44 0.88,4.81c0.4,1.38 0.86,2.52 1.29,3.44c0.42,0.92 0.8,1.62 1.07,2.08c0.26,0.47 0.43,0.72 0.43,0.72c0.12,0.19 0.37,0.28 0.59,0.2c0.26,-0.1 0.4,-0.38 0.3,-0.65c0,0 -0.08,-0.24 -0.23,-0.74c-0.14,-0.49 -0.34,-1.21 -0.53,-2.14c-0.35,-1.86 -0.76,-4.58 -0.34,-7.63c0.22,-1.5 0.63,-3.07 1.39,-4.5c0.77,-1.42 1.79,-2.74 3.16,-3.78c0.02,-0.02 0.05,-0.04 0.07,-0.05c0.58,0.47 1.08,1 1.54,1.61c0.69,0.91 1.19,2.08 1.56,3.38c0.37,1.31 0.62,2.75 0.68,4.29l0.02,0.28l0,0.07l0,0.04c0.01,-0.16 0.01,-0.11 0.01,-0.09l0,0.02l0,0.17l0,0.67c-0.02,0.27 -0.02,0.53 -0.05,0.89c-0.06,0.66 -0.15,1.32 -0.32,1.96c-0.65,2.57 -2.16,5 -4.33,6.74c-0.18,0.15 -0.37,0.28 -0.55,0.42c-0.24,0.05 -0.48,0.12 -0.71,0.23l-0.06,0.03c0,0 -0.21,0.09 -0.59,0.26c-0.39,0.18 -0.96,0.42 -1.68,0.71c-0.13,0.05 -0.27,0.1 -0.41,0.15l-0.07,0.01c0,0 -0.43,0.02 -1.19,0.05c-0.38,0.03 -0.82,0.01 -1.34,0c-0.52,0.01 -1.07,-0.07 -1.69,-0.14c-0.32,-0.02 -0.6,-0.11 -0.93,-0.17c-0.33,-0.05 -0.64,-0.14 -0.95,-0.25c-0.17,-0.05 -0.33,-0.1 -0.49,-0.15c-0.16,-0.07 -0.31,-0.14 -0.47,-0.21c-0.33,-0.12 -0.62,-0.3 -0.92,-0.49c-0.33,-0.16 -0.56,-0.42 -0.87,-0.63c-0.24,-0.26 -0.54,-0.49 -0.76,-0.8c-0.5,-0.57 -0.85,-1.31 -1.18,-2.07c-0.59,-1.58 -0.8,-3.41 -0.75,-5.14c0.03,-1.74 0.3,-3.39 0.59,-4.8c0.6,-2.81 1.33,-4.62 1.33,-4.62s-1.06,1.63 -2.22,4.34c-0.57,1.36 -1.18,2.99 -1.58,4.84c-0.41,1.85 -0.63,3.95 -0.27,6.13c0.03,0.18 0.07,0.36 0.11,0.53c-0.5,-0.54 -0.98,-1.12 -1.45,-1.72c-0.99,-1.31 -1.87,-2.76 -2.63,-4.29c-0.75,-1.54 -1.45,-3.14 -2.02,-4.8c-0.57,-1.66 -1.09,-3.36 -1.54,-5.09c-0.05,-0.19 -0.23,-0.34 -0.44,-0.34c-0.25,0 -0.46,0.21 -0.45,0.46c0.01,1.81 0.12,3.64 0.37,5.46c0.25,1.82 0.58,3.65 1.12,5.45c0.54,1.81 1.22,3.59 2.1,5.32c0.44,0.81 0.92,1.61 1.45,2.39c-2.09,-1.19 -4.13,-2.79 -6.06,-4.61c-1.4,-1.3 -2.76,-2.69 -4.14,-4.07c-1.39,-1.37 -2.79,-2.74 -4.37,-3.9c-0.79,-0.57 -1.62,-1.1 -2.52,-1.48c-0.88,-0.4 -1.88,-0.65 -2.76,-0.71c-1.76,-0.17 -3.49,-0.04 -4.98,0.5c-1.48,0.52 -2.66,1.43 -3.43,2.4c-0.78,0.98 -1.23,1.96 -1.5,2.78c-0.28,0.83 -0.4,1.5 -0.47,1.96c-0.07,0.45 -0.07,0.7 -0.07,0.7s0.03,-0.24 0.15,-0.69c0.11,-0.44 0.3,-1.09 0.66,-1.86c0.35,-0.76 0.89,-1.65 1.7,-2.47c0.81,-0.81 1.93,-1.49 3.27,-1.81c1.34,-0.33 2.87,-0.28 4.44,0.05c1.53,0.26 2.86,1.13 4.14,2.31c1.28,1.17 2.46,2.61 3.65,4.1c1.2,1.49 2.41,3.06 3.73,4.59s2.72,3.03 4.29,4.38c1.56,1.36 3.28,2.56 5.11,3.49c1.83,0.94 3.76,1.59 5.64,1.97c1.87,0.39 3.69,0.51 5.34,0.48c0.28,-0.01 0.54,-0.02 0.81,-0.04c0.14,0.02 0.28,0.06 0.43,0.07c4.35,0.51 8.82,-0.7 12.46,-3.13c1.83,-1.22 3.46,-2.74 4.81,-4.5c1.37,-1.75 2.41,-3.77 3.13,-5.9c0.36,-1.06 0.62,-2.16 0.8,-3.27c0.1,-0.53 0.15,-1.17 0.2,-1.78l0.04,-0.67l0.01,-0.17l0,-0.3l0,-0.38c0.04,-2.04 -0.12,-4.17 -0.61,-6.34c-0.45,-1.91 -1.17,-3.86 -2.26,-5.69c1.42,0.29 2.71,1.02 3.74,2.06c1.07,1.07 1.86,2.39 2.52,3.65c0.68,1.27 1.25,2.52 1.69,3.74c0.42,1.22 0.68,2.4 0.73,3.52c0.07,1.13 -0.04,2.22 -0.34,3.24c-0.29,1.01 -0.73,1.96 -1.2,2.75c-0.46,0.79 -0.94,1.41 -1.27,1.86c-0.34,0.44 -0.52,0.68 -0.52,0.68l-0.01,0.01c-0.07,0.08 -0.11,0.19 -0.12,0.3c-0.02,0.31 0.21,0.58 0.52,0.61c0,0 0.32,0.02 0.93,0.01c0.6,-0.04 1.49,-0.11 2.62,-0.46c1.11,-0.35 2.48,-0.96 3.85,-2.1c1.35,-1.13 2.68,-2.81 3.54,-4.94z" fill="#736357" id="svg_1518"/>
    <path d="m195.44,190.33c-0.14,-0.56 -0.33,-1.12 -0.58,-1.65c-0.25,-0.55 -0.58,-1.05 -1.02,-1.47c-0.9,-0.84 -2.38,-1.2 -3.48,-1.94c-1.12,-0.72 -2.27,-1.43 -3.38,-2.04c-1.11,-0.62 -2.18,-1.17 -3.09,-1.64c-0.92,-0.46 -1.69,-0.83 -2.26,-1.08c-0.55,-0.25 -0.88,-0.39 -0.88,-0.39c-0.11,-0.04 -0.24,-0.05 -0.37,0c-0.25,0.1 -0.37,0.39 -0.26,0.64c0,0 0.13,0.33 0.38,0.88c0.25,0.56 0.63,1.33 1.09,2.26c0.47,0.91 1.02,1.98 1.63,3.09c0.62,1.11 1.32,2.25 2.04,3.37c0.75,1.1 1.11,2.59 1.94,3.48c0.42,0.44 0.93,0.77 1.47,1.02c0.54,0.26 1.1,0.45 1.65,0.58c0.56,0.14 1.11,0.22 1.64,0.25c0.27,0.01 0.52,0.02 0.76,0.03c0.25,-0.01 0.48,-0.02 0.69,-0.02c0.43,-0.03 0.79,-0.07 1.05,-0.12c0.27,-0.05 0.41,-0.07 0.41,-0.07c0.31,-0.06 0.57,-0.3 0.63,-0.64c0,0 0.03,-0.14 0.08,-0.4c0.05,-0.27 0.09,-0.63 0.11,-1.05c0.01,-0.21 0.02,-0.44 0.03,-0.7c-0.01,-0.23 -0.02,-0.48 -0.04,-0.75c-0.02,-0.53 -0.1,-1.09 -0.24,-1.64z" fill="#736357" id="svg_1519"/>
    <path d="m185.92,194.88c-0.62,-1.01 -1.3,-1.74 -1.83,-2.22c-0.25,-0.24 -0.5,-0.4 -0.65,-0.52c-0.16,-0.12 -0.25,-0.17 -0.25,-0.17s-0.02,0.1 -0.07,0.29c-0.03,0.19 -0.1,0.47 -0.15,0.8c-0.13,0.67 -0.28,1.59 -0.41,2.62c-0.28,2.06 -0.54,4.52 -1.01,6.46c-0.13,0.47 -0.24,0.95 -0.41,1.37c-0.13,0.45 -0.32,0.85 -0.5,1.27c-0.21,0.4 -0.43,0.82 -0.69,1.22c-0.25,0.39 -0.54,0.78 -0.84,1.15c-0.31,0.35 -0.6,0.73 -0.9,1.03c-0.3,0.3 -0.55,0.64 -0.79,0.86c-0.24,0.22 -0.43,0.45 -0.56,0.58c-0.13,0.15 -0.2,0.23 -0.2,0.23s0.1,0.05 0.28,0.11c0.18,0.05 0.46,0.16 0.81,0.22c0.35,0.09 0.78,0.14 1.29,0.17c0.5,0.03 1.06,-0.03 1.69,-0.13c0.31,-0.06 0.63,-0.15 0.97,-0.24c0.34,-0.11 0.67,-0.27 1.02,-0.42c0.69,-0.33 1.38,-0.79 2.02,-1.38c0.61,-0.61 1.21,-1.31 1.65,-2.11c0.46,-0.79 0.76,-1.65 0.99,-2.51c0.41,-1.73 0.36,-3.45 0.04,-4.93c-0.31,-1.48 -0.87,-2.75 -1.5,-3.75z" fill="#736357" id="svg_1520"/>
   </g>
  </g>
 </g>
</svg>