<?xml version="1.0"?>
<svg width="213" height="66" xmlns="http://www.w3.org/2000/svg" xmlns:svg="http://www.w3.org/2000/svg" enable-background="new 0 0 500 500" version="1.1" xml:space="preserve">
 <g class="layer">
  <title>Layer 1</title>
  <g id="OBJECTS">
   <g id="svg_434">
    <path d="m213.16,18.41c-2.23,-4.34 -4.98,-8.56 -8.91,-11.54c-10.46,-7.98 -24.65,-9.02 -36.31,-3.05c-6.09,3.14 -10.94,8.71 -12.86,15.32c0.38,0.18 0.75,0.36 1.11,0.56c1.91,-6.2 5.97,-11.23 11.49,-14.31c12.12,-6.76 27.68,-5.08 37.73,3.97c1.84,1.75 3.53,3.82 4.66,5.67c0.49,0.75 0.91,1.55 1.33,2.34c-10.01,-5.22 -22.81,-4.2 -32.11,2.14c-7.62,5.35 -11.66,14.57 -12.92,23.57c-0.37,2.29 -0.42,4.62 -0.32,6.93c0.06,1.63 0.25,3.29 0.83,4.81c-1.62,-1.15 -2.97,-2.3 -4.35,-3.78c-3.34,-3.57 -5.6,-8.09 -6.81,-12.89c-0.07,0.21 -0.15,0.41 -0.31,0.59c-0.19,0.24 -0.45,0.4 -0.71,0.48c1.14,4.1 3.04,7.97 5.71,11.3c2.13,2.55 4.75,4.74 7.58,6.47c0.14,0.17 0.31,0.3 0.53,0.35c0.02,0 0.04,-0.01 0.06,-0.01c0.17,0.1 0.34,0.2 0.5,0.3c0.06,0.01 0.11,0 0.15,-0.01c-0.05,-0.15 -0.1,-0.29 -0.16,-0.44c-0.11,-0.29 -0.16,-0.59 -0.24,-0.89c-0.03,-0.12 -0.06,-0.25 -0.1,-0.37c-0.37,-0.67 -0.69,-1.39 -0.78,-1.73c-1.03,-3.67 -0.81,-7.37 -0.28,-11.39c1.43,-10.01 6.79,-20.41 16.49,-24.64c5.48,-2.4 11.66,-3.57 17.84,-2.56c2.41,0.38 4.7,0.93 7.27,1.98c1.12,0.4 2.11,1.03 3.03,1.37c0.01,0.03 0.03,0.06 0.05,0.08c0.38,0.4 1.08,-0.14 0.81,-0.62" fill="#50444E" id="svg_435"/>
    <path d="m152.65,46.24c0.48,-0.88 0.2,-1.95 0.26,-2.91c0.08,-1.82 0.71,-2.97 2.22,-4.25c1.57,-1.51 4.9,-2.21 6.04,-4.73c0.2,-0.37 0.34,-0.77 0.4,-1.17c0.29,-1.55 -0.84,-3.34 -0.82,-4.46c-0.16,-1.18 0.68,-2.37 0.86,-3.82c0.04,-0.56 -0.09,-1.12 -0.31,-1.64c0.01,-0.14 -0.04,-0.3 -0.09,-0.43c-1.08,-2.69 -4.57,-3.35 -6.19,-4.88c-1.53,-1.27 -2.17,-2.41 -2.27,-4.23c-0.07,-0.96 0.2,-2.03 -0.29,-2.9c-1.36,-1.77 -5.65,-1.01 -7.28,0.08c-2.06,1.46 -2.27,4.22 -3.7,6.16c-0.54,0.83 -2.24,2.81 -3.1,3.45c-0.17,0.14 -0.43,0.22 -0.47,0.47c-0.02,0.06 -0.02,0.11 -0.01,0.17c-1.81,0.08 -3.5,0.18 -4.92,0.2c-0.25,-0.02 -0.57,0 -0.79,0.13c-0.34,-0.6 -0.82,-1.12 -1.43,-1.46c-1.03,-0.59 -2.24,-0.61 -3.39,-0.54c-0.73,0.04 -1.53,0.12 -2.09,0.65c-0.2,0.2 -0.34,0.42 -0.46,0.66c-0.6,0.44 -1.24,0.43 -2.45,0.47c-3.32,0.27 -6.66,-0.16 -9.96,0.18c-0.32,0.05 -0.57,0.15 -0.8,0.27c-0.17,0.05 -0.35,0.1 -0.39,0.15c-0.26,0.18 -0.47,0.43 -0.63,0.71c-3.46,0.12 -6.91,0.25 -10.36,0.4l-0.04,0c-0.01,-0.3 -0.02,-0.6 -0.06,-0.89c-0.14,-0.45 -0.54,-0.78 -1,-0.88c-1.76,-0.33 -3.59,-0.16 -5.36,-0.01c-0.34,0.05 -0.7,0.11 -0.95,0.36c-0.25,0.25 -0.37,0.62 -0.41,0.97c-0.01,0.14 -0.01,0.27 -0.02,0.4c-0.01,0.02 -0.01,0.05 -0.01,0.07c-9.75,-0.42 -19.51,0.26 -29.25,-0.07c-3.74,-0.05 -7.48,-0.21 -11.21,-0.21c-0.42,0.01 -0.84,0 -1.26,0c-4.69,-0.48 -9.42,-0.32 -14.13,-0.43c-7.01,-0.13 -14.02,-0.42 -21.03,-0.09c-0.29,0.02 -0.58,0.03 -0.88,0.04c-0.04,-0.42 -0.09,-0.83 -0.17,-1.24c-0.36,-0.72 -1.28,-0.83 -2.01,-0.89c-1.34,-0.06 -2.71,-0.17 -4.04,0.07c-1.24,0.39 -1.88,1.51 -2.27,2.73c-2.3,0.46 -4.62,1.66 -5.52,3.94c-0.05,0.16 -0.12,0.33 -0.18,0.51c-0.1,0.19 -0.19,0.39 -0.24,0.6c-0.29,0.97 -0.25,2.06 0.16,2.99c0.06,0.32 0.19,0.64 0.29,0.91c0.92,2.27 3.26,3.44 5.56,3.88c0.41,1.21 1.06,2.33 2.3,2.71c1.34,0.22 2.71,0.1 4.05,0.03c0.72,-0.08 1.64,-0.19 1.99,-0.92c0.08,-0.41 0.12,-0.82 0.16,-1.24c0.29,0.01 0.59,0.01 0.88,0.04c7.01,0.25 14.02,-0.12 21.03,-0.33c4.7,-0.15 9.44,-0.05 14.11,-0.58c0.43,-0.01 0.85,-0.02 1.27,-0.01c3.73,-0.04 7.47,-0.25 11.2,-0.34c9.75,-0.43 19.51,0.15 29.25,-0.38c0,0.03 0,0.05 0.01,0.07c0.01,0.13 0.02,0.27 0.03,0.4c0.04,0.35 0.16,0.71 0.42,0.97c0.25,0.25 0.61,0.31 0.95,0.34c1.78,0.13 3.6,0.29 5.36,-0.06c0.46,-0.1 0.85,-0.44 0.99,-0.89c0.03,-0.26 0.04,-0.53 0.05,-0.79c0.02,-0.03 0.03,-0.06 0.05,-0.1c3.45,0.11 6.9,0.2 10.35,0.29c0.17,0.27 0.38,0.52 0.65,0.7c0.04,0.05 0.21,0.1 0.39,0.14c0.23,0.12 0.48,0.22 0.79,0.27c3.31,0.31 6.65,-0.16 9.97,0.07c1.21,0.03 1.85,0.01 2.45,0.44c0.12,0.24 0.27,0.46 0.47,0.65c0.56,0.53 1.37,0.6 2.1,0.63c1.15,0.06 2.37,0.03 3.38,-0.57c0.6,-0.35 1.08,-0.87 1.42,-1.48c0.22,0.12 0.54,0.14 0.79,0.13c1.42,-0.01 3.11,0.08 4.92,0.14c0,0.06 -0.01,0.11 0.01,0.17c0.05,0.24 0.31,0.33 0.48,0.47c0.87,0.63 2.59,2.59 3.14,3.41c1.45,1.92 1.68,4.68 3.76,6.11c1.64,1.08 5.95,1.8 7.28,0.02m-148.11,-12.28c-1.44,-0.56 -2.75,-1.93 -3.1,-3.64c-0.02,-0.04 -0.05,-0.06 -0.07,-0.09c0.01,-0.83 0.14,-1.75 0.22,-2.47c0.49,-1.43 1.64,-2.56 2.9,-3.07c0.35,-0.19 0.82,-0.31 1.28,-0.44c-0.05,0.23 -0.09,0.45 -0.14,0.66c-0.06,0.45 -0.09,0.91 -0.11,1.36c-0.27,2.04 -0.27,4.14 0.04,6.18c0.02,0.43 0.05,0.86 0.12,1.28c0.04,0.21 0.09,0.43 0.14,0.65c-0.46,-0.12 -0.93,-0.23 -1.28,-0.42m8.51,3.25c-0.28,0.05 -0.62,0.1 -0.61,0.08c-3.44,0.07 -4.21,0.53 -5.11,-2.12c-0.46,-1.43 -0.54,-2.2 -0.56,-3.5c-0.01,-0.18 -0.02,-0.35 -0.11,-0.51c-0.02,-0.05 -0.06,-0.09 -0.1,-0.13c-0.05,-1.11 -0.04,-2.24 -0.03,-3.42c0.04,-0.04 0.09,-0.09 0.11,-0.14c0.08,-0.16 0.1,-0.33 0.11,-0.51c0.01,-1.31 0.07,-2.07 0.51,-3.51c0.88,-2.66 1.66,-2.2 5.1,-2.18c-0.02,-0.02 0.33,0.03 0.6,0.08c0.37,1.67 -0.03,4.52 0.1,6.8c-0.01,0.53 0,1.17 0.03,1.85c0,0 -0.01,0 -0.01,-0.01l0.01,0.01l0,0c-0.19,2.34 0.33,5.43 -0.04,7.21m14.07,-2.07c-3.54,0.03 -7.09,0.09 -10.63,0.04c-0.53,0.05 -1.16,-0.04 -1.75,-0.06c-0.01,-0.71 -0.07,-1.43 -0.14,-2.14c0.01,-2.65 -0.04,-5.38 -0.01,-7.8c0.05,-0.59 0.08,-1.17 0.08,-1.76c0.6,-0.03 1.23,-0.12 1.76,-0.08c3.54,-0.08 7.08,-0.07 10.63,-0.07c4.1,0.13 8.21,0.12 12.31,0.12c0.08,0.09 0.19,0.16 0.34,0.15c3.04,-0.03 6.08,0 9.12,0.05c0,0.01 0.01,0.02 0.01,0.03c11.8,0.69 23.78,0.42 35.63,0.13c2.63,-0.05 5.26,-0.02 7.89,0.11c-0.01,0.83 0,1.67 0.02,2.5c0,0.2 0.01,0.43 0.07,0.63c-0.04,1.31 -0.06,2.62 -0.02,3.92c-0.02,0.15 -0.02,0.3 -0.02,0.43c-0.02,0.83 -0.02,1.67 0.01,2.51c-2.63,0.15 -5.26,0.21 -7.89,0.19c-11.86,-0.16 -23.84,-0.3 -35.63,0.52c0,0 -0.01,0.01 -0.01,0.02c-3.04,0.09 -6.08,0.15 -9.11,0.15c-0.15,-0.01 -0.27,0.06 -0.35,0.16c-4.1,0.04 -8.21,0.07 -12.31,0.25m71.94,0.13c-0.44,0.36 -4.64,0.09 -5.24,0.06c-0.03,-0.02 -0.05,-0.03 -0.06,-0.04c0,0 -0.01,-0.01 -0.01,-0.01c-0.02,-0.06 -0.04,-0.12 -0.05,-0.18c-0.07,-0.4 -0.06,-1.76 -0.07,-2.68c-0.06,-0.46 0.14,-1.3 -0.04,-1.79c0.03,-1.24 0.06,-2.49 0.03,-3.73c0.09,-0.5 -0.08,-1.21 -0.03,-1.63c0,-0.92 -0.03,-2.28 0.05,-2.68c0.01,-0.06 0.02,-0.12 0.04,-0.18c0,0 0.01,-0.01 0.01,-0.01c0.02,-0.01 0.03,-0.02 0.06,-0.04c0.6,-0.04 4.8,-0.35 5.24,0c0.03,0.24 0.04,1.15 0.06,1.62c0.04,0.54 0.06,1.13 0.06,1.69c-0.01,0.4 -0.02,0.8 -0.02,1.2c-0.01,0.22 -0.03,0.43 -0.04,0.61c0.01,0.05 0.02,0.09 0.04,0.13c0.02,0.76 0.06,1.53 0.1,2.3c-0.06,0.06 -0.11,0.14 -0.13,0.24c0.08,0.85 0.13,2.29 0.04,3.5c-0.01,0.47 -0.02,1.38 -0.04,1.62m11.24,-11.66c-0.03,0.7 0.13,1.41 0.16,2.11c0.06,0.51 -0.1,0.52 0.01,1.2c0.02,0.06 0.06,0.09 0.09,0.14c-0.02,1.13 -0.01,2.26 0.01,3.39c-0.03,0.04 -0.06,0.08 -0.08,0.13c-0.1,0.69 0.06,0.69 0.01,1.21c-0.03,0.69 -0.18,1.41 -0.14,2.1c-3.33,-0.05 -6.65,-0.06 -9.97,-0.26c0.09,-2.05 -0.06,-4.09 -0.13,-6.13c-0.01,-0.54 -0.05,-1.07 -0.08,-1.6c0.03,-0.19 0.05,-0.39 0.05,-0.59c-0.03,-0.43 -0.03,-0.87 -0.03,-1.31c3.36,-0.25 6.73,-0.29 10.1,-0.39m17.52,13.35c-0.78,0.03 -1.31,-0.08 -1.67,-0.31c-0.01,-0.02 -0.01,-0.05 -0.02,-0.07c-0.14,-0.26 -0.34,-0.48 -0.56,-0.68c-0.01,-0.01 -0.01,-0.02 -0.02,-0.03c0,0 -0.01,0 -0.02,0c-0.34,-0.28 -0.74,-0.49 -1.18,-0.56c-3.69,-0.61 -8.52,-0.08 -11.68,-0.34c-0.45,-0.1 -0.71,-0.21 -0.89,-0.42c-0.21,-0.36 -0.2,-0.75 -0.13,-1.62c0.02,-0.17 0.02,-0.36 0.03,-0.56c0.13,-0.4 0.02,-0.89 0.07,-1.31c-0.01,-1.72 -0.01,-3.47 -0.12,-5.2c0.03,-0.45 0.01,-0.91 -0.02,-1.3c-0.09,-0.87 -0.1,-1.25 0.11,-1.61c0.17,-0.22 0.43,-0.34 0.88,-0.44c3.16,-0.29 7.99,0.19 11.68,-0.46c0.44,-0.08 0.84,-0.29 1.17,-0.58c0.01,0.01 0.02,0.01 0.02,0.01c0.01,-0.02 0.01,-0.03 0.02,-0.04c0.22,-0.19 0.41,-0.42 0.56,-0.68c0.01,-0.02 0,-0.05 0.01,-0.07c0.36,-0.24 0.89,-0.35 1.67,-0.33c2.08,-0.15 3.58,0.54 4.06,2.49c0.23,0.98 -0.17,3.21 0,4.62c0.02,0.03 0.04,0.06 0.06,0.08c-0.08,1.33 -0.15,2.66 -0.13,4c0.04,0.31 -0.04,0.7 0.15,0.97c0.05,0.76 0.08,1.46 -0.01,1.91c-0.46,1.95 -1.96,2.65 -4.04,2.53m26.65,-11.18c0.18,0.2 0.27,0.52 0.47,0.72c0.52,1.66 0.15,3.89 -0.77,5.11c-4.17,4.66 -14.18,3.21 -20.96,3.29c-0.17,0 -0.36,-0.02 -0.55,-0.02c0.01,-0.03 0.02,-0.06 0.03,-0.09c0.2,-1.04 0.1,-2.1 0.02,-3.17c0.05,-2.93 0.25,-5.87 0.09,-8.81c0.03,-0.19 -0.06,-0.33 -0.2,-0.39c0,-0.01 0,-0.02 -0.01,-0.03c0.19,0 0.39,-0.03 0.55,-0.03c6.96,0.01 17.3,-1.65 21.33,3.42m-7.56,19.92c-1.91,-0.46 -2.55,-2.29 -3.52,-4.57c-1,-1.97 -2.5,-3.68 -4.25,-5.03c6.36,0.18 13.83,-0.09 16.57,-5c0.06,-0.09 0.08,-0.19 0.07,-0.29c0.6,-1.4 0.63,-3.09 0.11,-4.5c-0.2,-0.43 -0.5,-1.03 -0.9,-1.38c-3.2,-3.91 -10.04,-4.07 -15.93,-3.83c1.73,-1.37 3.22,-3.1 4.2,-5.08c0.94,-2.29 1.56,-4.12 3.46,-4.6c1.96,-0.69 5,-0.57 4.91,0.29c0.1,1.41 -0.15,2.87 0.42,4.21c1.09,3.04 5.05,4.51 7.05,5.88c0.22,0.2 0.36,0.33 0.49,0.46c0.55,0.68 0.95,1.66 0.83,2.64c-0.02,0.33 -0.63,1.91 -0.63,2.8c-0.18,1.46 0.45,2.82 0.72,4.22c0.02,0.13 0.1,0.94 0.05,1.16c0.01,-0.06 -0.02,0.19 -0.08,0.43c-0.09,0.12 -0.16,0.26 -0.21,0.38c-0.37,0.64 -0.5,0.74 -1.1,1.29c-1.98,1.39 -5.92,2.91 -6.98,5.96c-0.56,1.34 -0.29,2.81 -0.37,4.21c0.09,0.87 -2.95,1.02 -4.91,0.35" fill="#50444E" id="svg_436"/>
    <path d="m47.13,64.94c0.5,-0.22 0.39,-0.19 0.58,-0.6c0.1,-2.21 -0.31,-5.68 -0.44,-8.11c0.01,-0.13 -0.02,-0.26 -0.08,-0.37c-0.33,-0.35 -1.31,-0.86 -1.76,-0.56c-0.13,-0.03 -0.26,-0.06 -0.36,-0.09c-0.91,-0.24 -1.76,-0.64 -2.73,-1.21c-0.07,-0.05 -0.15,-0.09 -0.23,-0.14c-0.15,-0.09 -0.29,-0.17 -0.45,-0.27c-0.01,0 -0.01,-0.01 -0.02,-0.01c-0.03,-0.02 -0.05,-0.04 -0.06,-0.06c-3.8,-2.9 -5.22,-7.58 -2.4,-11.64c0.24,-0.41 0.74,-1 1.16,-1.33c0.02,-0.01 0.02,-0.03 0.03,-0.05c0.12,-0.09 0.25,-0.18 0.39,-0.27c-0.18,1.05 -0.12,2.15 0.1,3.19c0.36,1.36 1.06,2.61 1.96,3.68c1.94,3.55 7.61,4.89 11.59,3.01c-0.07,0.15 -0.16,0.3 -0.27,0.49c-0.71,1.31 -2.72,3.24 -3.81,3.7c-0.33,0.18 -0.74,0.21 -1.02,0.48c-0.28,0.32 -0.3,0.76 -0.33,1.17c-0.16,2.33 0.21,4.66 0.42,6.98c0.11,0.71 0.06,1.7 0.9,1.96c0.8,0.26 1.67,0.12 2.5,0.04c2.75,-0.46 5.55,-0.56 8.34,-0.56c0.62,-0.07 1.31,-0.04 1.87,-0.36c0.37,-0.26 0.55,-0.7 0.67,-1.11c0.29,-1.29 0.16,-2.64 0.21,-3.96c-0.04,-0.68 0.07,-1.4 -0.08,-2.07c-0.17,-0.59 -0.73,-0.9 -1.3,-1.02c-1.1,-0.16 -2.21,-0.1 -3.33,-0.1c1.15,-0.61 2.35,-1.13 3.38,-1.92c0.41,-0.45 0.35,-0.45 0.57,-1.08c0.66,-3.77 0.51,-7.62 0.66,-11.43c0.05,-2.11 -0.03,-4.23 -0.01,-6.34c0.01,-0.23 -0.02,-0.47 -0.2,-0.63c-0.33,-0.31 -0.93,-0.13 -1.01,0.32c-0.09,1.05 -0.02,2.1 -0.03,3.14c0.05,3.52 -0.1,7.05 -0.13,10.57c0.03,1.74 -0.25,4.07 -0.41,4.4c-0.82,0.65 -2.91,1.58 -4.24,2.4c-0.72,0.4 -1.39,1.31 -0.28,1.7c1.51,0.27 3.77,0 4.72,0.18c0.08,0.02 0.21,0.06 0.27,0.08c0.06,0.03 0.1,0.05 0.12,0.06c0.15,0.16 0.11,0.49 0.13,1.45c-0.04,1.5 0.15,3.03 -0.16,4.12c0,0 0,0 0,0c-0.02,0.04 -0.03,0.08 -0.05,0.11c-0.02,0.06 -0.07,0.14 -0.1,0.2c-0.02,0.02 -0.03,0.04 -0.05,0.05c0,0 0,0 0,0c-2.58,0 -5.18,-0.02 -7.75,0.29c-1.27,0.15 -3.02,0.5 -3.83,0.31c-0.14,-0.5 -0.28,-2.55 -0.43,-3.86c-0.11,-1.4 -0.27,-3.27 -0.1,-4.26c0.02,-0.01 0.05,-0.02 0.08,-0.03c1,-0.38 1.88,-1 2.66,-1.72c1.15,-1.04 2.18,-2.25 2.77,-3.69c0.15,-0.45 0.41,-0.92 0.29,-1.4c-0.13,-0.47 -0.71,-0.56 -1.03,-0.28c-0.02,0.02 -0.05,0.05 -0.11,0.1c-0.4,0.52 -2.04,0.88 -2.93,0.99c-2.12,0.34 -3.9,0.02 -5.51,-0.72c-0.45,-0.19 -0.97,-0.58 -1.44,-1.02c-0.03,-0.29 -0.28,-0.59 -0.55,-0.78c-0.13,-0.12 -0.22,-0.21 -0.3,-0.29c-0.02,-0.02 -0.03,-0.03 -0.04,-0.05c-0.33,-0.33 -0.46,-0.49 -0.77,-0.91c-1.19,-1.75 -1.67,-2.9 -1.6,-5c0.02,-0.29 0.04,-0.5 0.18,-1.07c0.11,-0.38 0.29,-0.89 -0.16,-1.11c0,-0.01 0,-0.01 0,-0.01c-0.04,-0.02 -0.08,-0.04 -0.13,-0.05c-0.35,-0.07 -0.64,0.17 -0.91,0.34c-0.59,0.42 -1.32,0.92 -1.59,1.6c-0.08,0.09 -0.16,0.17 -0.24,0.26c-0.09,0.05 -0.15,0.12 -0.19,0.22c-0.44,0.54 -0.81,1.15 -1.12,1.78c-0.52,1.05 -0.9,2.18 -0.93,3.36c-0.17,3.55 1.82,6.9 4.79,8.76c0.09,0.04 0.17,0.1 0.26,0.16c0.91,0.66 2.02,1.07 3.09,1.39c0.42,0.07 0.97,0.34 1.41,0.27c0,0.06 0,0.11 0,0.17c0.06,2.13 0.38,5.19 0.46,6.91c-0.18,0.03 -0.36,0.06 -0.54,0.09c-3.76,0.57 -12.47,0.68 -15.11,0.3c-0.05,-0.22 -0.33,-4.69 -0.08,-6.18c1.36,0.01 2.74,0.25 4.07,-0.09c0.6,-0.21 0.58,-0.66 0.42,-0.93c-1.32,-1.2 -4.03,-2.98 -4.37,-3.74c-0.29,-1.89 -0.08,-5.25 -0.16,-7.7c-0.05,-3.3 -0.16,-6.6 -0.33,-9.89c-0.02,-0.58 -0.97,-0.57 -0.93,0.04c0.36,5.95 -0.03,11.97 0.32,17.9c0.13,0.38 0.39,0.69 0.67,0.97c0.97,0.94 2.12,1.71 3.03,2.34c-1.05,0.06 -2.12,-0.1 -3.16,0.02c-0.4,0.13 -0.61,0.54 -0.69,0.94c-0.28,2.06 0,4.16 -0.03,6.23c0,0.49 0.22,0.97 0.67,1.2c0.78,0.36 1.67,0.27 2.51,0.3c2.09,0.05 4.17,0.01 6.26,0c2.63,-0.07 5.32,-0.05 7.89,-0.65" fill="#50444E" id="svg_437"/>
    <path d="m167.84,29.81c1.9,-4.79 4.68,-9.31 8.82,-12.89c-8.2,6.04 -14.47,16.87 -14.41,27.38c-0.21,-4.6 0.65,-9.2 2.25,-12.49c3.33,-6.88 6.12,-10.95 11.65,-15.84c3.14,-2.71 7.2,-5.49 11.61,-6.84c-9.33,1.99 -17.7,8.07 -22.5,16.31c-1.45,2.13 -2.66,4.41 -3.58,6.79c1.73,-5.62 5.19,-11.5 9.27,-15.68c4.17,-4.12 9.01,-7.3 14.51,-10.07c-6.33,2.37 -12.72,5.35 -17.51,10.25c-3.27,3.43 -5.92,7.57 -7.68,12.04c2.57,-9.96 11.76,-18.7 21.71,-22.82c-7.93,2.37 -15.38,7.31 -20.11,14.16c-0.53,0.77 -0.96,1.59 -1.34,2.43c1.16,1.9 0.78,3.94 -0.48,5.53c-0.06,0.22 -0.15,0.43 -0.23,0.64c0.89,0.94 1.12,2.32 0.86,3.59c0.08,0.99 -0.02,1.93 -0.64,2.89c-0.44,0.68 -1.02,1.2 -1.67,1.56c-0.03,-0.38 -0.52,-0.63 -0.82,-0.32c-0.21,0.22 -0.25,0.54 -0.31,0.82c-0.45,2.29 -0.13,4.71 0.64,6.9c-0.34,-2.14 -0.23,-4.14 0.2,-6.12c-0.16,1.7 -0.19,3.4 -0.05,5.1c0.16,1.11 0.72,4.67 2.19,4.54c0.01,0.06 0.02,0.12 0.04,0.18c0.34,1.37 1.03,2.61 1.88,3.73c0.36,0.57 1.01,1.19 1.62,1c0.25,0.46 0.79,0.67 1.25,0.55c0.09,0.34 0.17,0.69 0.28,1.03c0.11,0.55 0.76,0.86 1.26,0.57c0.32,-0.19 0.48,-0.6 0.38,-0.96c-0.15,-0.81 -0.13,-0.75 -0.19,-1.78c-0.18,-3.67 -0.09,-7.36 0.32,-11.02c0.54,-5.4 3.5,-13.4 7.13,-18.11c2.67,-3.41 5.96,-5.95 9.93,-7.71c-7.26,2.25 -12.9,7.95 -16.28,14.66" fill="#50444E" id="svg_438"/>
    <path d="m163.78,14.59c3.06,-3.48 6.68,-6.48 10.9,-9.02c-4.33,1.98 -8.85,4.62 -12.55,7.99c2.78,-3.57 6.24,-6.73 10.33,-9.1c-5.69,2.5 -10.99,6.11 -14.59,11.26c-0.83,1.18 -1.59,2.43 -2.24,3.74c0.32,0.2 0.64,0.42 0.95,0.63c0.16,0.02 0.31,0.07 0.47,0.12c1.23,0.23 2.39,0.87 3.14,1.83c0.09,0.12 0.16,0.23 0.24,0.35c2.15,-3.63 4.05,-5.91 7.36,-9.25c3.01,-2.95 6.03,-5.36 10.03,-7.02c-4.69,1.35 -9.85,4.49 -14.04,8.47" fill="#50444E" id="svg_439"/>
    <path d="m210.11,17.36c0.58,0.14 1.23,0.31 1.84,0.55c-0.01,-0.06 -0.02,-0.11 -0.04,-0.17c-0.16,-0.52 -0.31,-1.05 -0.47,-1.58c-0.53,-0.78 -1.06,-1.57 -1.54,-2.39c-0.22,-0.38 -0.44,-0.77 -0.65,-1.16c-0.76,-0.9 -1.54,-1.78 -2.35,-2.63c-1.42,-1.26 -2.9,-2.46 -4.43,-3.6c-0.46,-0.34 -0.92,-0.67 -1.37,-1c-0.83,-0.51 -1.66,-1.04 -2.45,-1.61c-1.4,-0.53 -2.82,-1.01 -4.23,-1.51c-0.68,-0.25 -1.36,-0.5 -2.03,-0.77c-0.42,-0.1 -0.83,-0.19 -1.25,-0.29c-0.57,-0.14 -1.13,-0.28 -1.7,-0.42c-0.07,-0.02 -0.15,-0.03 -0.22,-0.05c-1.06,-0.17 -2.11,-0.33 -3.17,-0.47c-0.39,-0.05 -0.78,-0.1 -1.17,-0.15c-3.93,0.4 -7.75,1.55 -10.6,3.44c2.59,-1.18 5.44,-1.77 8.32,-2c-2.6,0.56 -5.11,1.47 -7.44,2.76c4.48,-1.78 8.84,-2.18 13.22,-1.84c-3.34,0.36 -6.63,1.26 -9.61,2.58c3.24,-1.05 6.67,-1.46 10.07,-1.38c-1.87,0.37 -3.71,0.9 -5.48,1.55c3.99,-0.94 8.53,-1.21 12.14,-0.4c0.76,0.18 1.48,0.41 2.19,0.66c-0.45,-0.02 -0.9,-0.04 -1.35,-0.04c-2.95,-0.09 -5.93,0.19 -8.78,1.01c2.59,-0.45 6.1,-0.22 8.13,0.11c3.2,0.39 5.82,1.21 8.16,2.51c-4.28,-1.21 -8.96,-1.2 -13.32,-0.65c3.96,-0.04 7.79,0.45 11.25,1.64c-7.86,-1.23 -16.09,1.07 -22.8,5.2c7.2,-3.39 15.17,-4.59 22.11,-3c-5.12,-0.47 -10.28,0.31 -15.12,2.06c4.79,-1.19 10.11,-1.2 14.36,-0.35c3.55,0.57 6.57,1.64 9.12,3.24c0.22,0.05 0.44,0.09 0.66,0.15" fill="#50444E" id="svg_440"/>
    <path d="m157.16,37.08c0.01,-0.39 -0.49,-0.65 -0.79,-0.39c-0.31,0.28 -0.35,0.76 -0.42,1.15c-0.23,2.16 0.57,4.27 1.34,6.25c-0.45,-2.38 -0.62,-4.91 -0.13,-7.01" fill="#50444E" id="svg_441"/>
    <path d="m99.3,25.1c0.01,-0.03 0.01,-0.05 0.01,-0.08c2.66,-0.15 5.33,-0.3 8,-0.42c1.39,-0.09 2.78,-0.15 4.18,-0.2c0.02,-0.63 0.07,-1.27 0.17,-1.9c-4.12,0.23 -8.24,0.49 -12.37,0.72c-0.01,-0.62 -0.05,-1.23 -0.09,-1.84c-0.54,0.04 -1.07,0.07 -1.61,0.1c-0.43,0.03 -0.87,0.06 -1.3,0.07c0.35,3.63 0.74,7.25 1.1,10.88c0.05,-2.6 0.17,-5.19 0.23,-7.78c0.44,3.33 0.84,6.42 1.15,10.25c0.14,-3.09 0.45,-6.21 0.52,-9.32c0.06,0.79 0.11,1.58 0.14,2.37c0.02,0.58 0.04,1.18 0.04,1.77c2.65,0.1 5.3,0.16 7.96,0.16c1.31,-0.05 2.64,-0.04 3.98,-0.05c0.01,-0.35 0.02,-0.7 0.04,-1.05c0.03,-0.56 0.07,-1.12 0.11,-1.69c-0.05,-0.85 -0.09,-1.7 -0.07,-2.53c-4.06,0.23 -8.12,0.4 -12.19,0.54" fill="#50444E" id="svg_442"/>
    <path d="m94.6,21.47c-0.1,-0.01 -0.2,-0.03 -0.29,-0.05c0.31,0.02 0.28,0.02 -0.07,-0.03c-0.2,-0.02 -0.43,-0.06 -0.63,-0.13c0.36,3.13 0.75,6.25 1,9.39c0.07,-2.49 0.38,-5.03 0.55,-7.56c0.29,2.57 0.59,5.14 0.81,7.71c0.04,-3.07 0.23,-6.16 0.24,-9.24c-0.54,0.01 -1.08,0 -1.61,-0.09" fill="#50444E" id="svg_443"/>
    <path d="m93.04,29.02c-0.01,-0.13 -0.01,-0.26 -0.02,-0.39c-2.79,0.14 -5.58,0.27 -8.37,0.41c2.8,0.12 5.59,0.27 8.38,0.4c0,-0.14 0.01,-0.28 0.01,-0.42" fill="#50444E" id="svg_444"/>
    <path d="m93.02,28.39c-0.03,-0.91 -0.07,-1.83 -0.12,-2.74c-0.04,-0.71 -0.03,-1.42 -0.02,-2.12c-2.12,0.08 -4.25,0.16 -6.38,0.2c-11.01,0.3 -22.03,0.2 -33.01,1.2c8.66,0.19 17.31,0.59 25.97,0.64c-5.31,0.09 -10.62,0.18 -15.92,0.33c9.37,0.87 18.77,1.12 28.17,1.08c-5.58,0.31 -11.16,0.56 -16.74,0.66c6,0.5 12.03,0.73 18.05,0.75" fill="#50444E" id="svg_445"/>
    <path d="m93.04,32.34c0,-0.23 0,-0.47 0,-0.7c-5.83,0.35 -11.64,1.05 -17.48,1.21c5.81,0.23 11.62,0.39 17.42,0.46c0.03,-0.33 0.05,-0.66 0.06,-0.97" fill="#50444E" id="svg_446"/>
    <path d="m111.36,31.04c-3.97,0.11 -7.95,0.25 -11.92,0.37c-0.03,0.64 -0.09,1.28 -0.18,1.92c3.98,0 7.96,-0.03 11.93,-0.14c0.06,0 0.11,0 0.16,-0.01c-0.01,-0.03 -0.02,-0.07 -0.02,-0.11c0,-0.68 0.01,-1.35 0.03,-2.03" fill="#50444E" id="svg_447"/>
    <path d="m137.88,33.27c2.72,-0.14 5.43,-0.29 8.14,-0.47c-4.16,0.02 -8.27,-0.73 -12.42,-0.98c-0.44,-0.02 -0.87,-0.05 -1.31,-0.08c-0.06,1.02 -0.2,2.05 -0.31,3.02c0.72,-0.01 1.45,-0.01 2.16,-0.01c5.32,-0.01 10.65,-0.05 15.9,-0.93c-4.19,0.37 -8.17,-0.06 -12.16,-0.55" fill="#50444E" id="svg_448"/>
    <path d="m149.58,24.19c1.97,0.38 3.83,1.04 5.11,2.66c-1.28,-2.06 -3.63,-3.05 -5.88,-3.65c-3.07,-0.91 -6.26,-1.1 -9.44,-1.09c-2.42,-0.13 -4.83,-0.15 -7.25,-0.07c0.42,2.16 0.16,4.39 -0.01,6.59c0.1,0.43 0.16,0.88 0.19,1.33c3.1,-0.28 6.2,-0.53 9.31,-0.67c-3.07,-0.09 -6.15,-0.24 -9.23,-0.3c5.18,-0.61 10.36,-1.24 15.59,-1.28c-3.5,-0.34 -7.02,-0.56 -10.54,-0.64c3.96,-0.28 7.92,-0.64 11.89,-0.77c-3.74,-0.2 -7.48,-0.47 -11.22,-0.63c1.02,-0.08 2.04,-0.16 3.06,-0.24c4.02,-0.28 8.2,-0.62 12.03,0.83c-4.02,-1.94 -8.48,-2.23 -12.91,-2.34c3.16,-0.26 6.48,-0.29 9.3,0.27" fill="#50444E" id="svg_449"/>
    <path d="m40.13,24.66c-6.92,-0.29 -13.86,-0.6 -20.79,-0.41c-1.96,0.08 -3.92,0.2 -5.88,0.33c0.03,0.8 0.02,1.61 0,2.43c2.44,-0.2 4.89,-0.38 7.33,-0.45c5.56,-0.16 11.12,-0.05 16.68,-0.41c4.94,-0.14 9.87,-0.91 14.81,-0.84c-4.02,-0.57 -8.1,-0.36 -12.15,-0.65" fill="#50444E" id="svg_450"/>
    <path d="m22.6,26.73c-3.03,0.22 -6.09,0.4 -9.15,0.59c-0.02,0.68 -0.03,1.36 -0.03,2.04c2.64,-0.21 5.27,-0.41 7.91,-0.57c9.2,-0.58 18.41,-0.98 27.56,-2.07c-8.76,0.23 -17.53,-0.47 -26.29,0.01" fill="#50444E" id="svg_451"/>
    <path d="m24.52,33.59c9.12,-0.52 18.24,-1.2 27.35,-1.85c-10.91,-0.25 -21.82,-0.06 -32.73,0.19c3.16,-0.38 6.33,-0.75 9.45,-1.39c-2.85,0.25 -5.72,0.32 -8.58,0.4c6.78,-0.55 13.56,-1.22 20.32,-2.07c-8.97,0.18 -17.95,0.28 -26.91,0.68c0.01,0.62 0.03,1.24 0.08,1.85c0.15,1.59 0.19,3.07 -0.05,4.39c2.15,-0.06 4.3,-0.13 6.46,-0.2c17.25,-0.63 34.56,-0.78 51.73,-2.78c-15.7,0.51 -31.42,0.41 -47.12,0.78" fill="#50444E" id="svg_452"/>
    <path d="m111.92,22.06c0.17,2.62 0.46,5.24 0.75,7.82c0.12,-2.56 0.38,-5.1 0.62,-7.65c-0.5,0.05 -0.96,0.01 -1.37,-0.17" fill="#50444E" id="svg_453"/>
    <path d="m115.07,21.92c-0.47,0.08 -0.94,0.17 -1.41,0.26c0.22,3.13 0.44,6.26 0.44,9.39c0.39,-3.21 0.73,-6.43 0.98,-9.65c0,0 0,0 -0.01,0" fill="#50444E" id="svg_454"/>
    <path d="m118.86,21.53c0.36,5.23 0.96,10.4 0.95,11.06c0.1,-3.72 0.46,-7.45 0.69,-11.19c-0.55,0.04 -1.09,0.09 -1.64,0.13" fill="#50444E" id="svg_455"/>
    <path d="m117.54,21.63c-0.21,0.01 -0.41,0.04 -0.61,0.06c0.31,3.98 0.77,7.97 0.92,11.94c0.33,-4.02 0.64,-8.06 0.82,-12.09c-0.38,0.03 -0.76,0.05 -1.13,0.09" fill="#50444E" id="svg_456"/>
    <path d="m120.7,21.39c0.32,3.69 0.84,7.37 0.93,11.04c0.31,-3.7 0.52,-7.41 0.69,-11.11c-0.54,0.05 -1.1,0.05 -1.62,0.07" fill="#50444E" id="svg_457"/>
    <path d="m131.99,24.54c-0.06,-1 -0.17,-2.03 -0.44,-3c-0.49,-0.08 -0.9,-0.22 -1.33,-0.55c-0.46,-0.36 -0.75,-0.83 -0.88,-1.37c-0.06,0 -0.12,-0.01 -0.18,-0.01c-0.79,0.48 -1.72,0.34 -2.61,0.31c-0.02,0.06 -0.04,0.13 -0.08,0.19c-0.09,0.29 -0.25,0.53 -0.48,0.75c-0.29,0.28 -0.63,0.48 -1.02,0.59c-0.06,0.03 -0.14,0.03 -0.21,0.04c-0.04,0.02 -0.07,0.03 -0.1,0.04c-0.02,0 -0.04,0.01 -0.06,0.01c-0.09,0.02 -0.17,0.03 -0.26,0.04c0.48,3.05 1.01,6.21 1.29,9.76c0.05,-3.25 0.22,-6.52 0.22,-9.77c0.65,3.16 1.29,6.32 1.58,9.5c0.04,-3.56 0.16,-7.14 -0.09,-10.69c0.35,0.88 0.6,1.81 0.78,3.01c0.21,2.22 0.61,6.46 0.83,9.38c0.13,-2.71 0.18,-5.41 0.32,-8.12c0.64,3.49 0.68,7.23 0.72,11.06c0.49,-3.46 0.52,-6.97 0.6,-10.46c0.55,3.05 0.65,6.09 0.86,9.46c0.36,-3.37 0.7,-6.77 0.54,-10.17" fill="#50444E" id="svg_458"/>
    <path d="m123.71,21.64c-0.35,0 -0.69,-0.09 -1,-0.25c0,0.06 0.01,0.12 0.02,0.17c0.32,3.53 0.85,6.58 1.18,9.98c0.02,-3.32 0.33,-6.64 0.41,-9.96c-0.2,0.03 -0.4,0.06 -0.61,0.06" fill="#50444E" id="svg_459"/>
    <path d="m116.11,21.78c-0.07,0 -0.27,0.03 -0.34,0.04c-0.17,0.02 -0.33,0.05 -0.5,0.08c0.19,3.54 0.4,7.09 0.54,10.63c-0.01,-1.21 0.5,-5.86 0.91,-10.82c-0.2,0.02 -0.41,0.04 -0.61,0.07" fill="#50444E" id="svg_460"/>
    <path d="m7.32,21.48c-0.01,0.06 -0.01,0.13 -0.01,0.2c0,0.02 0,0.04 0,0.06c0,0.03 -0.01,0.05 -0.01,0.09c-0.24,3.82 -0.19,7.66 -0.06,11.5c0.29,-2.95 0.76,-5.88 1.27,-8.83c-0.02,3.8 0.03,7.62 0.47,11.4c0.03,-5.29 0.75,-10.08 1.42,-14.92c0.1,4.19 0.12,8.39 0.49,12.58c0,-3.2 0.37,-6.39 0.75,-9.57c0.22,3.99 0.44,7.99 0.86,11.96c0.01,-5.2 1.01,-10.4 1.17,-15.6c-2.17,0.05 -4.53,0.09 -6.35,1.13" fill="#50444E" id="svg_461"/>
    <path d="m5.16,23.88l-0.02,0l-0.05,0c-0.08,-0.01 -0.15,-0.03 -0.23,-0.04c-0.38,0.38 -0.78,0.74 -1.22,1.03c-0.12,0.07 -0.23,0.14 -0.35,0.2c-0.11,1.99 -0.02,3.99 0.21,5.97c0.07,-1.95 0.41,-3.84 0.84,-5.73c-0.13,2.43 -0.01,4.87 0.45,7.24c-0.08,-3.04 0.52,-5.87 1.19,-8.85c-0.25,0.13 -0.53,0.19 -0.82,0.18" fill="#50444E" id="svg_462"/>
    <path d="m2.02,25.63c-0.01,1.52 0.09,3.05 0.27,4.56c0.1,-1.66 0.4,-3.31 0.75,-4.98c-0.33,0.17 -0.67,0.31 -1.02,0.42" fill="#50444E" id="svg_463"/>
    <path d="m144.2,19.21c4.62,-0.14 10.71,1.29 13.58,5.33c-0.5,-1.21 -1.54,-2.12 -2.48,-2.98c-2.02,-1.73 -4.45,-2.93 -7.03,-3.57c3.45,0.49 6.78,1.68 9.41,4.33c-2.62,-3.52 -7.02,-5.27 -11.22,-6.08c-0.46,-0.09 -0.92,-0.16 -1.39,-0.21c1.49,0.01 2.89,0.14 4.17,0.4c1.25,0.29 2.5,0.56 3.44,1.43c-0.62,-0.86 -1.65,-1.35 -2.57,-1.83c-1.8,-0.82 -3.75,-1.38 -5.74,-1.45c0.04,0 0.07,0 0.1,-0.01c2.61,-0.08 5.01,0.25 7.45,1.9c-1.61,-1.66 -3.89,-2.9 -6.22,-3.11c0.52,0 1.05,0.02 1.57,0.07c0.95,0.11 2.92,0.49 3.99,1.32c-1.37,-1.39 -3.3,-2.21 -5.24,-2.42c1.83,-0.09 3.53,0.14 5.15,1.16c-1.11,-1.17 -2.68,-1.78 -4.24,-2.06c-0.63,-0.07 -1.37,-0.21 -1.96,0.07c-0.28,0.2 -0.22,0.58 0.01,0.76c-0.43,0 -0.85,0.05 -1.02,0.45c-0.09,0.32 0.16,0.62 0.47,0.66c-0.47,0.06 -0.98,0.24 -0.86,0.81c0.08,0.27 0.28,0.37 0.51,0.4c-0.2,0 -0.4,0 -0.59,0.01c-1.17,0.02 -1.26,1.11 -0.48,1.4c-0.23,0.03 -0.45,0.08 -0.62,0.25c-0.31,0.3 -0.28,0.81 0.01,1.11c-0.1,0.09 -0.2,0.18 -0.31,0.29c-0.24,0.06 -0.49,0.13 -0.73,0.22c-0.28,0.19 -0.35,0.54 -0.27,0.85c-0.02,0.01 -0.04,0.03 -0.06,0.05c-0.29,0.25 -0.59,0.49 -0.89,0.71c-0.02,0.02 -0.04,0.04 -0.05,0.06c-0.11,0.03 -0.22,0.04 -0.32,0.07c-0.66,0.13 -0.95,1.03 -0.37,1.44c0.63,0.38 1.46,0.19 2.17,0.18c5.52,-0.13 12.82,0.17 15.57,5.65c-1.69,-5.04 -7.57,-7.47 -12.94,-7.66" fill="#50444E" id="svg_464"/>
    <path d="m148.52,10.83c-0.47,-0.14 -3.1,-0.65 -2.24,0.45c0.73,0.12 1.76,0 2.28,0.14c0.95,0.19 1.78,0.48 2.56,1.04c-0.68,-0.78 -1.62,-1.32 -2.6,-1.63" fill="#50444E" id="svg_465"/>
    <path d="m155.78,34c-3.18,2.9 -7.19,4.11 -10.99,3.75c0.21,-0.02 0.41,-0.02 0.61,-0.04c4.85,-0.46 8.74,-2.2 11.39,-6.43c-2.62,3.05 -5.79,4.22 -9.21,4.46c-2.15,0.2 -4.31,0.13 -6.46,0.02c-0.87,0.01 -0.78,-0.14 -1.57,-0.07c-0.47,0.13 -0.78,0.69 -0.55,1.15c0.09,0.27 0.34,0.44 0.6,0.52c0.07,0.02 0.23,0.04 0.35,0.06c0.22,0.05 0.45,0.08 0.67,0.12c-0.13,0.29 -0.13,0.65 0.1,0.9c0.13,0.21 0.37,0.3 0.59,0.39c0.18,0.04 0.36,0.07 0.54,0.11c-0.26,0.26 -0.33,0.68 0.01,1.07c0.25,0.12 0.5,0.22 0.76,0.32c-0.05,0.06 -0.09,0.13 -0.13,0.22c-0.15,0.47 0.07,0.77 0.46,0.95c-0.11,0.15 -0.15,0.35 -0.06,0.53c0.23,0.38 0.64,0.56 1.07,0.67c-0.04,0.07 -0.08,0.16 -0.1,0.28c0,0.27 0.19,0.43 0.41,0.52c-0.3,0.42 -0.04,0.69 0.37,0.89c-0.02,0.06 -0.02,0.14 0,0.2c0.34,0.59 1.17,0.82 1.79,1c1.56,0.31 3.25,0.12 4.69,-0.55c-1.47,0.28 -2.79,0.16 -4.12,-0.16c-0.02,-0.01 -0.03,-0.01 -0.05,-0.02c1.47,0.04 3.04,-0.32 4.07,-1.32c-1,0.62 -1.82,0.62 -2.91,0.65c-0.81,0 -1.42,-0.08 -2.19,-0.34c1.99,0.13 4.15,-0.36 5.54,-1.86c-1.57,1.11 -3.69,1.2 -5.26,0.96c2.14,-0.02 4.33,-0.79 5.71,-2.43c-1.84,1.35 -3.9,1.63 -5.94,1.35c2.69,0.07 5.38,-1.11 7.11,-3.17c-1.87,1.5 -4,2.11 -6.21,2.01c3.46,-0.49 6.93,-2.69 8.92,-5.22c-2.68,2.41 -6.01,3.71 -9.25,3.75c3.61,-0.43 7.01,-2.37 9.24,-5.24" fill="#50444E" id="svg_466"/>
    <path d="m44.83,56.94c-0.01,0.01 -0.01,-0.02 -0.02,-0.03" fill="#50444E" id="svg_467"/>
    <path d="m62.59,56.18c-0.03,0.01 -0.05,0.01 -0.07,0.02c-0.32,0.04 -0.62,0.05 -0.94,0.04c-0.24,0.23 -0.52,0.42 -0.84,0.42c-0.38,-0.01 -0.7,-0.46 -0.46,-0.8c0.04,-0.06 0.08,-0.13 0.14,-0.18c0.01,-0.01 0.01,-0.01 0.02,-0.02c0,-0.21 0.09,-0.42 0.27,-0.53c0.22,-0.14 0.43,-0.29 0.64,-0.44c0.03,-0.02 0.03,-0.02 -0.01,0.01c0.05,-0.04 0.1,-0.08 0.16,-0.12c0.01,-0.02 0.02,-0.02 0.03,-0.03c0.01,-0.01 0.03,-0.02 0.04,-0.03c0.05,-0.04 0.09,-0.07 0.14,-0.11c0.25,-0.3 0.52,-0.6 0.79,-0.89c-0.21,-5.83 -0.53,-11.65 -1.13,-17.46c-0.04,4.94 -0.46,9.87 -0.77,14.8c-0.24,-3.31 -0.45,-6.62 -0.52,-9.93c-0.35,5.16 -0.72,10.34 -0.84,15.52c-0.27,-4.12 -0.56,-8.25 -0.67,-12.37c-0.34,4.41 -0.71,8.82 -0.94,13.24c-0.09,-2.71 -0.12,-5.42 0,-8.13c-0.58,3.32 -0.97,6.67 -1.28,10.03c-0.11,-2.64 -0.2,-5.29 -0.19,-7.94c-0.34,2.91 -0.67,5.83 -0.93,8.76c-0.14,-2.36 -0.23,-4.71 -0.21,-7.07c-0.33,3.08 -0.63,6.18 -0.83,9.28c-0.24,-2.51 -0.45,-5.03 -0.54,-7.55c-0.25,3.09 -0.48,6.2 -0.6,9.31c0.29,-0.02 0.58,-0.03 0.86,-0.05c2.49,-0.14 4.97,-0.3 7.45,-0.46c0.57,-0.04 1.07,0.17 1.47,0.5c-0.02,-0.78 -0.05,-1.57 -0.09,-2.35c-0.04,-1.82 -0.1,-3.64 -0.15,-5.47" fill="#50444E" id="svg_468"/>
    <path d="m52.86,64.02c-0.28,-2.87 -0.53,-5.75 -0.65,-8.63c-0.17,2.36 -0.36,4.72 -0.48,7.08c-0.26,-2.1 -0.47,-4.2 -0.52,-6.32c-0.3,2.64 -0.44,5.31 -0.47,7.98c0.71,-0.03 1.41,-0.07 2.12,-0.11" fill="#50444E" id="svg_469"/>
    <path d="m45.4,64.99c-0.66,-2.8 -1.39,-5.58 -1.99,-8.37c0.26,2.9 0.46,5.82 0.69,8.74c0.31,-0.02 0.62,-0.03 0.93,-0.04c0.11,-0.12 0.24,-0.24 0.37,-0.33" fill="#50444E" id="svg_470"/>
    <path d="m44.04,65.36c-0.75,-3.25 -1.59,-6.48 -2.42,-9.71c0.37,3.26 0.69,6.51 1,9.77c0.48,-0.02 0.95,-0.04 1.42,-0.06" fill="#50444E" id="svg_471"/>
    <path d="m46.11,64.6c0.1,-0.03 0.19,-0.06 0.29,-0.08c-0.61,-3.02 -1.15,-5.45 -1.2,-5.92c0.16,2.1 0.22,4.21 0.29,6.32c0.19,-0.13 0.4,-0.24 0.62,-0.32" fill="#50444E" id="svg_472"/>
    <path d="m38.08,53.47c0.14,1.93 0.29,3.86 0.44,5.8c-0.63,-2.93 -1.24,-5.86 -1.69,-8.81c0.2,3.15 0.32,6.31 0.51,9.47c-0.95,-6.22 -1.82,-12.28 -2.6,-18.82c0.18,4.89 0,9.8 0.15,14.69c-0.75,-4.9 -1.35,-10.29 -2.1,-15.6c0.18,4.17 0.14,8.35 0.24,12.53c-0.18,-1.53 -0.38,-3.11 -0.61,-4.89c-0.42,-3.21 -0.97,-6.55 -1.08,-10.11c-0.21,5.69 -0.4,11.57 -0.04,17.32c0.01,0.01 0.02,0.02 0.03,0.03c0.05,0.04 0.11,0.09 0.16,0.13c0.04,0.03 0.09,0.06 0.13,0.09c0.01,0.01 0.03,0.02 0.04,0.03c0.08,0.05 0.15,0.11 0.2,0.18c0.03,0.03 0.04,0.06 0.06,0.08c0.06,0.05 0.1,0.11 0.14,0.17c0.04,-0.01 0.08,-0.02 0.12,-0.01c0.13,0.01 0.26,0.03 0.38,0.08l0.02,0.01c0.05,0 0.11,0.01 0.16,0.03c0.08,0.03 0.14,0.07 0.2,0.13c0.01,0.01 0.02,0.02 0.03,0.03c0.07,0.05 0.15,0.09 0.23,0.13c0.09,0.06 0.16,0.13 0.22,0.22c0.01,0.02 0,0.04 0.01,0.06c0.02,0.03 0.04,0.06 0.06,0.09c0.06,0.09 0.08,0.21 0.08,0.32c0,0.05 0,0.11 -0.02,0.16c-0.02,0.05 -0.04,0.1 -0.06,0.15c-0.07,0.13 -0.22,0.23 -0.36,0.27c-0.12,0.04 -0.15,0.02 -0.25,0.01c-0.08,0 -0.16,-0.03 -0.23,-0.07c-0.05,-0.03 -0.09,-0.07 -0.13,-0.1c-0.01,-0.01 -0.02,-0.01 -0.02,-0.02c-0.02,-0.01 -0.03,-0.03 -0.04,-0.04c-0.08,0.01 -0.17,0.01 -0.25,0c-0.06,-0.01 -0.12,-0.02 -0.18,-0.03c-0.01,0 -0.12,-0.01 -0.13,-0.02c-0.13,-0.01 -0.27,-0.02 -0.4,-0.02c-0.27,-0.01 -0.54,0 -0.81,0.02c-0.02,0 -0.11,0.02 -0.13,0.02c-0.02,0 -0.04,0 -0.07,0.01c-0.03,1.03 0.04,2.07 0.2,3.1c-0.09,1.68 -0.17,3.37 -0.08,5.05c0.33,-0.09 0.72,-0.13 1.15,-0.05c0.35,0.05 0.69,0.13 1.03,0.2c0.01,0 0.02,0 0.03,0.01c-0.09,-0.5 -0.17,-1 -0.26,-1.49c-0.05,-0.34 -0.09,-0.67 -0.14,-1c0.12,0.46 0.24,0.93 0.37,1.39c0.07,0.27 0.29,0.47 0.55,0.55c0.38,0.07 0.62,-0.03 0.77,-0.21c0.07,0.31 0.14,0.62 0.22,0.92c0.47,-0.01 0.95,-0.02 1.42,-0.02c1.31,-0.02 2.63,-0.05 3.94,-0.1c0.36,-0.01 0.72,-0.03 1.08,-0.04c-0.85,-4.02 -1.81,-8.02 -2.69,-12.03" fill="#50444E" id="svg_473"/>
    <path d="m42.53,65.42c-0.87,-3.61 -1.83,-7.21 -2.51,-10.74c0.35,3.59 0.59,7.21 0.93,10.81c0.53,-0.02 1.06,-0.05 1.58,-0.07" fill="#50444E" id="svg_474"/>
    <path d="m51.46,49.92l-0.01,0c0.25,-0.02 0.5,-0.04 0.75,-0.09c-0.62,0 -1.26,-0.04 -1.9,-0.09c-0.84,-0.21 -1.7,-0.55 -2.19,-0.75c-2.34,-1.01 -3.91,-2.23 -5.4,-4.07c-0.24,-0.31 -0.73,-1.07 -0.99,-1.57c0.01,0.04 0.03,0.08 0.04,0.13c-0.15,-0.27 -0.3,-0.54 -0.45,-0.81c0.29,0.98 0.78,2.08 1.4,3.05c-0.26,0.23 -0.16,0.79 0.29,0.78c0.09,0 0.16,-0.02 0.22,-0.05c0.44,0.58 0.92,1.08 1.42,1.41c-0.09,-0.1 -0.17,-0.22 -0.25,-0.32c1.87,1.66 4.4,2.59 6.92,2.39c0.04,-0.01 0.09,-0.01 0.13,-0.01c0,0 0.01,0 0.02,0" fill="#50444E" id="svg_475"/>
    <path d="m50.29,50.11c0.05,0.01 0.12,0.01 0.16,0c-0.05,0 -0.11,0 -0.16,0" fill="#50444E" id="svg_476"/>
    <path d="m48.81,48.45c-2.64,-1.06 -4.96,-2.56 -6.66,-5.01c1.4,3.27 4.6,5.31 8.1,5.58c0.16,0.02 0.41,0.04 0.5,0.04c-0.67,-0.14 -1.31,-0.37 -1.94,-0.61" fill="#50444E" id="svg_477"/>
    <path d="m44.07,44.75c1.27,1.95 3.83,3.21 5.81,3.42c-2.08,-0.79 -4.24,-1.84 -5.81,-3.42" fill="#50444E" id="svg_478"/>
    <path d="m46.47,45.19c0.9,0.9 2.17,1.39 3.36,1.69c-1.12,-0.55 -2.33,-0.97 -3.36,-1.69" fill="#50444E" id="svg_479"/>
    <path d="m45.67,36.25c4.33,0.74 8.79,0.57 13.12,0.25c-4.36,-0.59 -8.74,-0.3 -13.12,-0.25" fill="#50444E" id="svg_480"/>
    <path d="m49.16,37.29c2.44,0.44 4.96,0.3 7.39,0.03c-2.46,-0.18 -4.93,-0.04 -7.39,-0.03" fill="#50444E" id="svg_481"/>
    <path d="m50.19,38.36c1.4,0.09 2.87,0.14 4.24,0.04c-1.41,-0.15 -2.83,-0.2 -4.24,-0.04" fill="#50444E" id="svg_482"/>
    <path d="m31.58,36.71c3.71,0.42 7.6,0.41 11.25,-0.01c-3.75,-0.43 -7.49,-0.21 -11.25,0.01" fill="#50444E" id="svg_483"/>
    <path d="m34.01,37.55c-0.02,0 -0.03,0 -0.05,0" fill="#50444E" id="svg_484"/>
    <path d="m40.95,37.08c-0.02,0 -0.03,0 -0.05,0" fill="#50444E" id="svg_485"/>
    <path d="m31.76,36.8c0.01,0 0.06,0.01 0.05,0.01c-0.02,-0.01 -0.03,-0.01 -0.05,-0.01" fill="#50444E" id="svg_486"/>
    <path d="m33.45,37.72c0.01,0 -0.02,0 -0.02,0" fill="#50444E" id="svg_487"/>
    <path d="m33.81,37.47c2.07,0.28 4.29,0.33 6.3,0.03c-2.1,-0.12 -4.2,-0.1 -6.3,-0.03" fill="#50444E" id="svg_488"/>
    <path d="m34.77,38.14c1.48,0.2 3.01,0.21 4.47,0.01c-1.49,-0.09 -2.98,-0.08 -4.47,-0.01" fill="#50444E" id="svg_489"/>
    <path d="m35.98,38.79c0.52,0.05 1.08,0.04 1.57,-0.01c-0.52,-0.04 -1.05,-0.04 -1.57,0.01" fill="#50444E" id="svg_490"/>
   </g>
  </g>
 </g>
</svg>