<?xml version="1.0"?>
<svg width="2187" height="2182" xmlns="http://www.w3.org/2000/svg" xmlns:svg="http://www.w3.org/2000/svg" enable-background="new 0 0 5000 4995.2222" version="1.1">
 <g class="layer">
  <title>Layer 1</title>
  <path d="m2046.38,1789.39c40.62,24.65 79.22,15.75 106.43,-24.55c3.88,-5.74 8.36,-8.31 14.5,-8.31c5.2,0 9.67,-2.03 10.78,-4.91c2.19,-5.72 -2.41,-15.56 -9.01,-19.25c-3.82,-2.14 -4.06,-5.74 -1.45,-21.22c4.64,-27.44 0.81,-61.63 -9.77,-87.15c-4.94,-11.92 -8.23,-22.42 -7.31,-23.34c2.36,-2.36 7.48,6.45 7.53,12.99c0.03,3 1.65,5.46 3.61,5.46c5.68,0 0.74,-32.01 -5.66,-36.7c-7.85,-5.74 -13.52,-4.76 -13.52,2.35c0,8.41 -2.8,7.77 -15.13,-3.44c-11.63,-10.58 -11.01,-15.13 1.3,-9.52c11.24,5.12 13.49,2.58 13.36,-15.04c-0.07,-8.45 0.59,-16.51 1.46,-17.92c3.45,-5.58 -6.96,-22.61 -15.07,-24.64c-10.39,-2.61 -22.23,2.64 -24.89,11.03c-2.63,8.27 -5.21,8.1 -13.66,-0.89c-7.32,-7.79 -10.37,-16.58 -11,-31.72c-0.35,-8.36 0.62,-9.4 8.98,-9.63c15.93,-0.43 17.18,-1.07 17.18,-8.82c0,-4.98 -4.27,-11.04 -12.64,-17.95c-10.44,-8.64 -12.29,-11.8 -10.68,-18.25c2.29,-9.23 10.22,-18.74 15.61,-18.74c2.1,0 5.57,2.11 7.71,4.68c2.14,2.58 7.85,4.69 12.7,4.69c17.57,0 24.73,-25.64 11.76,-42.12l-6.77,-8.61l6.92,2.2c9.47,3.01 16.43,-3.3 14.05,-12.76c-1.13,-4.49 0.14,-10.55 3.19,-15.19c8.29,-12.66 13.02,-51.63 8.59,-70.83c-3.73,-16.14 -23.09,-49.45 -28.75,-49.45c-6.23,0 -2.51,-5.07 7.81,-10.63c24.48,-13.18 30.93,-60.44 10.74,-78.71c-4.14,-3.74 -11.22,-5.8 -20.17,-5.85c-7.79,-0.04 -13.34,-1.43 -12.75,-3.2c0.58,-1.71 5.15,-3.12 10.14,-3.12c10.55,0 9.09,-0.12 11.02,-34.19c7.01,15.65 10.52,26.38 18.39,26.38c5.79,0 6.47,-1.56 5.62,-12.95c-1,-13.49 -3.96,-16.56 -19.03,-19.74c-5.38,-1.14 -9.81,-4.78 -11.63,-9.56c-1.62,-4.24 -4.38,-7.72 -6.14,-7.72c-4.06,0 -4.03,1.99 0.19,9.86c2.46,4.61 2.38,8.74 -0.31,15.23c-3.03,7.33 -2.8,10.17 1.3,16.03c7.67,10.94 6.09,12.37 -7.61,6.88c-11.85,-4.74 -12.98,-4.7 -18.89,0.65c-8.94,8.08 -7.04,21.91 2.87,20.83c8.09,-0.87 7.98,4.6 -0.19,9.76c-8.52,5.37 -14.93,-3.06 -14.81,-19.5c0.12,-18.05 5.41,-25.38 18.3,-25.38c13.57,0 15.75,-7.54 5.33,-18.42c-4.87,-5.08 -7.55,-10.65 -6.48,-13.45c2.91,-7.57 16.29,-12.06 29.61,-9.93c11.11,1.78 12.34,1.26 14.14,-5.9c2.66,-10.62 -6.03,-26.67 -15.77,-29.11c-9.71,-2.44 -9.72,-4.68 -0.06,-13.08c4.23,-3.68 11.51,-14.13 16.18,-23.21c7.29,-14.2 8.47,-20.23 8.4,-43.06c-0.09,-30.59 -2.87,-47.24 -4.96,-62.77c-8.69,0.74 -42.74,3.42 -51.38,5.19c-6,1.23 -18.79,-7.77 -19.99,-14.06c-6.16,-32.26 16,-23.45 7.36,-37.49c-5.34,-8.68 -4.97,-11.49 2.93,-22.17c5.13,-6.95 9.35,-9.25 16.99,-9.25c5.59,0 11.03,1.41 12.09,3.13c1.06,1.72 5.75,3.12 10.42,3.12c28.14,0 36.31,-41.64 15.98,-81.48c-3.64,-7.14 -5.58,-15.18 -4.49,-18.61c1.45,-4.58 -0.21,-6.96 -6.87,-9.83c-4.84,-2.08 -9.26,-4.08 -9.83,-4.44s0.54,-3.59 2.45,-7.18c4.94,-9.22 15.17,-8.39 17.64,1.43c2.32,9.24 8.61,8.63 10.03,-0.96c1.7,-11.57 -21.07,-24.5 -35.54,-2.42c-4.31,6.58 -4.52,8.81 -1.18,12.83c3.55,4.27 2.93,4.6 -5.1,2.7c-5.02,-1.19 -10.23,-3.15 -11.57,-4.36c-4.41,-3.95 1.19,-12.1 10.54,-15.36c10.41,-3.63 14.51,-11 9.49,-17.05c-2.6,-3.13 -1.21,-5.73 5.87,-10.96c26.75,-19.78 32.71,-77.39 9.26,-89.52c-5.06,-2.62 -10.07,-8.19 -11.12,-12.38s-3.87,-9.25 -6.26,-11.23c-4.45,-3.69 -3.25,-9.14 2.02,-9.14c1.62,0 2.94,2.85 2.94,6.34c0,6.62 10.94,12.76 17.96,10.09c6.37,-2.43 4.46,-6.81 -3.91,-8.91c-8.84,-2.21 -10.11,-9.53 -3.22,-18.64c5.22,-6.91 6.36,-28.14 1.66,-31.05c-4.94,-3.05 -3.68,-6.08 3.9,-9.41c5.37,-2.35 7.03,-5.67 7.03,-14.01c0,-9.2 -0.98,-10.76 -6.24,-9.87c-7.85,1.34 -17.18,9.5 -17.18,15.04c0,2.58 -3.61,4.2 -9.37,4.2c-5.15,0 -9.37,1.4 -9.37,3.12c0,1.72 3.46,3.12 7.68,3.12c9.35,0 20.43,11.15 20.43,20.55c0,8.62 -12.23,24.62 -12.39,16.21c-0.07,-3.32 -3.42,-6.13 -8.69,-7.29c-15.01,-3.29 -15.77,-3.87 -17.96,-13.85c-3.34,-15.2 5.23,-12.97 9.06,-29.08c1.64,-6.91 0.57,-10.01 -5.02,-14.54c-7,-5.67 -7.02,-5.85 -1.19,-12.3c7,-7.73 12.12,-8.28 17.45,-1.86c2.14,2.58 7.07,4.69 10.97,4.69c25.54,0 33.9,-52.39 13.66,-85.67c-3.85,-6.32 -4.65,-10.44 -2.54,-12.99c2.09,-2.52 1.46,-8.16 -1.95,-17.34c-9.73,-26.29 -9.7,-26.47 4.61,-25.1c14.19,1.35 16.25,-2.4 7.87,-14.37c-8.82,-12.59 -14.67,-5.11 -26.14,5.58l-3.4,-6.35c-1.87,-3.49 -4.67,-5.56 -6.22,-4.6c-1.56,0.96 0.62,8.24 4.84,16.17c8.53,16.05 9.48,22.92 3.92,28.48c-6.39,6.4 -8.21,4.2 -6.58,-7.98c1.24,-9.22 0.18,-12.99 -4.98,-17.66c-7.85,-7.1 -8.15,-11.56 -1.61,-24.2c4.27,-8.27 6.18,-9.3 14.18,-7.7c13.23,2.64 21.48,-3.55 21.48,-16.12c0,-11.87 -4.42,-12.87 -17.85,-20.57l6.55,-11.08c9.79,-16.6 8.44,-47.91 -2.57,-59.4c-4.4,-4.59 -7.99,-11.98 -7.99,-16.42s-2.11,-8.9 -4.69,-9.89c-7.73,-2.96 -5.69,-16.14 3.12,-20.16c9.75,-4.44 10.66,-17.56 1.57,-22.43c-7.42,-3.97 -8.05,-10.24 -1.57,-15.62c6.97,-5.78 5.69,-17.07 -3.11,-27.53l-7.8,-9.27l7.8,-1.96c9.12,-2.29 10.42,-11.11 1.96,-13.32c-4.48,-1.17 -5.77,-4.27 -5.53,-13.36c0.22,-8.39 -2.9,-16.93 -3.86,-16.85c-3.14,-3.79 -5.62,-4.25 -10.09,-1.86c-7.22,3.87 -7.74,16.29 -0.91,21.96c6.55,5.43 4.02,26.34 -4.1,33.91c-8.89,8.28 -6.12,30.76 4.11,33.33c10.57,2.65 9.29,7.45 -1.99,7.45c-10.61,0 -11.26,1.14 -13.77,24.25c-1.22,11.2 -0.29,20.04 2.94,27.76c3.43,8.21 3.8,12.43 1.36,15.38c-1.86,2.23 -2.92,8.01 -2.37,12.84c0.85,7.36 2.64,8.93 11.16,9.76c6.35,0.61 10.15,2.67 10.15,5.52c0,8.36 -14.09,-3.02 -19.03,4.79c-3.73,5.88 -3.57,24.62 0.21,24.62c1.72,0 2.23,4.09 1.17,9.37c-1.1,5.51 -0.29,11.26 1.97,13.99c3.14,3.77 2.37,6.38 -4.17,14.16c-14.14,16.8 -19.25,51.15 -9.65,64.85c4.4,6.29 4.4,7.6 0,13.89c-6.12,8.74 -6.29,25.46 -0.3,30.43c2.82,2.34 8.25,2.97 14.26,1.65c10.96,-2.41 21.78,4.74 21.78,14.37c0,3.07 1.41,6.45 3.13,7.51c1.71,1.06 3.12,5.29 3.12,9.39c0,7.09 -0.5,7.28 -10.15,3.77c-8.99,-3.26 -9.35,-3.8 -3.12,-4.73c8.74,-1.32 8.79,-3.04 0.3,-10.41c-8.12,-7.04 -7.32,-7 -16.81,-0.79c-9.54,6.25 -10.01,13.7 -0.86,13.7c6.69,0 6.71,0.1 0.78,4.58c-8.42,6.38 -9.79,5.96 -11.6,-3.5c-2.04,-10.66 9.55,-22.91 21.8,-23.04c7.53,-0.08 7.97,-0.54 3.16,-3.33c-3.87,-2.26 -8.74,-2.19 -16.07,0.23c-12.38,4.08 -19,16.9 -15.94,30.85c1.18,5.37 0.04,16.09 -2.68,25.27c-11.89,40.02 -8.96,78.69 7.37,97.4c8.14,9.32 8.47,10.57 3.73,14.18c-8.1,6.16 -9.88,4.97 -9.88,-6.6c0,-5.91 -1.62,-11.75 -3.61,-12.98c-2.65,-1.63 -3.12,2.49 -1.79,15.44c1,9.71 0.73,17.66 -0.6,17.66c-1.33,0 -4.91,5.51 -7.95,12.25c-7.95,17.64 -5.77,53.25 3.89,63.54c3.82,4.05 6.94,10.51 6.94,14.34c0,3.84 3.5,10.48 7.79,14.77c7.43,7.42 7.56,8.16 2.73,15.53c-3.43,5.22 -4.49,11.32 -3.29,18.75c1.54,9.51 0.79,11.4 -5.53,13.8c-10.77,4.1 -17.33,15.39 -17.22,29.64c0.12,15.16 5.78,23.53 15.86,23.46c10.1,-0.06 14.27,-3.16 18.2,-13.48c2.91,-7.66 4.7,-8.59 14.82,-7.74c9.76,0.82 11.88,2.37 13.95,10.15c1.34,5.05 4.59,10.39 7.23,11.87c2.64,1.48 4.8,5.42 4.8,8.77c0,7.36 -1.2,7.5 -10.78,1.22c-9.13,-5.98 -26.39,-3.47 -35.67,5.17c-8.33,7.76 -8.73,7.65 -14.64,-3.78c-3.55,-6.87 -6.01,-8.75 -8.35,-6.4c-3.45,3.45 4.46,19.25 9.64,19.25c1.38,0 -1.81,8.73 -7.1,19.4c-12.86,25.92 -15.03,63.07 -5.37,91.75c3.53,10.48 5.54,22.17 4.49,26.16c-1.83,7 -1.44,7.15 13.43,5.11c25.22,-3.47 32.49,-5.34 32.49,-8.37c0,-3.57 12.61,-3.69 18.15,-0.18c2.71,1.72 3.76,7.78 3.12,17.91c-0.92,14.43 -1.6,15.52 -11.9,18.88c-10.57,3.44 -10.94,4.08 -11,19.31c-0.09,21.17 -9.34,30.07 -28.32,27.22c-9.51,-1.43 -13.84,-0.68 -16.81,2.89c-6.54,7.89 -4.78,20.98 3.78,28.05c11.04,9.11 13.39,21.87 5.97,32.34c-9.01,12.71 -13.82,35.58 -20.97,46.58c-6.12,9.43 -5.63,17.41 1.32,21.75c3.19,2 6.7,8.08 7.78,13.51c2.54,12.69 27.21,35.35 38.58,46.83c6.2,-5.94 17.41,-15.81 21.94,-25.85c2.11,-4.68 5.98,-8.5 8.59,-8.5c6.27,0 6,1.96 -1.71,12.79c-5.01,7.04 -5.44,9.07 -1.92,9.07c2.49,0 5.49,-3.16 6.67,-7.03c1.35,-4.45 2.74,-5.55 3.78,-3c2.94,7.17 -6.72,17.58 -16.42,17.72c-6.34,0.08 -10,2.23 -12.15,7.15c-2.67,6.08 -5.43,7.02 -20.62,7.02c-25.59,0 -38.44,9.22 -39.7,28.49c-1.01,15.42 1.83,19.63 15.56,23.08c6.62,1.66 9.81,0.41 15.38,-6c8.77,-10.08 18.35,-10.31 27.42,-0.66l6.97,7.42c-3.03,4.98 -12.85,20.04 -12.85,25.47c-0.01,5.5 18.28,22.14 24.34,22.14c6.68,0 0.8,9.41 0.68,17.96c-0.03,2.45 -4.58,3.91 -12.18,3.91c-10.67,0 -12.74,1.25 -17.05,10.33c-2.69,5.69 -4.15,13.19 -3.24,16.67c1.46,5.58 0.47,6.16 -8.29,4.88c-8.61,-1.26 -9.69,-0.67 -8.07,4.42c1.11,3.49 -0.98,10.24 -5.13,16.6c-15.25,23.38 -17.92,28.91 -24.47,50.45c-5.36,17.67 -6.43,27.09 -5.07,45.01c2.17,28.68 17.7,64.04 34.65,78.89c8.95,7.84 10.54,10.61 6.88,12.01c-2.62,1.01 -7.01,-0.41 -9.75,-3.16c-2.74,-2.74 -6.29,-4.99 -7.89,-4.99c-1.59,0 -2.9,-2.81 -2.9,-6.24s-1.41,-6.25 -3.12,-6.25c-3.62,0 -4.1,9.35 -0.74,14.32c1.27,1.87 5.11,5.14 8.54,7.27c6.15,3.8 2.56,3.22 -8.96,-1.47c-6.2,-2.52 -15.35,7.66 -12.46,13.86c1.3,2.78 2.01,14.42 1.56,25.86c-0.77,20.14 -0.45,21.15 10.42,32.01c6.17,6.17 13.1,11.22 15.41,11.22c7.53,0 11.68,-8.4 9.61,-19.44c-1.48,-7.85 -0.46,-12.42 4.01,-17.93c10.12,-12.5 35.07,-8.2 35.07,6.03c0,2.96 2.67,7.8 5.93,10.74c5.95,5.39 12.81,26.67 12.81,39.74c0,10.34 -11.9,21.46 -22.99,21.46c-20,0 -29.99,24.98 -19.59,24.98c7.61,0 20.72,12.72 20.72,20.11c0,11.8 -11.49,23.62 -22.96,23.62c-10.38,0 -23.89,-7.32 -23.89,-12.95c0,-1.78 2.69,-5.56 5.98,-8.41c9.46,-8.21 10.55,-17.24 3.22,-26.56c-9.52,-12.1 -25.56,-11.5 -37.62,1.4c-17.25,18.47 -9.77,59.02 13.49,73.13zm103.41,-689.77c1.15,1.15 2.09,4.83 2.09,8.19c0,5.08 -0.79,5.45 -4.69,2.22c-8.63,-7.16 -3.78,-16.79 2.6,-10.41zm-19.77,-621.47l-0.01,0c0,-5.83 5.1,-9.64 7.56,-5.66c0.96,1.56 -0.35,4.56 -2.9,6.68c-3.78,3.14 -4.65,2.95 -4.65,-1.02zm3.12,-180.15c4.13,0 4.13,6.25 0,6.25c-4.13,0 -4.13,-6.25 0,-6.25zm-6.25,49.31c0,3.69 -0.88,3.81 -4.68,0.66c-12.75,-10.58 4.68,-13.88 4.68,-0.66zm-27.56,-263.08c-7.53,-2.39 -9.26,-13.63 -3.04,-19.84c5.32,-5.33 7.38,-4.74 12.9,3.69c6.43,9.82 0.55,19.46 -9.86,16.15zm-12.11,43.27c1,-9.65 2.25,-17.94 2.78,-18.42c2.77,-2.46 20.32,-4.64 22.21,-2.75c5.31,5.31 1.88,10.73 -6.23,9.86c-7.65,-0.81 -8.68,0.35 -11.17,12.64c-3.31,16.35 -1.43,22.38 7,22.38c3.49,0 6.34,1.41 6.34,3.12c0,5.42 -11.28,3.39 -17.13,-3.07c-4.55,-5.03 -5.27,-9.53 -3.8,-23.76zm9.57,50.26c-2.29,5.96 -6.2,6 -8.47,0.09c-1.56,-4.07 3.01,-9.89 3.01,-9.37c7.13,-7.13 13.32,-5.85 23.28,4.82c15.64,16.74 16,44.26 0.81,62.31c-5.67,6.74 -10.35,9.35 -15.59,8.68c-10.5,-1.33 -9.06,-7.31 1.5,-6.2c7.21,0.75 9.51,-0.94 13.97,-10.3c6.57,-13.77 6.69,-18.57 0.64,-24.63c-2.92,-2.91 -3.51,-5.44 -1.56,-6.65c5.79,-3.58 3.22,-11.07 -4.85,-14.14c-4.4,-1.67 -7.13,-4.45 -6.06,-6.17c2.41,-3.9 -4.2,-4.92 -6.68,1.56zm7.84,50.75c2.36,-3.01 4.82,-5.47 5.47,-5.47c2.57,0 0.91,2.57 -4.29,6.65c-4.95,3.88 -5.06,3.77 -1.18,-1.18zm-5.43,-21.08l6.32,-7.81l-2.06,9.35c-3.9,17.73 -14.73,22.02 -12.02,11.73c-0.35,0 2.57,-6.87 7.76,-13.27zm-12.91,-1.75c0,-1.57 6.25,-2.67 6.25,1.93c0,4.6 -6.25,-0.36 -6.25,-1.93zm-12.41,97c0.08,-12.66 9.66,-32.52 20.61,-42.72l-0.01,0c12.67,-11.79 23.23,-13.76 32.61,-6.08c7.26,5.95 7.36,6.5 2.14,11.79c-4.96,5.05 -5.46,5.08 -5.46,0.35c0,-4.16 -2.25,-4.92 -11.15,-3.78c-6.14,0.78 -13.87,2.87 -17.18,4.65c-6.81,3.64 -8.01,11.14 -2.12,13.25c2.49,0.89 0.8,3.88 -4.69,8.29c-10.35,8.32 -10.68,13.25 -1.82,27.58c5.96,9.65 7.2,10.34 10.49,5.83c4.94,-6.74 7.73,-6.45 7.73,0.81c0,5.85 -5.7,9.71 -14.35,9.71c-6.36,-0.01 -16.87,-18.57 -16.8,-29.68zm18.41,0.27c-0.25,6.21 -1.79,1.88 -1.89,1.88c-2.18,-5.47 2.22,-9.91 1.89,-1.88zm0.87,55.02c-2.91,2.91 -3.75,1.83 -3.75,-4.87c0,-11.45 -6.24,-7.43 -6.24,3.12c0,4.92 -1.47,7.4 -3.91,6.59c-6.43,-2.14 -6.07,-9.89 0.81,-17.27c0.65,0 14.45,-20.41 40.22,10.75c17.13,20.71 24.13,57.22 14.53,75.78c-4.72,9.13 -12.61,14.06 -17.58,10.98c-4.69,-2.9 -3.2,-8.44 1.76,-6.53c6.69,2.57 14.14,-9.89 14.14,-23.66c0,-11.44 -8.26,-24.29 -15.62,-24.29c-1.71,0 -3.12,-1.4 -3.12,-3.12s2.81,-3.12 6.25,-3.12c8.91,0 7.72,-6.9 -3.15,-18.28c-9.87,-10.32 -18.05,-12.37 -24.34,-6.08zm13.43,319.07c-2.58,-0.99 -4.68,-2.35 -4.68,-3.03c0,-0.67 2.1,-1.23 4.68,-1.23c6.26,0 6.24,6.65 0,4.26zm4.69,-60.47c-3.44,3.96 -6.25,9.58 -6.25,12.48s-2.69,7.72 -5.98,10.7c-5.55,5.03 -6.54,5.05 -13.73,0.34c-15.07,-9.88 -10.76,-27.12 -2.72,-9.47c5.49,12.05 10.22,9.24 5.1,-3.02c-5.8,-13.87 -6,-13.29 4.24,-11.79c17.24,2.53 22.15,-16.76 5.73,-22.53c-8.82,-3.1 -14.52,0.57 -18.65,12.02c-0.68,1.9 -2.31,2.47 -3.61,1.26c-3.83,-3.56 0.77,-16.39 9.1,-25.37c4.25,-4.59 8.85,-8.3 10.22,-8.25c5.56,0.22 13.63,8.99 18.08,19.64c6.02,14.41 5.96,15.35 -1.53,23.99zm-21.87,-12.5c0,-6.46 7.54,-8.62 10.94,-3.12c2.61,4.23 -0.92,9.37 -6.44,9.37c-2.47,0 -4.5,-2.81 -4.5,-6.25zm-3.12,-207.36c0,-1.4 9.37,-5.97 9.37,-1.79c0,4.17 -9.37,3.2 -9.37,1.79zm-14.37,124.05c-4.64,-9.34 -5.91,-18.75 -5.91,-43.18c0.02,-33.78 3.73,-45.17 19.48,-59.77l0,0c9.11,-8.44 12.94,-9.04 20.84,-3.26c6.77,4.94 5.45,15.7 -2.11,17.16c-3.83,0.74 -4.87,-0.39 -3.53,-3.87c2.91,-7.58 -3.84,-5.82 -13.07,3.41c-9.18,9.18 -16.95,25.41 -16.95,35.41c0,5.5 0.93,5.96 6.29,3.09c3.48,-1.86 8.3,-2.23 10.8,-0.84c3.93,2.2 3.93,3.55 0.05,10.29c-14.23,24.67 -15.16,28.89 -8.92,40.55c6.32,11.82 19.89,17.14 19.89,7.79c0,-3.2 2.06,-4.73 5.47,-4.08c8.65,1.67 6.66,12.89 -2.88,16.25c-10.95,3.85 -21.5,-2.94 -29.45,-18.95zm9.69,-72.85c1.06,-1.71 2.55,-3.12 3.3,-3.12s1.38,1.41 1.38,3.12c0,4.18 -7.25,4.16 -4.68,0zm0,9.37c-1.06,1.72 -2.55,3.13 -3.31,3.13c-0.76,0 -1.38,-1.41 -1.38,-3.13c0,-4.17 7.25,-4.15 4.69,0zm-16.15,128.61c-7.12,7.43 -8.78,11.9 -8.54,22.96c0.57,26.69 -11.69,6.03 0.42,-27.74c3.02,-8.43 10,-19.17 15.74,-24.2c10.8,-9.49 25.36,-11.8 35.85,-5.68c5.77,3.36 7.69,18.49 2.35,18.49c-1.72,0 -3.13,-2.96 -3.13,-6.58c0,-4.72 -1.4,-6.05 -4.94,-4.69c-2.71,1.05 -8.88,1.9 -13.71,1.9c-10.25,0 -26,11.87 -19.35,14.6c3.01,1.23 1.72,4.24 -4.69,10.94zm4.41,68.53c-2.06,-7.86 5.22,-15.21 9.03,-9.12c1.4,2.23 2.58,6.17 2.62,8.74c0.06,2.95 3.74,5.04 9.92,5.64c14.42,1.4 27.37,-12.13 25.08,-26.22c-1.51,-9.32 -0.89,-10.37 6.7,-11.24c7.45,-0.86 8.46,-2.44 9.33,-14.5c0.61,-8.47 -0.85,-16.31 -3.9,-20.97c-1.45,-2.2 -5.53,-9.11 -4.88,-9.11c0,-0.92 1.48,-1.68 3.28,-1.68c1.81,0 5.47,5.23 8.14,11.62c8.57,20.51 -1.06,54.74 -19.46,69.21c-16.55,13.02 -42.18,11.69 -45.86,-2.37zm13.47,45.12c5.24,6.31 0.84,9.94 -4.98,4.13c-3.78,-3.78 -4,-6.57 -1.16,-14.72c1.92,-5.53 6.07,-11.43 9.21,-13.11c3.15,-1.68 6.51,-3.06 7.49,-3.06c3.84,0 1.45,6.12 -3.9,9.98c-8.71,6.28 -10.86,11.71 -6.66,16.78zm31.06,40.26c0,-4.8 -9.94,-12.04 -21.1,-15.38c-5.34,-1.59 -9.3,0.14 -16.27,7.11c-5.45,5.46 -9.8,7.77 -10.67,5.68c-0.97,-2.36 -2.52,-1.99 -4.67,1.11c-2.4,3.46 -1.53,6.44 3.42,11.7c7.25,7.73 5.21,13.49 -2.96,8.33c-14.46,-9.11 -11.16,-27.51 6.92,-38.69l0,0c10.72,-6.63 31.16,-8.28 39.09,-3.15c2.57,1.66 7.89,3.05 11.8,3.07c3.97,0.03 7.96,2.48 9,5.52c1.02,3 5.37,12.86 9.65,21.89c6.21,13.1 7.51,19.85 6.4,33.25c-1.48,17.82 -8.11,28.03 -17.08,26.29c-7.58,-1.47 -8.98,-8.82 -1.68,-8.82c10.12,0 14.07,-7.91 12.44,-24.9c-0.82,-8.52 -3.36,-17.74 -5.64,-20.49c-4.71,-5.67 -4.67,-4.02 -11.93,9.47c-1.89,-4.95 -6.72,-16.63 -6.72,-21.99zm-18.42,177.77c-4.59,5.53 -31.55,8.21 -31.55,3.15c0,-1.95 -2.85,-9.97 -6.33,-17.83c-8.75,-19.79 -8.79,-52.08 -0.09,-77.77c7,-20.69 12.46,-28.88 25.07,-37.66l0,0c14.25,-9.9 35.04,-3.95 30.21,8.65c-2.45,6.38 -10.32,5.98 -14.35,-0.74c-3.12,-5.21 -3.43,-5.21 -6.56,0c-1.8,3 -5.07,5.46 -7.26,5.46c-7.92,0 -23.81,24.07 -23.81,36.07c0,2.76 3.06,4.54 7.81,4.54c4.29,0 7.8,1.4 7.8,3.12s-1.89,3.12 -4.2,3.12c-7.43,0 -14.54,11.11 -14.54,22.74c0,16.57 5.94,27.33 16.21,29.38c10.23,2.05 10.77,3.51 3.31,9c-5.17,3.81 -5.14,4.15 0.42,6.3c3.29,1.27 8.58,0.59 12.01,-1.55c7.41,-4.63 10.98,-2.16 5.85,4.02zm0.13,623.12c6.74,-4.27 10.04,-3.21 5.83,1.87c-5.03,6.06 -11.66,1.82 -5.83,-1.87zm-9.82,-5.91c4.16,0 4.15,10.38 0,7.81c-1.71,-1.06 -3.12,-3.25 -3.12,-4.87c0,-1.61 1.41,-2.94 3.12,-2.94zm-6.25,-4.5c0,6.61 -6.89,1.84 -4.55,-1.96c-0.2,0 4.55,-7.33 4.55,1.96zm3.27,-115.65c-2.53,-1.56 -1.57,-6.43 -1.23,-6.43c2.48,-6.46 4.21,-5.7 4.21,1.84c0,3.54 -1.34,5.6 -2.98,4.59zm15.68,-348.06c-13.32,12.74 -16.16,9.44 -4.35,-1.51c11.99,-11.12 17.5,-11.05 4.35,1.51zm-26.62,-49.19c2.66,0 5.55,1.17 6.44,2.6c2.1,3.4 -11.26,3.48 -11.26,0c0,-1.43 2.17,-2.6 4.82,-2.6zm-15.9,5.88c1,-1.01 3.48,-0.16 5.51,1.87c2.04,2.03 8.94,3.7 15.34,3.7c9.02,0 14.26,-2.47 23.22,-10.91c10.44,-9.85 11.38,-12.06 9.68,-22.65c-4,-24.93 -4.12,-24.22 4.18,-24.22c6.39,0 8.09,1.83 9.37,10.06c3.21,20.68 15.62,-3.82 15.62,-30.83c0,-10.82 -1.73,-16.88 -6.06,-21.2c-3.69,-3.69 -4.69,-6.5 -2.56,-7.21c1.92,-0.64 2.58,-3.53 1.47,-6.43c-1.7,-4.43 -3.27,-4.69 -10.01,-1.61c-10.28,4.68 -17.44,-0.78 -12.11,-9.24c0.27,0 2.07,-5.32 15.77,-5.86l12.37,-0.48c5.96,28.84 13.5,60.84 -0.38,88.69c-13.78,27.66 -42.47,51.26 -62.31,51.26c-7.17,0 -22.25,-11.8 -19.1,-14.94zm72.62,-69.71c2.24,-2.25 3.99,-2.3 5.31,-0.17c2.22,3.59 -3.75,8.41 -6.73,5.44l0,0c-1.06,-1.06 -0.42,-3.43 1.42,-5.27zm-0.82,9.69c0.76,0 2.25,1.41 3.31,3.12c2.57,4.16 -4.69,4.17 -4.69,0c0,-1.71 0.62,-3.12 1.38,-3.12zm-37.76,221.75c-7.12,0 -28.97,-22.64 -32.45,-33.63c-7.29,-23 -14.93,-22.83 -7.57,-28.93c2.51,-2.09 4.57,-7.17 4.57,-11.3c0,-4.13 5.03,-17.5 11.18,-29.71c6.24,-12.39 10.5,-24.85 9.62,-28.19c-1.12,-4.28 -0.08,-5.75 3.66,-5.21c4.29,0.63 18.36,-5.73 18.36,-6.09c16.4,-8.55 22.83,-8.61 31.75,-0.3c8.17,7.62 6.9,11.09 -2.26,6.19c-9.65,-5.17 -16.57,-3.91 -29.33,5.34c-15.6,11.31 -42.99,56.87 -34.18,56.87c1.63,0 5.5,-3.86 8.59,-8.59c10.54,-16.12 12.64,-17.18 23.22,-11.71c10.81,5.59 9.8,10.93 -2.06,10.93c-10.52,0 -24.71,15.48 -26.97,29.42c-2.28,14.06 2.3,30.51 10.6,38.01c6.42,5.82 6.62,5.8 12.47,-1.43c6.67,-8.24 15.32,-7.04 15.32,2.13c0,6.06 -9.08,16.2 -14.52,16.2zm12.69,-50.95c-6.37,4.64 -9.5,1.22 -6.37,-6.93c2.11,-5.49 6.98,-5.97 10.05,-0.99c1.23,1.98 -0.43,5.54 -3.68,7.92zm0.18,72.95c3.05,-4.94 11.02,-3.91 11.02,1.42c0,7.68 11.54,5.32 18.74,-3.83c4.3,-5.46 6.17,-11.31 5.22,-16.28c-0.94,-4.93 0.37,-9.12 3.61,-11.49c4.71,-3.44 4.69,-4.58 -0.21,-14.87c-6.52,-13.66 -18.42,-17.84 -27.49,-9.63c-8.01,7.25 -8.12,1.1 -0.41,-5.88c13.14,-11.88 31.44,0.75 34,23.45c3.03,26.85 -10.86,49.46 -30.38,49.46c-9.26,0 -17.35,-7.09 -14.1,-12.35zm-29.58,31.09c-4.13,0 -4.13,-6.24 0,-6.24c4.13,0 4.12,6.24 0,6.24zm7.48,2.28c0.1,0.02 -1.9,-1.84 -0.57,-5.83c1.06,-3.18 1.79,-3.17 3.76,0.01c2.61,4.21 -0.01,8.99 -3.19,5.82zm11.26,3.97c-4.13,0 -4.13,-6.25 0,-6.25c4.13,0 4.12,6.25 0,6.25zm9.71,98.38c5.36,0 7.75,1.98 8.46,7.03c0.55,3.86 2.19,7.02 3.65,7.02c25.15,0 32.33,-59.34 1.6,-59.34c-4.29,0 -7.81,-1.4 -7.81,-3.12c0,-1.72 -2.2,-3.12 -4.89,-3.12c-3.62,0 -4.35,-1.84 -2.79,-7.03c3.84,-12.81 8.31,-15.24 18.41,-9.99c5.3,2.75 10.23,3.55 11.86,1.93c4.26,-4.26 -12.23,-29.11 -25.77,-38.85c-12.81,-9.21 -38.28,-14.71 -41.79,-9.03c-1.14,1.84 -4.14,2.56 -6.66,1.59c-3.14,-1.2 -4.58,0.32 -4.58,4.82c0,4.5 1.97,6.58 6.24,6.58c7.57,0 8.38,8.75 1.08,11.55c-3.31,1.27 -7.25,-0.57 -10.93,-5.12c-7.68,-9.49 -7.39,-11.06 4.07,-22.01c9.73,-9.3 19.76,-11.18 38.58,-7.24c11.02,2.31 30.52,17.75 41.22,32.64c18.06,25.14 21.35,67.79 7.45,96.56c-3.58,7.41 -6.51,15.02 -6.51,16.91c0,1.97 -7.12,3.72 -16.8,4.13c-15.15,0.63 -17.34,-0.12 -22.29,-7.68c-6.64,-10.14 -3,-18.23 8.2,-18.23zm18.58,-1.56c4.57,0 -0.35,6.24 -1.93,6.24c-1.57,0 -2.67,-6.24 1.93,-6.24zm6,-7.89c5.69,6.86 -2.29,5.42 -4.75,1.43c-3.36,-5.44 0.47,-6.59 4.75,-1.43zm-87.39,137.93c0,-21.85 9.77,-53.27 21.52,-69.26c5.09,-6.91 10.21,-16.39 11.39,-21.06l0,0c2.23,-8.91 6.29,-11.15 8.45,-4.67c0.8,2.39 5.99,3.49 13.83,2.92c23.2,-1.67 44.26,25.37 29.23,37.54c-10.49,8.49 -16.51,4.07 -14.07,-10.34c1.33,-7.87 0.85,-12.08 -1.36,-12.08c-1.87,0 -3.4,1.06 -3.4,2.34s-6.44,2.35 -14.31,2.35c-10.57,0 -15.46,1.58 -18.75,6.07c-2.97,4.07 -3.41,7.12 -1.31,9.22c4.68,4.67 3.83,7.49 -2.9,9.63c-7.63,2.42 -18.95,25.43 -18.95,38.53c0,12.42 3.21,12.5 15.34,0.37c5.27,-5.27 11.02,-8.69 12.79,-7.6c1.76,1.09 2.39,3.31 1.39,4.93s2.4,3.79 7.56,4.82c5.15,1.03 10.19,3.99 11.18,6.58c3.15,8.22 -9.52,-0.67 -22.18,4.14c-7.52,2.86 -16.72,17.74 -16.69,27c0.1,33.4 34.62,63.33 51.51,44.67c4.01,-4.44 6.75,-5.32 9.48,-3.04c7.21,5.97 8.43,-6.73 1.38,-14.24c-5.32,-5.65 -5.68,-7.24 -1.96,-8.67c7.84,-3 15.63,5.42 14.92,16.13c-1.78,26.89 0.04,24.75 -23.1,27.07c-19.76,1.99 -21.86,1.58 -32.13,-6.26c-21.27,-16.22 -38.86,-55.64 -38.86,-87.09zm31.24,-41.22c0,-1.56 6.24,-2.67 6.24,1.93c0,4.57 -6.24,-0.35 -6.24,-1.93zm-4.36,13.74l0,0c-2.89,-0.63 -3.9,-2.57 -2.51,-4.8c1.5,-2.39 3.97,-2.73 6.86,-0.95c5.41,3.35 2.46,7.23 -4.35,5.75zm4.36,66.09c4.17,0 4.1,13.47 0,10.93c-1.72,-1.06 -3.13,-3.96 -3.13,-6.43s1.41,-4.5 3.13,-4.5zm-4.26,-10.93c0.99,-2.58 2.35,-4.69 3.03,-4.69c0.67,0 1.23,2.11 1.23,4.69c0,6.26 -6.65,6.23 -4.26,0zm12.06,104.63c-2.57,0 -4.68,-1.41 -4.68,-3.13s2.11,-3.12 4.68,-3.12c2.58,0 4.69,1.4 4.69,3.12s-2.11,3.13 -4.69,3.13zm38.03,2.05c-0.87,0.87 -4.41,0.06 -7.88,-1.8c-3.47,-1.86 -10.15,-3.38 -14.84,-3.38c-4.7,0 -7.57,-0.96 -6.39,-2.14c3.76,-3.77 13.67,-3.16 22.3,1.37c4.61,2.41 7.67,5.09 6.81,5.95zm12.58,20.38c-9.91,-1.16 -11.11,-5.39 -2.19,-7.72c9.08,-2.38 7.77,-6.36 -6.26,-19.04c-11.05,-9.98 -14.4,-11.28 -28.89,-11.22c-17.32,0.07 -26.77,5.11 -33.2,17.68c-4.56,8.93 -4.46,23.76 0.21,28.42c4.48,4.48 2.5,9.99 -6.56,0.94c-7.42,-7.42 -8.25,-18.38 -2.6,-34.13c3.12,-8.7 3.12,-11.14 0,-12.19c-8.27,-2.78 -3.36,-8.63 7.8,-9.31c2.29,0 23.71,-1.86 30.46,-2.51c20.02,-1.92 24.45,-0.11 42.89,17.5c11.97,11.44 24.18,39.77 27.83,64.6c2.85,19.4 1.41,57.88 -2.57,68.23c-4.39,11.46 -6.07,0.93 -5.89,-37.02c0.18,-36.29 -0.59,-42.72 -6.2,-52.31c-4.38,-7.48 -9.06,-11.24 -14.83,-11.92zm10.3,30.66c4.12,0 4.13,6.25 0,6.25c-4.13,0 -4.13,-6.25 0,-6.25zm-6.25,-9.37c0,-4.13 6.25,-4.13 6.25,0c0,4.13 -6.25,4.13 -6.25,0zm9.37,23.61c0,6.55 -6.91,1.85 -4.55,-1.96c-0.21,0 4.55,-7.34 4.55,1.96zm-0.25,12.57c-0.25,6.21 -1.78,1.88 -1.88,1.88c-2.19,-5.47 2.21,-9.91 1.88,-1.88zm1.68,10.45c2.37,3.83 -4.55,8.5 -4.55,1.96c-0.24,0 0.14,-9.08 4.55,-1.96zm-91.24,22.69c12.72,1.27 18.22,9.86 10.96,17.11c-6.17,6.17 -5.75,4.97 -20.56,-8.94c-5.48,10.26 -7.73,12.92 -2.37,14.97c2.57,0.99 7.54,6.66 11.05,12.6c11.87,20.12 41.14,25.2 55.64,9.67c14.31,-15.33 11.39,-38.47 -5.9,-46.84c-8.01,-3.88 -8.59,-4.98 -4.45,-8.42c8.88,-7.37 25.21,4.27 28.64,-4.67c2.85,-7.43 6.27,-5.8 10.81,5.15c5.79,13.98 4.29,23.17 -6.51,40c-10.61,16.54 -11.18,18.73 -4.88,18.73c2.47,0 8.44,-5.59 13.27,-12.42c7.14,-10.09 10.7,-12.44 18.95,-12.5c11.64,-0.07 13.6,4.64 3.03,7.29c-3.91,0.98 -13.98,9.74 -22.37,19.46c-15.47,17.92 -34.24,29.21 -48.76,29.33c-13.12,0.12 -39.95,-15.17 -48.36,-27.54c-15.15,-22.29 -7.87,-54.96 11.81,-52.98z" filter="url(#svg_4_blur)" id="svg_4"/>
  <path d="m2106.59,73.13c-1.06,-1.72 -2.55,-3.12 -3.3,-3.12s-1.38,1.4 -1.38,3.12c0,4.18 7.25,4.15 4.68,0z" filter="url(#svg_8_blur)" id="svg_8"/>
  <path d="m2114.4,134.03c0,4.3 1.41,7.81 3.12,7.81c3.49,0 4.29,-10.29 1.05,-13.53c-3.45,-3.45 -4.17,-2.45 -4.17,5.72z" filter="url(#svg_12_blur)" id="svg_12"/>
  <path d="m2105.13,472.12c-0.15,5.78 2.89,4.76 9.27,-3.12c3.86,-4.76 4.58,-7.7 2.24,-9.14c-3.7,-2.29 -11.35,5.85 -11.51,12.26z" filter="url(#svg_16_blur)" id="svg_16"/>
  <path d="m2102.53,498.51c-6.14,6.14 -4.29,11.03 4.84,12.79c12.28,2.35 18.13,-3.2 11.31,-10.74l0,0c-6.08,-6.72 -10.87,-7.33 -16.15,-2.05z" filter="url(#svg_20_blur)" id="svg_20"/>
  <path d="m2054.48,657.17c-3,0 -8.79,13.51 -8.79,20.5c0,5.11 10.92,16.98 15.62,16.98c4.27,0 3.94,-19.78 -0.5,-29.53c0.21,0 -3.92,-7.95 -6.33,-7.95z" filter="url(#svg_24_blur)" id="svg_24"/>
  <path d="m2096.91,884.32c3.53,3.53 28.12,-16.26 30.07,-24.2c1.9,-7.74 1.91,-7.74 7.33,2.59c9.88,18.8 21.91,5.83 16.1,-17.34c-2.22,-8.84 -3.25,-7.6 -26.25,-3.92l1.78,-10.94c1.99,-12.28 -1,-14.63 -4.98,-3.91c-2.08,5.63 -5.01,7.03 -14.7,7.03c-11.07,0 -12.41,0.94 -15.7,10.93c-3.25,9.89 -3.01,11.03 2.49,11.95c3.34,0.56 8.14,-0.69 10.66,-2.79c8.1,-6.72 7.88,-1.14 -0.56,13.95c-4.51,8.08 -7.32,15.57 -6.24,16.65zm47.16,-33.51c2.55,4.12 -1.19,9.96 -4.9,7.67c-1.6,-0.99 -2.91,-3.82 -2.91,-6.3c0,-5.15 4.94,-6.02 7.81,-1.37zm-39.42,-2.83c-11.21,7.1 -8.26,-2.38 -8.44,-2.38c0.56,-2.87 2.64,-5.75 4.63,-6.41c5.48,-1.83 8.73,5.68 3.81,8.79zm12.87,5.95c2.61,-4.04 3.04,-3.96 3.08,0.6c0.07,7.4 -6.22,9.52 -6.15,6.61c0.02,-1.39 1.41,-4.63 3.07,-7.21z" filter="url(#svg_28_blur)" id="svg_28"/>
  <path d="m2062.12,987.18l7.5,-8.1c7.18,14.41 4.42,8.86 11.56,23.2c5,-28.88 5.38,-37.54 15.26,-45.27c4.73,-3.69 8.59,-8.72 8.59,-11.17c0,-5.62 -12.18,-5.69 -19.52,-0.11c-3.01,2.28 -5.46,6.45 -5.46,9.27c0,2.81 -1.41,5.12 -3.13,5.12c-1.72,0 -3.12,-4.22 -3.12,-9.37c0,-12.56 -5.59,-12.02 -6.83,0.66c-0.76,7.74 -2.76,10.43 -8.79,11.83c-6.41,1.49 -7.98,3.96 -8.8,13.81c-1.36,16.49 3.36,20.24 12.74,10.13zm30.42,-39.56c4.13,0 4.12,6.25 0,6.25c-4.13,0 -4.13,-6.25 0,-6.25zm-15.62,21.87c4.18,0 4.15,7.25 0,4.68c-1.72,-1.06 -3.12,-2.55 -3.12,-3.31c0,-0.75 1.4,-1.37 3.12,-1.37zm-18.74,0c1.72,0 3.13,2.02 3.13,4.5c0,2.47 -1.41,5.37 -3.13,6.43c-4.09,2.53 -4.17,-10.93 0,-10.93z" filter="url(#svg_32_blur)" id="svg_32"/>
  <path d="m2048.65,1183.85c-3.52,9.26 3.04,23 10.98,23c7.37,0 8.31,-5.42 1.26,-7.26c-5.7,-1.49 -6.31,-3.24 -4.51,-12.85c2.48,-13.25 -3.01,-15.3 -7.73,-2.89z" filter="url(#svg_36_blur)" id="svg_36"/>
  <path d="m2139.91,1231.82c-1.61,4.82 1.85,12.51 5.62,12.51c4.44,0 4.05,-7.3 -0.64,-11.99c-2.58,-2.58 -4.24,-2.75 -4.98,-0.52z" filter="url(#svg_40_blur)" id="svg_40"/>
  <path d="m2068.84,1266.73c-4.31,8.32 -6.11,9.27 -14.48,7.6c-12.74,-2.55 -18.04,2.51 -18.04,17.23c0,15.06 7.23,16.39 14.98,2.76c5.67,-9.97 12.28,-13.09 8.3,-3.92c-1.31,3 -3.02,14.95 -3.81,26.54c-1.19,17.52 -2.37,21.08 -6.95,21.08c-9.16,0 -12.89,7.52 -10.66,21.46c2.76,17.28 8.33,21.57 14.92,11.5c2.8,-4.26 5.08,-9.16 5.08,-10.89c0,-1.72 2.36,-2.23 5.23,-1.13c4.2,1.62 4.73,0.83 2.69,-4c-4.37,-10.34 -5.8,-40.93 -2.02,-43.27c2.11,-1.3 3.47,0.33 3.47,4.17c0,6.02 11,19.04 16.1,19.04c4.87,0 8.78,-12.23 6.91,-21.61c-2.19,-10.94 -2.63,-9.62 -29.5,-9.62l6.39,-6.86c3.67,-3.94 5.65,-9.16 4.65,-12.29c-2.28,-7.2 4.9,-18.33 11.82,-18.33c7.03,0 7.08,-5.05 0.09,-8.96l0.01,0c-6.78,-3.79 -9.04,-2.37 -15.18,9.5zm-21.62,21.35c-3.79,3.14 -4.65,2.95 -4.65,-1.02l-0.01,0c0,-5.83 5.1,-9.65 7.56,-5.66c0.96,1.55 -0.35,4.56 -2.9,6.68zm1.59,74.93c-1.72,0 -3.12,-3.51 -3.12,-7.81c0,-8.18 0.72,-9.17 4.16,-5.72c3.24,3.24 2.45,13.53 -1.04,13.53zm25.84,-47.84c0.67,-2.03 3.57,-4.15 6.43,-4.7c3.79,-0.74 5.21,1.21 5.21,7.13c0,7.26 -0.7,7.78 -6.44,4.71c-3.54,-1.9 -5.88,-5.11 -5.2,-7.14z" filter="url(#svg_44_blur)" id="svg_44"/>
  <path d="m2098.87,1489.08c-2.53,0.23 -5.97,4.31 -7.65,9.06c-2.42,6.87 -1.93,9.74 2.45,14.05c5.21,5.15 5.97,4.89 15.1,-5.27c8.76,-9.72 9.97,-10.2 13.52,-5.35c6.16,8.43 25.99,4.88 34.89,-6.24c21.38,-26.73 -14.25,-40.3 -5.74,-48.81c3.84,-3.84 4.89,-21.8 1.48,-25.21l0,0c-6.21,-6.21 -16.66,6.12 -16.66,19.68c0,13.1 -4.31,14.61 -18.6,25.17l-1.98,-7.89c-1.14,-4.55 -0.34,-9.86 1.88,-12.54c3.2,-3.86 2.73,-4.64 -2.81,-4.64c-3.66,0 -9,-2.74 -11.87,-6.09c-10.99,-12.84 -9.86,-1.88 2.13,20.47c20.1,37.5 12.76,31.88 -6.14,33.61zm-2.32,16.41c-2.64,-2.65 7.01,-13.09 9.64,-8.84c2.26,3.67 -6.64,11.83 -9.64,8.84zm49.08,-72.21c4.14,-2.56 4.16,7.81 0,7.81c-1.72,0 -3.12,-1.32 -3.12,-2.94c0,-1.62 1.4,-3.81 3.12,-4.87zm-10.34,29.45c-0.11,0 7.73,-2.9 8.39,-2.9c0.43,0 3.85,4.15 7.6,9.23c8.44,11.41 4.92,22.12 -8.99,27.37c-11.26,4.25 -13.61,1.39 -14.2,-17.31c-0.36,-11.63 0.64,-13.9 7.2,-16.39z" filter="url(#svg_48_blur)" id="svg_48"/>
  <path d="m2144.07,1478.57c-1.06,-1.72 -2.47,-3.13 -3.12,-3.13s-2.07,1.41 -3.13,3.13c-2.57,4.16 8.82,4.16 6.25,0z" filter="url(#svg_52_blur)" id="svg_52"/>
  <path d="m2063.29,1670.63c-2.94,-7.66 -13.38,-5.32 -22.01,4.94c-4.44,5.28 -8.08,10.91 -8.08,12.49c0,3.02 8.83,4.32 21.49,3.19c6.1,-0.55 7.14,0.49 5.76,5.76c-2.31,8.83 10.25,8.78 18.26,-0.07c5.53,-6.11 5.56,-6.69 0.49,-9.53c-7.53,-4.21 -6.83,-7.82 4.23,-21.78c10.81,-13.65 13.39,-12.04 29.41,-11.5l-8.32,3.3c-12.79,5.07 -20,24.72 -10.42,28.4c12.4,4.76 24.16,-6.94 24.9,-24.78l0.58,-13.83c-23.22,0 -24.63,0.94 -22.22,-7.03c1.17,-3.86 3.37,-8.36 4.9,-9.99c2.33,-2.5 3,-7.41 2.77,-7.41c0,-3.3 -1.05,-3.57 -4.07,-1.07c-2.24,1.86 -7.16,2.57 -10.95,1.58c-3.78,-0.99 -9.13,0.06 -11.87,2.34c-5.7,4.73 -3.72,5.17 12.06,17.75c-18.81,27.34 -23.69,35.61 -26.91,27.24zm-9.51,13.84c-5.94,4.93 -10,-1.52 -4.85,-7.72c0.1,0 3.82,-4.54 6.51,-4.54c4.32,0 3.2,8.22 -1.66,12.26zm57.37,-12.04c-4.17,7.81 -12.37,7.78 -12.37,-0.04c0,-7.08 2.6,-8.93 10.14,-7.22c4.35,0.99 4.8,2.47 2.23,7.26z" filter="url(#svg_56_blur)" id="svg_56"/>
  <path d="m2070.68,1746.54c0,3.93 7.07,9.99 11.66,9.99c3.2,0 3.39,-1.45 0.83,-6.24c-3.24,-6.05 -12.49,-8.83 -12.49,-3.75z" filter="url(#svg_60_blur)" id="svg_60"/>
  <path d="m2038.26,2015.84c28.06,30 59.53,33.02 95.16,38.56l-1.84,72.23l-74.83,0l-0.62,-9.37c-2.62,-39.16 -15.97,-67.46 -42.49,-90.01c-20.94,-17.81 -40.45,-24.54 -76.46,-26.38c-24.95,-1.27 -31.31,-0.5 -46.85,5.69c-33.52,13.35 -51.46,33.08 -61.83,67.98c-8.08,27.24 2.68,68.67 22.71,87.34c14.29,13.32 22.04,16.59 43.71,18.41c37.59,3.15 57.43,-12.77 59.66,-47.88c1.22,-19.11 0.91,-20.09 -9.72,-30.72c-9.14,-9.14 -13.22,-10.98 -24.36,-10.98c-9.45,0 -15.52,2 -20.62,6.8c-9.5,8.93 -9.69,25.02 -0.39,33.68c3.76,3.51 5.24,6.37 3.28,6.37c-8.52,0 -20.26,-15.67 -21.77,-29.08c-5.1,-45.27 57.78,-69.73 96.2,-37.41c27.79,23.39 28.87,74.74 2.16,103.19c-3.62,3.86 -5.29,7.08 -3.71,7.14c28.42,1.11 207.34,1.01 208.37,-0.11c2.65,-2.9 4.78,-206.11 2.18,-207.72c-1.42,-0.88 -4.46,0.27 -6.74,2.55c-15.65,15.59 -43.34,22.99 -66.55,17.79c-51.52,-11.54 -69.02,-76.38 -29.34,-108.73c17.47,-14.25 45.88,-10.77 57.56,7.05c6.52,9.95 3.18,15.06 -3.55,5.44c-6.42,-9.16 -26.77,-9.5 -35.67,-0.59c-7.8,7.79 -8.37,28.22 -1.1,39.31c13.74,20.96 48.67,22.69 69.3,3.42c15.85,-14.8 21.2,-49.52 11.29,-73.24c-6.35,-15.2 -26.15,-33.37 -42.77,-39.25l0,0c-29.08,-10.29 -71.33,-3.77 -94.99,14.66c-29.61,23.07 -40.43,50.27 -37.53,94.36c2.32,35.34 11.06,56.96 32.15,79.5zm-17.56,-49.69c0,-4.61 5.25,-7.77 7.03,-7.77c17.84,-4.78 23.07,2.06 6.77,8.87c-14.22,5.95 -13.8,5.98 -13.8,-1.1zm5.06,16.64c-1.32,-3.43 1.29,-6.18 8.93,-9.37c12.82,-5.35 13.21,-5.39 15.65,-1.44c1.05,1.7 -2.73,5.91 -8.4,9.36c-12.41,7.57 -13.79,7.69 -16.18,1.45zm14.7,17.35c-2.28,0 -4.14,-2.07 -4.14,-4.6c0,-5.07 16.76,-15.08 19.93,-11.9c2.67,2.67 -10.57,16.5 -15.79,16.5zm9.85,11.34c-5.12,-1.96 -4.98,-2.74 1.7,-9.86c-0.18,0 7.53,-7.72 9.65,-7.72c5.22,0 5.13,5.22 -0.2,12.28c-3.86,5.12 -7.33,6.77 -11.15,5.3zm15.01,13.65c-5.43,0 -5.06,-6.49 0.85,-14.92l0,0c4.38,-6.26 13.87,-9.73 13.87,-5.09c0,4.83 -11.17,20.01 -14.72,20.01zm22.18,1.85c-1.78,7.09 -7.26,9.8 -11.42,5.64c-1.03,-1.04 0.4,-6.66 3.18,-12.5c5.02,-10.51 15.86,-15.59 12.04,-5.63c-1.05,2.73 -2.76,8.35 -3.8,12.49zm16.23,-1.25c-2.45,15.36 -3.12,16.38 -9.26,14.02c-3.75,-1.43 -3.97,-3.76 -1.22,-12.72c1.85,-6.04 5.44,-11.77 7.98,-12.74c3.82,-1.47 4.25,0.52 2.5,11.44zm8.81,16.03c-7.62,-2.93 -1.26,-13.73 -1.26,-23.27c0,-1.5 1.4,-2.73 3.12,-2.73s3.12,6.28 3.12,13.95c0,11.5 -0.88,13.62 -4.98,12.05zm14.7,0.76c-3.77,-2.33 -4.61,-13.92 -1.57,-21.82c1.93,-5.04 7.29,-6.85 7.68,-2.6c0.12,1.29 0.7,5.97 1.3,10.4c1.29,9.66 -2.59,17 -7.41,14.02zm-2.18,102.84l0,0c2.13,-8.48 3.06,-8.79 13.55,-4.58c5.12,2.06 7.03,5.4 7.03,12.3c0,5.21 -1.41,9.47 -3.13,9.47s-3.12,-3.43 -3.12,-7.63c0,-9.93 -6.25,-14.9 -6.25,-1.93c0,16.62 -12.42,9.68 -8.08,-7.63zm34.63,7.82c-3.3,-5.33 10.87,-4.32 0.93,5.62c-9.32,9.32 -12.19,-2.5 -3.87,-2.5c2.68,0 4,-1.4 2.94,-3.12zm-14.79,-17.18c0.57,-4.37 7.2,-4.91 16.1,-1.31c5.75,2.33 6.69,3.93 3.92,6.7c-4.2,4.2 -20.68,-0.24 -20.02,-5.39zm17.66,-9.7c-9.26,3.55 -20.05,2.05 -20.05,-2.79c0,-3.39 3.47,-4.69 12.49,-4.69c12.63,0 16.65,3.99 7.56,7.48zm-7.3,-51.2c15.73,0 15.36,6.94 -0.5,9.59l-10.69,1.78l11.72,2.47c14.4,3.04 14.96,6.48 1.56,9.61l-10.15,2.37l9.37,1.95c12.46,2.61 10.68,7.9 -3.06,9.11l-11,0.97c0,-23.37 0,-14.26 0,-37.85l12.75,0zm-12.75,-9.19c0,-4.2 3.47,-5.24 13.28,-3.99c12.38,1.59 10.58,6.93 -2.35,6.93c-6.01,0 -10.93,-1.32 -10.93,-2.94zm20.63,-40.78c-2.39,0 -5.16,-2.11 -6.15,-4.69c-1.83,-4.79 -0.3,-5.4 6.6,-2.61c5.28,2.13 4.96,7.3 -0.45,7.3zm0.47,8.32c6.08,2.45 1.27,7.29 -7.23,7.29c-4.19,0 -7.62,1.41 -7.62,3.13c0,1.71 3.51,3.12 7.8,3.12c4.86,0 7.81,1.77 7.81,4.68c0,3.28 -3.29,4.69 -10.93,4.69c-10.03,0 -10.93,-0.76 -10.93,-9.26c0,-5.96 2.15,-10.41 6.04,-12.49l0,0c6.47,-3.46 8.89,-3.65 15.06,-1.16zm-24.02,2.61c-0.11,-9.3 -1.35,-23.68 8.67,-17.49c4.56,2.82 -0.06,7.15 -8.67,17.49zm-20.81,103.8c2.89,2.88 2.12,14.35 -1.3,19.56c-2.74,4.17 -3.42,4.17 -6.15,0c-1.69,-2.57 -3.1,-7.69 -3.13,-11.37c-0.04,-6.55 6.87,-11.9 10.58,-8.19zm-23.12,10.45c0,-9.47 1.26,-12.75 4.88,-12.75c3.71,0 4.64,2.75 3.9,11.47c-1.39,16.46 -8.78,17.57 -8.78,1.28zm-11.12,-12.75c3.62,0 4.88,3.28 4.88,12.76c0,16.27 -7.39,15.19 -8.78,-1.29l0,0c-0.74,-8.72 0.2,-11.47 3.9,-11.47zm-12.34,0c4.3,0 4.67,4.38 1.95,22.65c-0.19,1.28 -1.75,2.34 -3.47,2.34s-3.12,-5.62 -3.12,-12.5c0,-8.97 1.3,-12.49 4.64,-12.49zm-19.78,12.49c0.55,-9.3 2.07,-12.49 5.97,-12.49c3.99,0 4.96,2.26 4.1,9.62c-2.25,19.32 -11.19,21.87 -10.07,2.87zm-3.6,-8.49c0,7.91 -5.8,20.99 -9.3,20.99c-1.76,0 -3.2,-3.3 -3.2,-7.33c0,-4.02 2.81,-9.86 6.25,-12.97c5.42,-4.91 6.25,-5 6.25,-0.69zm-20.95,11.42c4.54,4.59 4.78,5.99 1.24,7.34c-4.59,1.77 -15.45,-8.43 -12.31,-11.56l0,0c2.79,-2.79 4.97,-1.96 11.07,4.22zm-7.16,-16.98c0,-3.1 3.1,-4.68 9.18,-4.68c10.39,0 15.17,4.62 7.72,7.48c-8.75,3.35 -16.9,2.01 -16.9,-2.8zm1.56,-14.05c0,-3.22 3.67,-4.89 11.71,-5.34c9.88,-0.55 11.71,0.34 11.71,5.66c0,5.37 -1.72,6.16 -11.71,5.33c-7.9,-0.65 -11.71,-2.49 -11.71,-5.65zm23.42,-14.25c0,3.62 -3.28,4.88 -12.75,4.88c-8.8,0 -12.36,-1.21 -11.47,-3.91c0.71,-2.15 6.44,-4.34 12.75,-4.87c8.73,-0.74 11.47,0.2 11.47,3.9zm-20.98,-54.35c3.54,-0.17 6.27,8.39 3.9,12.23c-1.11,1.8 0.17,3.27 2.84,3.27c3.12,0 4.87,2.82 4.87,7.81c0,4.29 1.41,7.81 3.13,7.81s3.12,2.64 3.12,5.88c0,3.9 -2.82,6.42 -8.39,7.49c-15.58,2.97 -23.64,-5.24 -8.79,-8.97c11.12,-2.79 9.71,-7.75 -1.56,-5.5c-7.33,1.47 -9.37,0.78 -9.37,-3.2c0,-2.79 2.11,-5.07 4.69,-5.07c5.99,0 7,-7.41 -1.54,-4.7c-11.31,3.6 -13.74,-1.89 -4.27,-9.64c4.91,-4.01 10.03,-7.35 11.37,-7.41zm-7.98,-9.09c2.59,2.59 2.13,4.9 -1.73,8.86c-6.45,6.62 -15.43,10.06 -17.51,6.7c-1.09,0 0.94,-4.89 7.09,-10.78c6.39,-6.12 9.56,-7.37 12.15,-4.78zm-10.38,-10.24c2.07,3.34 -15.04,20.01 -17.75,17.3c-1.1,-1.1 0.09,-6.04 2.64,-10.97l0,0c4.49,-8.7 11.77,-11.74 15.11,-6.33zm-13.75,-9.3c0,5.36 -14.93,20.87 -17.56,18.24c-1.36,-1.36 -0.17,-6.28 2.64,-10.93c5.13,-8.48 14.92,-13.27 14.92,-7.31zm-27.17,-7.09c3.62,-4.94 4.51,-5.03 8.02,-0.8c3.22,3.88 2.98,6.23 -1.31,12.77c-12.71,19.41 -13.17,-3.13 -6.71,-11.97zm-19.09,5.4l0,0c1.05,-12.39 5.72,-16.28 11.38,-9.46c2.66,3.2 2.58,6.36 -0.31,12.57c-5.81,12.52 -12.24,10.71 -11.07,-3.11zm-11.9,-13.52c6.49,0 7.69,3.05 5.88,14.97c-2.05,13.48 -8.36,11.18 -9.6,-3.5c-0.72,-8.55 0.23,-11.47 3.72,-11.47zm-18.8,4.69c2.18,-5.68 8.14,-6.23 8.5,-0.79c0.77,11.61 5.05,21.09 -1.65,21.09c-5.26,0 -9.65,-13 -6.85,-20.3zm-27.67,9.09c5.57,1.39 7.81,0.69 7.81,-2.45l-0.01,0c0,-8.42 9.41,-8.52 12.6,-0.13c5.29,13.91 3.98,17.83 -5.18,15.53c-6.6,-1.66 -7.84,-1.11 -6.35,2.78c2.78,7.23 -3.91,5.85 -10.61,-2.18c-8.54,-10.24 -7.81,-15.95 1.74,-13.55zm-21.58,10.75c3.13,-5.06 9.6,-2.64 13.77,5.14c2.29,4.29 3.23,8.74 2.08,9.9c-2.79,2.79 -17.97,-11.61 -15.85,-15.04zm-11.54,10.33c2.03,-3.26 4.49,-2.3 11.08,4.28c6.12,6.12 7.52,9.42 5.06,11.88c-2.46,2.46 -5.54,1.27 -11.07,-4.28c-5.04,-5.06 -6.78,-9.14 -5.07,-11.88zm-11.68,21.6c1.47,-10.31 5.68,-10.9 16.43,-2.29c10.22,8.18 7.01,13.24 -5.4,8.52c-4.26,-1.62 -8.73,-1.98 -9.93,-0.81c-1.2,1.18 -1.7,-1.26 -1.1,-5.42zm-6.73,15.01c0,-7.91 12.87,-7.85 20.05,0.09c5.13,5.67 5.12,6.03 -0.3,7.15c-10.65,2.2 -19.75,-1.14 -19.75,-7.24l0,0zm0,17.54c0,-4.29 1.05,-7.64 2.34,-7.44c8.14,1.25 15.26,3.76 17.93,6.31c3.95,3.76 -3.6,8.83 -13.24,8.89c-5.43,0.04 -7.03,-1.73 -7.03,-7.76l0,0zm4.44,25.33c-6.86,-2.63 -5.25,-10.33 2.59,-12.43c11.09,-2.97 14.83,-2.31 14.83,2.61c0,5.67 -11.43,12.12 -17.42,9.82zm13.44,26.55c-3.03,-3.08 -2.56,-4.82 2.23,-8.36l0,0c12.51,-9.23 19.22,-3.71 7.92,6.52c-5.03,4.55 -7.1,4.93 -10.15,1.84zm12.72,12.15c-2.45,0 -5.26,-6.14 3.75,-11.77c5.05,-3.16 6.25,-3.12 6.25,0.18c0,4.53 -6.09,11.59 -10,11.59zm20.55,-0.78c-2.57,10.72 -2.15,10.28 -7.02,7.27c-3.39,-2.09 -3.38,-3.7 0.06,-9.2l0,0c5.81,-9.3 9.42,-8.31 6.96,1.93zm9.53,10.15c-5.36,0 -4,-6.79 -3.9,-6.79c1.47,-9.99 8.8,-11.06 8.8,-1.28c0,5.25 -1.71,8.07 -4.9,8.07zm9.59,-7.81c0,-6.76 7.81,-12.07 7.81,0c0,12.25 -7.81,6.57 -7.81,0zm20.3,3.13c-4.23,2.61 -4.84,2.05 -7.63,-7.03c-2.64,-8.59 -1.23,-8.85 5.79,-1.1c3.76,4.16 4.31,6.6 1.84,8.13zm2.23,-10.59l-0.01,0c-2.4,-2.41 -2.47,-4.47 -0.21,-6.73c2.26,-2.26 4.41,-1.86 7.02,1.29c4.73,5.7 -1.53,10.72 -6.8,5.44zm7.11,-11.31c-4.21,-5.08 -0.91,-6.14 5.83,-1.87c5.75,3.64 -0.75,7.98 -5.83,1.87zm12.52,-10.9c0,1.72 -2.02,3.12 -4.5,3.12s-5.37,-1.4 -6.43,-3.12c-2.53,-4.1 10.93,-4.17 10.93,0zm-2.04,-14.19c1.3,3.38 -0.07,4.82 -4.56,4.82c-3.56,0 -5.86,-1.65 -5.17,-3.71c1.92,-5.78 7.68,-6.44 9.73,-1.11zm-5.97,-11.12c2.15,3.48 -7.6,8.28 -7.6,1.79c0,-5.05 4.88,-6.2 7.6,-1.79zm-39.51,13.6c-1.89,-9.15 1.15,-19.52 5.73,-19.52c2.37,0 4.32,-1.39 4.32,-3.09l0,0c0,-3.15 13.65,-3.18 18.73,-0.04c3.98,2.46 -0.75,8.98 -6.29,8.66c-14.2,-0.82 -16.29,0.59 -14.9,10.08c1.49,10.15 -5.55,13.77 -7.59,3.91zm219.11,-225.65c3.69,0 7.63,6.09 5.39,8.32c-2.23,2.24 -8.33,-1.7 -8.33,-5.39c0,-1.61 1.33,-2.93 2.94,-2.93zm-11.06,5.24c3.24,-1.25 5.93,-0.2 7.07,2.75c4.46,11.62 -6.94,3.41 -6.64,3.41c-5.22,-3.82 -5.25,-4.32 -0.43,-6.16zm6.56,16.62c-1.06,1.72 -3.95,3.12 -6.43,3.12s-4.5,-1.4 -4.5,-3.12c0,-4.17 13.47,-4.11 10.93,0zm10.53,17.67c-4.51,5.43 -8.96,5.36 -8.96,-0.15c0,-2.38 -2.31,-4.14 -5.13,-3.9c-4.48,0.38 -6.94,-3.47 -6.51,-3.47c-1.68,-4.75 7.31,-5.25 10.21,-0.57c1.13,1.84 3.89,2.63 6.12,1.78c5.86,-2.25 8.33,1.41 4.27,6.31zm6.73,8.64c-1.78,-1.77 -1.82,-4.75 -0.12,-7.51c2.4,-3.88 3.15,-3.74 4.94,0.94c2.5,6.52 -0.62,10.77 -4.82,6.57zm-9.45,-26.65c0,-7.04 4.84,-7.85 7.38,-1.22c4.38,11.41 20.73,-0.57 20.73,-15.19c0,-10.93 -8,-22.98 -19.05,-28.7c-10.41,-5.38 -34.82,-5.94 -44.4,-1.02c-10.4,5.35 -24,18.86 -29.47,29.29c-6.43,12.26 -5.96,43.12 0.91,60.3c6.07,15.17 25.41,33.11 41.36,38.37c14.75,4.87 54.33,2.11 64.41,-4.49c4.34,-2.84 9.52,-5.17 11.52,-5.17c5.78,0 0.83,176.8 -1.5,180.56c-2.58,4.19 -184.53,5.55 -182.38,1.37c14.46,-28.09 18.77,-60.22 10.64,-79.27c-19.85,-46.45 -79.03,-61.21 -113.89,-28.41c-15.47,14.54 -20.25,30.04 -15.75,51.02c2.56,11.92 5.37,16.38 13.51,21.41c11.48,7.09 26.64,8.32 32.35,2.61c5.38,-5.38 4.61,-13.99 -1.46,-16.32c-3.47,-1.33 -4.17,-3.04 -2.08,-5.12c4.16,-4.17 12.89,-0.56 14.32,5.93c1.79,8.08 -3.62,17.77 -12.76,22.89c-11.6,6.5 -30.89,2.68 -40.01,-7.92c-16.9,-19.65 -24.25,4.26 -32.51,-4c-2.52,-2.52 -0.22,-5.03 8.51,-9.29c10.2,-4.99 11.81,-7.13 10.93,-14.6c-2.08,-17.76 6.24,-39.34 20.08,-52.1c22.46,-20.71 58.97,-25.21 87.83,-10.83c33.46,16.68 46.82,47.57 40.21,93c-1.62,11.16 -1.49,19.35 0.35,21.18c1.72,1.73 33.71,3.01 75.87,3.04c59.62,0.03 73.7,-0.79 77.42,-4.5c3.7,-3.7 4.52,-17.22 4.43,-73.35c-0.06,-37.85 -1.08,-71.88 -2.27,-75.61c-1.89,-5.98 -3.51,-6.5 -13.54,-4.37c-27.1,5.74 -64.71,-0.04 -78.57,-12.07c-44.76,-38.85 -38.98,-110.69 10.56,-131.37l0,0c30.98,-12.93 64.1,1.71 70.77,31.27c2.32,10.3 1.62,13.34 -5.11,22.16c-4.29,5.63 -10.42,10.23 -13.63,10.23c-9.96,0 -15.71,-3.55 -15.71,-9.71zm20.13,21.93c-0.41,0 -1.6,-3.9 0.96,-6.45c2,-2 3.65,-0.82 4.75,3.39c1.77,6.78 -2.12,8.87 -5.71,3.06zm16.31,-3.89c-2.24,2.23 -8.33,-1.71 -8.33,-5.39c0,-1.62 1.32,-2.94 2.94,-2.94c3.68,0 7.62,6.09 5.39,8.33zm4.16,-8.33c-4.13,0 -4.13,-6.25 0,-6.25c4.13,0 4.13,6.25 0,6.25zm4.69,-9.37c-2.58,0 -4.69,-1.41 -4.69,-3.12s2.11,-3.13 4.69,-3.13c2.57,0 4.68,1.41 4.68,3.13s-2.11,3.12 -4.68,3.12zm1.56,-12.49c-3.44,0 -6.25,-1.41 -6.25,-3.13c0,-1.72 2.81,-3.12 6.25,-3.12c3.43,0 6.25,1.4 6.25,3.12c0,1.72 -2.82,3.13 -6.25,3.13zm5.48,-17.96c-0.71,2.14 -4.69,4.29 -8.85,4.77c-7.32,0.85 -7.37,0.73 -1.5,-3.9c7.34,-5.78 12.1,-6.19 10.35,-0.87zm-3.04,-12.79c-1.71,5.13 -13.15,8.23 -11.13,2.15c1.71,-5.13 13.16,-8.23 11.13,-2.15zm-12.63,-5.51c-7.49,4.73 -10.73,-0.48 -3.64,-5.84c14.72,-11.13 11.83,0.68 3.64,5.84zm-4.44,-18.78c1.89,4.93 -3.42,11.31 -9.42,11.31c-4.9,0 -5.05,-1.68 -0.83,-9.57c3.8,-7.09 7.93,-7.79 10.25,-1.74zm-13.69,-10.68c3.11,1.92 3.06,3.78 -0.25,9.08c-5.56,8.9 -12.03,8.46 -12.03,-0.81l0,0c0,-8.09 6.02,-12.14 12.28,-8.27zm-26,-4.3c0.55,0 1.64,-9.52 9.81,-1.35c2.7,2.7 2.44,5.81 -1.07,12.59c-7.11,13.74 -14.62,4.08 -8.74,-11.24zm-11.27,-4.94c6.7,0 8.6,10.19 3.43,18.36c-4.11,6.49 -9.67,1.21 -9.67,-9.18c0,-7.1 1.41,-9.18 6.24,-9.18zm-19.09,0c4.08,0 6.29,2.72 7.19,8.87c1.45,9.87 0.1,16.11 -3.47,16.11c-2.91,0 -9.61,-14.25 -9.61,-20.44c0,-2.5 2.65,-4.54 5.89,-4.54zm-23.03,9.3c3.54,-5.72 11.04,-3.08 14.09,4.96c3.71,9.75 3.92,16.97 0.51,16.97c-4.21,0 -16.63,-18.65 -14.6,-21.93zm-15.86,9.77c3.69,-5.97 9.59,-3.79 15.14,5.62c6.22,10.51 6.59,12.79 2.1,12.79c-5.63,0 -19.48,-14.79 -17.24,-18.41zm4.77,19c6.14,6.59 8.21,11.9 4.65,11.9c-5.53,0 -20.15,-10.26 -20.15,-14.13c0,-6.79 8.2,-5.61 15.5,2.23zm-7.93,14.06c20.96,19.43 -17.73,5.89 -16.23,-1.9c1.45,-7.51 6.75,-6.89 16.23,1.9zm-6.79,13.96c12.39,4.53 10.56,9.41 -3.09,8.27c-8.17,-0.67 -12,-2.61 -12.73,-6.43c-1.15,-6.07 2.93,-6.55 15.82,-1.84zm-21.21,15.32l0,0c3.77,-6.1 23.55,-2.12 23.55,4.74c0,3.32 -2.9,4.12 -11.25,3.08c-12.83,-1.59 -15.21,-3.1 -12.3,-7.82zm-1.43,20.47c0,-6.07 2.45,-7 15.03,-5.71c13.79,1.43 11.25,8.17 -3.56,9.43c-8.55,0.72 -11.47,-0.23 -11.47,-3.72l0,0zm0.21,12.49c0.74,-0.7 6.53,-1.97 12.87,-2.8c15.76,-2.08 18.91,5.69 3.47,8.58c-9.76,1.83 -20.39,-1.92 -16.34,-5.78z" filter="url(#svg_64_blur)" id="svg_64"/>
  <path d="m1770.08,2018.41c-10.94,-3.15 -35.47,-2.97 -44.14,0.32c-22.19,8.44 -18.9,47.09 4,46.95c13.72,-0.08 15.32,-5.29 22.69,-19.28l7.54,7.09c15.23,14.3 5.11,43.47 -15.08,43.47c-9.84,0 -21.1,-7.42 -21.1,-13.91c0,-1.97 -1.58,-5.16 -3.51,-7.09c-8.31,-8.31 -27.15,11.18 -23.11,23.91c1.03,3.22 -1.35,8.17 -6.04,12.57c-6.5,6.11 -9.88,6.97 -21.32,5.4c-7.48,-1.03 -17.02,-3.41 -21.2,-5.29c-33.21,-14.97 -42.69,-27.13 -32.84,-42.16c4.93,-7.53 7,-8.22 21.6,-7.27c15.26,0.99 16.2,0.61 17.07,-6.83c0.64,-5.48 -2.02,-10.69 -8.79,-17.17c-8.3,-7.95 -12.31,-9.37 -27.47,-9.7c-32.67,-0.72 -33.31,-8.54 -41,0.96c-7.45,9.2 -26.62,11.31 -40.39,4.46c-41.17,-20.49 -99.11,-14.77 -140.81,13.91c-8.57,5.9 -18.43,10.73 -21.91,10.73c-4.52,0 -6.32,2.06 -6.32,7.19c0,6.09 -1.69,7.24 -11.03,7.5c-13.81,0.39 -20.2,5.55 -20.2,16.3c0,4.6 -1.69,10.05 -3.75,12.11c-5.5,5.5 -21.24,4.8 -21.24,-0.93c0,-2.58 -2.64,-7.32 -5.86,-10.55c-3.22,-3.22 -6.55,-7.78 -7.42,-10.15c-1.79,-4.93 -9.26,-0.32 -33.27,12.05l-6.39,-6.81c-8.13,-8.65 -8.19,-20.99 -0.15,-28.27c14.23,-12.88 0.24,-35.29 -19.7,-31.55c-16.68,3.13 -22.1,11.53 -23.51,36.46c-0.67,11.9 -2.41,21.64 -3.87,21.64c-5.25,0 -15.39,13.82 -13.8,18.82c1.86,5.85 -9.78,12.41 -22.03,12.41c-5.58,0 -7.67,-1.7 -7.67,-6.25c0,-4.22 2.09,-6.24 6.44,-6.24c3.53,0 5.56,1.4 4.5,3.12c-4.2,6.79 14.05,1.07 14.05,-3.36c0,-1.48 -2.39,-1.77 -5.31,-0.65c-7.08,2.71 1.07,-6 13.03,-22.75c2.25,-3.15 -0.38,-7.17 -10.15,-15.53c-7.25,-6.21 -13.19,-12.59 -13.19,-14.17c0,-1.58 5.63,-2.88 12.5,-2.88c9.02,0 12.49,1.3 12.49,4.68c0,6.02 5.04,6.08 7.34,0.09c2.33,-6.06 -6.03,-14.15 -14.59,-14.12c-12.52,0.03 -20.93,11.13 -29.63,6.14c-2.91,-1.67 -9.15,-4.41 -13.87,-6.08c-4.73,-1.68 -8.59,-5.19 -8.59,-7.81c0,-6.31 -13.67,-6.26 -20,0.06c-7.05,7.06 -39.21,14.54 -52.53,21.94c-7.61,4.23 -9.48,4.21 -17.96,-0.17c-5.2,-2.69 -9.45,-6.12 -9.45,-7.63c0,-4.73 -18.86,-9.75 -24.77,-6.59c-9.69,5.19 -14.12,12.45 -10.08,16.49c5.75,5.75 4.21,18.51 -3.17,26.37c-5.23,5.56 -10.17,7.23 -21.41,7.23c-13.82,0 -14.78,0.56 -17.52,10.15c-2.65,9.29 -4.08,10.23 -16.85,11.07c-8.29,0.55 -16.33,-0.83 -19.83,-3.38c-5.63,-4.12 -5.65,-4.66 -0.43,-12.62c3.43,-5.24 5.93,-16.54 6.74,-30.55c1.28,-22.16 1.26,-22.23 -6.21,-20.35c-4.22,1.06 -15.43,-0.84 -25.56,-4.33c-21.53,-7.41 -57.33,-8.25 -75.66,-1.79c-38.41,13.56 -61.8,43.98 -49.83,64.83c6.2,10.81 2.28,13.88 -7.21,5.64c-3.92,-3.39 -8.97,-6.18 -11.23,-6.18c-5.34,0 -10.56,-9.96 -10.56,-20.17c0,-5.56 2.24,-8.94 7.16,-10.81c28.56,-10.86 9.42,-42.66 -20.68,-34.35c-7.18,1.98 -13.23,6.45 -16.71,12.36c-4.6,7.77 -7.44,9.25 -17.82,9.25c-7.1,0 -14.78,2.19 -18.06,5.15c-5.34,4.84 -6.17,4.64 -13.37,-3.12c-4.48,-4.83 -11.02,-8.28 -15.72,-8.28c-4.43,0 -8.89,-2.16 -9.9,-4.8c-3.15,-8.19 -18.72,-13.94 -37.63,-13.88c-14.05,0.04 -21.79,2.08 -34.5,9.09c-9.01,4.97 -17.17,7.75 -18.14,6.19c-2.5,-4.04 -18.2,-3.53 -22.46,0.74c-2.69,2.69 -8.13,2.3 -21.91,-1.56c-23.51,-6.6 -41.15,-6.51 -62.83,0.32c-23.4,7.37 -31.96,15.83 -33.96,33.57c-1.79,15.91 1.09,17.25 10.16,27.5l-10.86,-2.1c-14.48,-2.8 -37.65,-14.21 -39.7,-19.55c-0.9,-2.36 -0.57,-6.75 0.74,-9.75c2.26,-5.21 2.44,-5.21 3.68,0c1.67,6.96 7.1,7.15 7.1,0.24c0,-8.91 9.66,-16.64 20.78,-16.64c7.21,0 10.45,-1.45 10.45,-4.68c0,-3.23 -3.16,-4.66 -10.15,-4.59c-10.89,0.11 -18.08,4.28 -23.13,13.42c-2.94,5.31 -3.53,5.14 -8.43,-2.34c-6.4,-9.76 -16.87,-10.45 -27.82,-1.84c-6.48,5.11 -8.21,5.42 -9.62,1.74c-0.95,-2.47 -7.45,-6.2 -14.46,-8.3c-16.9,-5.06 -41.29,0.43 -56.65,12.76c-7.69,6.16 -12.31,8.04 -14.48,5.86c-5.33,-5.33 -17.57,-1.57 -21.66,6.66c-2.12,4.27 -7.42,8.71 -11.78,9.88c-11.9,3.18 -12.09,-1.61 -0.32,-7.95c7.59,-4.09 9.95,-7.19 8.82,-11.54c-1.89,-7.22 -15.18,-7.9 -24,-1.22c-5.07,3.83 -5.44,5.73 -2.41,12.39c1.97,4.32 2.49,7.86 1.15,7.86c-4.69,0 -9.93,-7.56 -9.93,-14.35c0,-10.23 -19.3,-15.07 -27.48,-6.89c-2.92,2.92 -4.58,2.92 -7.5,0c-4.83,-4.83 -21.78,-4.56 -41.54,0.65c-14.21,3.75 -15.52,4.86 -14.61,12.36c1.42,11.61 -3.8,10.25 -7.38,-1.92c-4.05,-13.75 -19.63,-15.99 -30.4,-4.37c-9.39,10.14 -28.29,13.92 -35.17,7.04c-9.29,-9.29 -26.43,-3.6 -26.43,8.76c0,5.74 2.17,7.74 10.12,9.33c5.95,1.19 10.57,0.71 11.19,-1.17c0.59,-1.76 4.23,-3.19 8.08,-3.19c5.24,0 6.96,1.75 6.77,6.93c-0.4,11.11 9.19,10.47 13.91,-0.93c3.36,-8.13 4.7,-9.08 7.46,-5.34c7.46,10.1 16.45,12.19 28.26,6.56c10.88,-5.19 11.26,-5.15 15.95,1.54c7.27,10.38 19.76,9.08 24.14,-2.52c3.75,-9.93 11.53,-12.22 17.43,-5.11c2.86,3.45 2.04,3.97 -4.3,2.76c-4.58,-0.88 -7.84,-0.05 -7.84,1.99c0,2.09 6.12,3.49 15.3,3.49c10.57,0 19.49,2.4 28.89,7.77c16.31,9.32 49.79,11.05 61.08,3.14c6.28,-4.4 7.15,-4.09 13.4,4.68c4.64,6.52 9.3,9.39 15.22,9.39c11.41,0 16.02,-5.28 16.02,-18.34c0,-20.19 18.13,-29.36 30.92,-15.63c4.49,4.82 8.78,6.25 15.74,5.23c6.38,-0.94 9.56,-0.09 9.56,2.55c0,7.89 -6.89,7.87 -23.12,-0.07c-19.65,-9.61 -23.42,-10.13 -16.27,-2.23c4.7,5.18 4.75,6.07 0.49,7.71c-6.35,2.43 -6.38,21.9 -0.05,28.23c9.63,9.63 16.23,-0.06 14.13,-20.72c-0.82,-8.06 4.63,-6.68 15.45,3.9c24.06,23.52 30.85,-5.87 14.84,-6.2c-1.29,-0.02 -2.35,-2.64 -2.35,-5.81c0,-4.54 2.76,-3.13 13.03,6.63c17.59,16.73 30.22,21.41 58.07,21.52c26.27,0.1 37.16,-5.17 42.26,-20.45c2.32,-6.96 1.62,-9.95 -3.56,-15.48c-6.99,-7.43 -5.82,-11.64 4.78,-17.22c9.02,-4.75 9.34,-4.66 11.36,3.05c0.96,3.66 -0.45,9.98 -3.12,14.06c-9.82,15 8.67,3.98 12.32,-5.77c1.11,-2.96 5.59,-6.27 9.96,-7.37c4.37,-1.09 7.94,-3.24 7.94,-4.77c0,-3.17 12.64,-3.74 20.03,-0.9c3.3,1.27 4.33,4.2 3.14,8.96c-2.1,8.34 4.11,11.69 14.95,20.22l-8.25,3.77c-11.64,5.3 -24,0.24 -30.35,-12.42c-4.99,-9.96 -10.87,-9.35 -7,0.72c1.19,3.12 0.24,4.97 -2.57,4.97c-4.95,0 -16.39,11.41 -18.8,18.74c-1.92,5.85 2.88,15.62 7.68,15.62c5.8,0 18.05,-13.09 18.05,-19.29c0,-13.03 10.42,0.39 18.86,10.11l13.49,-7.91c15.35,-8.99 28.78,-10.67 25.76,-3.22c-1.04,2.58 -2.74,6.8 -3.79,9.37c-1.13,2.81 -0.19,4.67 2.34,4.64c7.81,-0.09 12.61,-5.28 11.54,-12.48c-1.04,-7.09 -4.73,-10.19 -16.67,-14c-5.94,-1.9 -5.96,-2.16 -0.55,-5.19c4.23,-2.38 7.09,-1.93 11.18,1.77c3.01,2.73 7.19,4.96 9.27,4.96s9.19,5.86 15.8,13.02c11.49,12.44 12.81,13.01 30.32,12.94c53.37,-0.2 56.33,-40.04 66.58,-27.69c5.3,6.39 12.35,2.18 18.64,-11.14c10.19,-21.58 21.69,-9.58 19.34,20.16c-0.87,10.94 -0.31,11.91 6.37,11.17c4.03,-0.45 18.99,2.95 33.25,7.54c28.76,9.27 34.3,9.81 51.52,5.03c15.39,-4.28 20.78,-15.89 13.42,-28.94c-8.26,-14.66 -6.42,-22.91 7.12,-31.87c9.15,-6.05 14.23,-7.48 20.79,-5.83c6.26,1.57 9.71,0.77 12.36,-2.85c5.15,-7.05 24.18,-3.54 33.26,6.13c6.78,7.21 6.91,8.38 3.31,29.35c-5.11,29.83 -4.96,31.09 3.82,31.09c4.15,0 16.42,2.27 27.26,5.05c34.93,8.95 69.61,1.54 93.55,-19.98c8.41,-7.57 15.3,-12.09 15.3,-10.04s2.96,7.87 6.58,12.95c5.29,7.43 8.51,9.06 16.4,8.29c9.3,-0.9 9.86,-1.71 10.75,-15.5c1.07,-16.6 6.44,-20.49 17.02,-31.91c5.29,7.26 10.81,16.79 19.83,16.79c6.48,0 7.49,-1.35 6.9,-9.19c-1.37,-17.88 16.15,-26.58 40.42,-20.08c9.77,2.62 9.62,15.44 -0.21,17.91c-17.59,4.42 -18.54,34.05 -1.48,46.71c10.47,7.77 38.09,10.5 53.8,5.31c11.41,-3.76 26.75,-16.42 26.75,-22.07c0,-4.52 8.12,-3.56 12.29,1.47c2.98,3.59 2.36,4.64 -3.28,5.46c-9.96,1.46 -11.4,8.83 -1.72,8.83c4.29,0 8.36,-1.66 9.03,-3.69c0.85,-2.53 6.05,-1.33 16.66,3.86c23.39,11.43 56.61,12.23 82.84,1.99c11.02,-4.31 23.51,-7.61 27.76,-7.34c8.86,0.57 8.44,-3.39 11.02,-17.37c7.28,8.07 10.35,13.19 23.12,13.13c12.99,-0.05 16.74,-2.03 21.7,-11.45c8,-15.2 0.57,-20.97 -9.37,-31.55l11.13,-8.49c10.96,-8.36 20.51,-8.76 20.62,-0.87c0.09,6.74 14.41,18.06 22.84,18.06c14.8,0 12.4,-11.56 10.89,-25.93l15.9,1.89c26.67,3.16 41.66,20.33 23.71,27.16c-4.29,1.63 -7.97,5.46 -8.17,8.51c-1.44,22.19 6.5,29.12 32.73,28.61c30.24,-0.59 27.34,-5.25 23.41,-29.31c17.65,20.51 19.71,21.71 12.75,22.86c-7.84,1.29 -7.87,11.25 -0.04,19.08c7.23,7.23 33.36,11.85 40.79,7.21c3.69,-2.3 10.09,-1.93 22.13,1.26c10.78,2.86 29.13,4.25 50.44,3.82c28.72,-0.59 34.4,0.14 39.84,5.05c5.26,4.77 7.66,5.13 14.2,2.15c6.27,-2.86 7.47,-5.12 5.95,-11.2c-3.86,-15.38 13.71,-6.47 38.99,-42.04c9.97,-14.03 12.94,-50.52 5.3,-65.28c-6.93,-13.41 -28.64,-29.27 -33.92,-29.27zm-1688.44,76.85c-12.88,4.09 -21.42,-7.3 -12.31,-16.41c4.09,-4.09 12.72,-4.99 16.03,-1.67c4.39,4.38 1.93,16.28 -3.72,18.08zm65.15,-21.23c-8.65,2.88 -12.12,4.95 -21.86,5.39c-6.83,0.32 -7.71,1.64 -7.02,10.51c0.82,10.5 -2.38,13.04 -7.86,6.25c-4.73,-5.87 0.99,-17.58 10.31,-21.13l0,0c11.36,-4.32 31.9,-2.85 26.43,-1.02zm12.24,12.26c-0.35,8.47 -4.08,-1.66 -1.64,-4.1c1.04,-1.04 1.78,0.81 1.64,4.1zm16.45,13.67c-7.49,-6.98 -8.94,-18.38 -3.08,-24.24l0,0c7.65,-7.65 10.89,-4.22 5.51,5.83c-1.99,3.71 -2.07,6.04 -0.23,6.04c1.65,0 5.11,4.22 7.68,9.37c5.65,11.32 0.67,12.83 -9.88,3zm29.71,12.11c-14.9,-1.82 -9.11,-7.36 6.58,-6.3c12.46,0.85 16.23,-0.3 23.65,-7.18c9.63,-8.91 7.34,-14.34 7.24,-14.27c-1.84,-7.04 3.39,-8.37 6.02,-1.53c5.02,13.08 -22.81,31.82 -43.49,29.28zm126.17,-24.15c-5.05,6.19 -6.82,6.77 -10.23,3.36c-3.42,-3.4 -3.1,-4.87 1.84,-8.51c5.62,-4.15 5.19,-4.75 -7.32,-10.36c-14.75,-6.6 -23.34,-5.71 -29.47,3.06c-2.25,3.21 -5.01,4.91 -6.14,3.79c-3.17,-3.17 -14.57,8.61 -14.57,15.06c0,3.17 -1.41,5.76 -3.12,5.76c-6.81,0 -2.63,9.02 4.6,9.95c5.85,0.74 7.04,2.08 4.91,5.49c-2.28,3.65 -4.35,3.81 -10.85,0.85c-15.39,-7.01 -8.18,-31.02 13.65,-45.47l0,0c22.55,-14.92 47.56,-13.65 58.48,2.97c3.8,5.78 3.59,7.48 -1.78,14.05zm-28.41,34.03c-4.13,0 -4.13,-6.25 0,-6.25c4.13,0 4.12,6.25 0,6.25zm180.56,-2.93c-1.83,5.48 -10.01,8.14 -8.2,2.73c1.83,-5.48 10,-8.15 8.2,-2.73zm153.62,-51.51c0,2.45 -0.53,4.46 -1.18,4.46c-2.94,0 -23.81,-9.61 -23.81,-10.97l0,0l0,0l0,0c0,-0.83 2.46,-1.33 5.47,-1.09c13.32,1.03 19.52,3.45 19.52,7.6zm-197.09,53.17c-5.15,4.66 -11.09,5.9 -27.33,5.73c-43.34,-0.47 -79.15,-30.05 -65.63,-54.22l0,0c4.47,-7.99 18.33,-13.04 18.33,-6.68c0,1.84 -2.11,3.34 -4.68,3.34c-5.68,0 -6.2,5.02 -0.78,7.55c3.12,1.46 3.12,2.18 0,3.64c-6.2,2.9 -4.55,15.86 3.12,24.44c7.56,8.46 24.2,14.29 24.2,8.48c0,-1.9 4.5,-0.68 10.15,2.77c17.75,10.82 47,5.68 41.99,-7.39c-1.28,-3.33 -0.36,-5.13 2.62,-5.13c6.78,0 5.56,10.63 -1.99,17.47zm90.28,-23.72c-7.65,0 -7.15,-8.24 0.62,-10.27c8.33,-2.18 7.87,-6.56 -1.7,-16.14c-11.13,-11.12 -25.36,-10.58 -40.62,1.55c-10.75,8.54 -12.25,8.96 -14.92,4.18c-1.96,-3.51 -1.76,-7.25 0.59,-11.01c5.01,-8.03 4.58,-8.91 -4.38,-8.91c-11.03,0 -30.75,10.63 -38.92,20.99c-5.84,7.41 -6.11,8.83 -1.85,9.69c8.04,1.63 6.1,10.51 -2.05,9.36c-5.11,-0.73 -7.3,-3.44 -8.05,-9.95c-1.41,-12.34 12.2,-25.87 31.92,-31.73l0,0c20.83,-6.18 32.93,-5.77 63.67,2.17c14.02,3.62 28.8,17.57 28.8,27.19c0,6.98 -6.01,12.88 -13.11,12.88zm18.57,-35c-3.81,3.16 -14.83,-1.84 -14.83,-6.73c0,-2.57 28.6,-4.7 14.83,6.73zm25.62,-1.86c-7.64,-1.27 -12.92,9.41 -11.74,23.72c0.78,9.3 2.11,11.38 6.76,10.58c3.68,-0.63 5.3,0.51 4.43,3.13c-1.88,5.64 -11.12,7 -16.62,2.43c-5.5,-4.57 -5.76,-23.82 -0.45,-33.37c7.49,-13.48 33.97,-26.67 36.39,-25.86c13.95,-3.88 18.3,-3.74 29.23,0.93c8.15,3.49 7.37,3.77 -10.42,3.77c-16.75,0 -20.05,1.01 -25.56,7.81c-3.51,4.32 -8.87,7.38 -12.02,6.86zm32.95,27.49c-7.99,0 -4.87,-14.76 2.6,-7.29c3.59,3.6 2.28,7.29 -2.6,7.29zm-7.22,36.49c-3.83,1.53 -6.25,-0.25 -5.99,-0.25c-2.48,-2.48 11.79,-2.07 5.99,0.25zm-22.41,-43.39c-0.03,-1.83 8.24,-10.15 8.52,-10.15c7.83,-7.27 22.67,-11 22.67,-5.71c0,1.22 -3.6,5.1 -8,8.61c-8.88,7.07 -8.01,15.17 2.19,20.63c7.7,4.12 15.98,-3.53 14.6,-13.48c-1.31,-9.42 2.5,-5.55 18.54,-4.42c13.22,0.92 6.42,11.69 -13.9,21.98c-21.96,11.11 -44.24,2.4 -44.62,-17.46zm83.07,20.87c-6.27,9.56 -28.85,22.2 -43.8,24.51c-16.69,2.59 -8.73,-3.3 1.29,-4.64c5.88,-0.79 7.74,-2.83 7.54,-8.28c-0.23,-6.16 0.87,-6.96 7.36,-5.33c10.24,2.57 21.97,-5.51 27.62,-19.05c11.53,-27.58 -16.3,-9.29 -13.83,-22.26l0,0c1.59,-8.33 13.92,-8.69 18.29,-0.54c4.3,8.05 2.1,25.55 -4.47,35.59zm40.25,-29.59c-2.95,-4.77 -10.93,-3.71 -10.93,1.46c0,2.51 -2.93,6.14 -6.52,8.06c-4.89,2.62 -6.04,5.38 -4.62,11.04c1.07,4.29 0.52,7.55 -1.29,7.55c-4.13,0 -4.11,-14.3 0.03,-22.03c1.77,-3.31 7.32,-8.13 12.34,-10.73c-0.12,0 9.24,-4.69 10.06,-4.47c5.8,1.53 8.74,4.16 8.74,7.82c0,5.1 -4.95,5.92 -7.81,1.3zm626.47,42.61c3.41,-2.95 18.47,-4.91 18.47,-2.4c0,3.29 -15.51,7.79 -18.06,5.23c-0.94,-0.94 -1.13,-2.22 -0.41,-2.83zm-66.03,-13.12c8.03,8.55 5.52,10.66 -4.05,3.41l0,0c-7.53,-5.71 -6.14,-14.26 4.05,-3.41zm-240.31,-45.1c4.13,0 4.13,6.24 0,6.24c-4.13,0 -4.13,-6.24 0,-6.24zm-3.89,17.18c1.41,-7.37 10.14,-11.4 10.14,-4.69c0,1.72 -1.41,3.12 -3.12,3.12c-1.72,0 -3.13,2.11 -3.13,4.69c0,5.87 -5.94,7.64 -3.89,-3.12zm-49.2,42.16c4.13,0 4.12,6.25 0,6.25c-4.13,0 -4.13,-6.25 0,-6.25zm-12.76,1.73c1.63,-1.01 3.78,-0.5 4.79,1.13s0.49,3.78 -1.14,4.78c-1.62,1.01 -3.78,0.5 -4.78,-1.13s-0.5,-3.78 1.13,-4.78zm-169.51,17.01c-11.98,-0.01 -39.4,-8.25 -44.54,-13.39c-1.22,-1.23 -5.51,-2.23 -9.51,-2.23c-5.01,0 -7.29,-1.81 -7.29,-5.76c0,-3.18 -2.34,-10.45 -5.19,-16.17c-4.44,-8.9 -4.64,-12.44 -1.37,-24.68c2.9,-10.82 9.56,-21.32 10.42,-21.32c10.65,-11.34 33.62,-8.24 33.62,4.53c0,2.23 -1.41,4.06 -3.13,4.06c-1.71,0 -3.12,-1.31 -3.12,-2.91c0,-3.88 -11.56,-7.4 -15.77,-4.8c-2.13,1.32 -1.3,3.61 2.31,6.35c3.11,2.36 4,4.33 1.97,4.39c-15.44,0.41 -24.39,43.46 11.49,47.8c9.69,1.17 10.13,1.59 3.91,3.72c-3.87,1.32 -7.03,3.5 -7.03,4.85c0,3.59 18.14,9.32 29.35,9.26c11.2,-0.05 15.59,-2.46 18.41,-10.1c2.54,-6.9 8.04,-7.05 10.64,-0.29c3.07,8 -10.03,16.69 -25.17,16.69zm43.29,-68.71c-1.07,1.72 -2.56,3.12 -3.31,3.12c-0.76,0 -1.38,-1.4 -1.38,-3.12c0,-4.18 7.26,-4.16 4.69,0zm42.37,-18.74c-10.27,0 -22.07,9.29 -22.07,17.36c0,6.2 -7.38,2.91 -5.2,-5.41c2.23,-8.55 -4.5,-10.08 -18.53,-4.22c-14.73,6.15 -21.78,12.36 -27.83,24.49c-6.14,12.3 -5.89,14.63 1.59,14.63c7.39,0 8.39,7.88 1.33,10.58c-8.75,3.36 -16.95,-3.71 -16.92,-14.6c0.03,-13.08 17.34,-31.66 38.82,-41.66l0,0c21.23,-9.88 57.42,-9.87 84.52,0.04c19.22,7.03 20.23,8.4 20.55,27.93c0.12,7.19 -5.86,14.58 -11.79,14.58c-3.79,0 -3.72,-0.79 0.39,-4.9c6.18,-6.19 6.29,-15.04 0.25,-20.05c-3.76,-3.13 -5.01,-2.9 -6.58,1.18c-1.06,2.77 -4.04,5.03 -6.61,5.03s-3.99,-1.81 -3.14,-4.03c3.48,-9.07 -12.84,-20.95 -28.78,-20.95zm36.9,37.48c-4.05,0 -0.37,-6.25 3.86,-6.25c4.05,0 0.37,6.25 -3.86,6.25zm104.34,31.15c-24,21.12 -54.29,26.64 -92.93,16.94l-19.92,-5c2.84,-18.77 3.48,-30.22 13.68,-26.3c3.44,1.32 4.5,3.85 3.1,7.44c-3.94,10.11 -3.24,11.68 5.2,11.68c4.62,0 10.18,1.76 12.33,3.91c4.66,4.63 33.26,5.18 44.64,0.86c9.5,-3.62 10.75,-12.57 1.76,-12.57c-4.65,0 -6.25,-2.09 -6.25,-8.18c0,-8.16 0.02,-8.17 19.56,-6.07c18.73,2 19.92,1.71 28.23,-6.96c11.88,-12.4 14.38,-29.07 5.66,-37.78c-3.63,-3.63 -6.6,-7.3 -6.6,-8.16c0,-3.25 5.81,-1.36 12.53,4.08c5.29,4.28 6.92,8.81 6.78,18.84c-0.22,16.14 -8.6,30.4 -27.77,47.27zm45.76,-12.41c-4.57,0 0.35,-6.25 1.93,-6.25c1.56,0 2.67,6.25 -1.93,6.25zm16.1,-18.65c-12.76,11.25 -17.17,9.91 -4.88,-1.48c11.55,-10.71 18.96,-10.93 4.88,1.48zm71.17,-28.2c-23.06,0 -41.2,13 -43.88,31.46c-1.29,8.86 -1.18,7.42 -11.47,-12.68l11.28,-9.3c23.66,-19.5 -5.04,-13.72 -30.05,6.05c-16.71,13.21 -23.76,26.44 -21.68,40.64c1.61,10.93 -1.99,12.35 -7.11,2.79c-4.55,-8.51 -1.77,-22.18 6.87,-33.87c5.93,-8.02 6.25,-9.9 2.44,-14.48c-3.94,-4.75 -3.65,-5.04 3,-2.93c11.89,3.78 27.06,-10.53 55.04,-17.69c-0.11,0 15.76,-4.17 19.02,-8.36c2.88,-3.7 3.7,-3.61 5.31,0.59c1.04,2.73 7.79,6.54 14.99,8.48c15.55,4.19 29.74,19.27 41.39,30.27c-13.7,19.24 -15.59,23.78 -23.17,14.65c-4.63,-5.58 -2.29,-6.41 11.18,-16.93c-14.78,-13.54 -18.42,-18.69 -33.16,-18.69zm77.06,61.05c-16.9,25.8 -64.54,27.75 -76.35,3.13c-4.44,-9.25 -2.28,-17.21 5.36,-19.76c2.75,-0.91 2.9,0.89 0.58,7c-2.65,6.96 -1.95,9.42 4.51,15.89c7.49,7.48 23.55,10.62 23.55,4.6c0,-1.73 4.12,-2.22 9.51,-1.14c7.32,1.46 11.27,0.24 17.18,-5.31c8.66,-8.14 10.19,-18.61 2.72,-18.61c-2.71,0 -4.36,-1.76 -3.64,-3.91l-0.01,0c2.37,-7.12 11.24,-5.96 16.56,2.15c4.9,7.48 4.9,8.53 0.03,15.96zm145.77,4.54c-2.22,0 -12.77,3.67 -23.45,8.17c-24.46,10.29 -51.68,9.37 -77.51,-2.62c-20.84,-9.67 -27.58,-15.66 -38.21,-33.94c-10.06,-17.28 -10.81,-34.67 -2.13,-48.91c-0.1,-0.07 5.36,-10.15 13.66,-10.15c9.01,0 15.9,7.41 13.27,14.27c-2.21,5.77 -9.72,4.39 -9.72,-1.78c0,-7.84 -7.76,-6.76 -10.91,1.51c-10.06,26.46 6.82,59.94 36.48,72.33c13.9,5.81 16.24,3.51 8.97,-8.79c-5.7,-9.65 -5.69,-9.74 1.72,-15.45c4.11,-3.16 8.87,-5.74 10.59,-5.74c1.72,0 6.64,7.34 10.93,16.32c11.41,23.87 30.88,27.91 48.68,10.11c9.57,-9.57 9.51,-13.48 -0.27,-17.2c-9.04,-3.43 -9.77,-6.95 -2.9,-13.83c6.02,-6.02 10.48,-6.07 18.25,-0.18c7.25,5.48 9.41,35.88 2.55,35.88zm-122.53,-34.36c0,-1.72 0.62,-3.12 1.38,-3.12c0.76,0 2.25,1.4 3.31,3.12c2.57,4.16 -4.69,4.17 -4.69,0zm-6.24,-18.74c-1.72,0 -3.13,-2.11 -3.13,-4.68c0,-2.58 1.41,-4.69 3.13,-4.69c1.71,0 3.12,2.11 3.12,4.69c0,2.57 -1.41,4.68 -3.12,4.68zm3.12,7.99c0,2.68 -1.41,4 -3.12,2.94c-1.72,-1.06 -3.13,-3.25 -3.13,-4.87c0,-3.56 6.25,-4.84 6.25,1.93zm206.96,-20.09c-5.14,5.18 -9.25,1.1 -1.75,-1.75c4.45,-1.7 4.81,-1.34 1.75,1.75zm78.81,8.98c-1.06,1.72 -2.55,3.12 -3.31,3.12s-1.37,-1.4 -1.37,-3.12c0,-4.18 7.25,-4.15 4.68,0zm7.62,3.12c4.24,0 7.03,5.51 3.8,7.51c-5.5,3.4 -9.86,-7.51 -3.8,-7.51zm10.95,12.22c1.68,2.72 -2.92,15.89 -5.55,15.89c-0.45,0 -0.75,-3.4 -0.67,-7.55c0,-7.12 2.88,-13.74 6.22,-8.34zm22.05,22.51l-2.14,19.93c-14.98,0.64 -43.16,4.09 -43.16,-10.86c0,-8.8 4.66,-10.12 11,-3.12c7.77,8.59 10.09,7.82 15.5,-5.14c6.74,-16.11 5.87,-27.46 -2.88,-37.86c-21.29,-25.3 -72.86,-19.14 -69.98,8.35c1.2,11.44 -1.5,12.26 -10.9,3.34c-10.73,-10.19 -10.45,-16.98 1.04,-25.48c13.04,-9.64 11.79,-13.18 -3.9,-11.02c-16.4,2.26 -32.05,9.85 -38.1,18.47c-3.72,5.32 -5.43,5.82 -9.18,2.7c-3.74,-3.1 -5.86,-2.59 -11.16,2.71c-5.18,5.19 -6.29,9.46 -5.33,20.6c1.45,16.84 2.76,18.53 10.96,14.15c9.15,-4.9 16.78,-1.07 14.22,7.13c-2.63,8.45 -6.92,11.23 -17.35,11.29c-12.76,0.08 -24.48,-15.71 -24.48,-32.98c0,-7.6 -1.41,-13.82 -3.13,-13.82s-3.12,-1.4 -3.12,-3.12c0,-1.72 2.67,-3.12 5.93,-3.12c3.26,0 13.21,-4.9 22.1,-10.88c13.05,-8.78 35.17,-17.18 36.56,-17.18c23.65,-7.3 45.64,-7.74 69.3,-1.37c19.79,5.32 37.89,13.48 37.89,17.08c0,1.41 2.61,3.39 5.8,4.4c10.54,3.35 16.91,23.43 14.51,45.8zm-154.62,-17.97c0,4.51 -7.83,-3.72 -5.77,-5.78c2.08,-2.08 5.77,1.61 5.77,5.78zm148.83,-31.12c-0.21,0 -5.61,-8.09 -4.58,-9.12c2.62,-2.62 16.61,6.81 17.58,11.85c1.54,8 -6.39,6.33 -13,-2.73zm127.14,72.75c3.52,3.51 2.14,7.2 -2.69,7.2c-2.57,0 -4.68,-1.32 -4.68,-2.94c0,-3.94 4.88,-6.76 7.37,-4.26zm-16.93,-2.17c4.24,0 7.03,5.51 3.8,7.51c-5.48,3.38 -9.88,-7.51 -3.8,-7.51zm-7.92,-0.83c3.76,3.76 1.7,7.07 -4.38,7.07c-3.44,0 -6.25,-1.25 -6.25,-2.78c0,-3.51 8.12,-6.79 10.63,-4.29zm-18.44,-2.29c6.26,0 6.24,6.64 0,4.25c-2.57,-0.99 -4.68,-2.35 -4.68,-3.03c0,-0.67 2.11,-1.22 4.68,-1.22zm-39.04,-19.47c-3.43,-2.14 -6.24,-4.97 -6.24,-6.27c0,-3.57 4.51,-2.86 8.74,1.38c5.97,5.97 4.34,9.16 -2.5,4.89zm-6.24,-21.14c4.13,0 4.13,6.25 0,6.25c-4.13,0 -4.14,-6.25 0,-6.25zm-1.57,-9.37c1.07,-1.71 2.55,-3.12 3.31,-3.12c0.76,0 1.38,1.41 1.38,3.12c0,4.18 -7.25,4.15 -4.69,0zm16.98,78.08c-5.34,0 -15.41,-6.19 -15.41,-9.48c0,-3.73 2.69,-3.55 11.71,0.8c7.3,3.52 9.49,8.68 3.7,8.68zm61.38,-0.83c-45.89,-2.74 -80.51,-19.99 -94.53,-47.11c-6.54,-12.63 -2.38,-25.08 -0.05,-55.14c0.59,-7.55 1.42,-7.84 24.03,-8.33c12.89,-0.27 25.19,0.21 27.35,1.07c7.25,2.9 0.5,7.28 -11.22,7.28c-32.62,0 -44,36.89 -19.98,64.81c9.92,11.53 16.35,13.07 16.35,3.9c0,-9.59 8.81,-7.51 9.94,2.34c0.74,6.45 4.11,10.15 13.48,14.84c10.7,5.35 18.2,6.18 52.31,5.83c31.15,-0.33 39.83,0.48 39.83,3.71c0,5.94 -24.1,8.79 -57.51,6.8zm114.53,-46.78c-3.33,6.43 -13.65,17.84 -22.95,25.34c-9.29,7.51 -18.22,16.99 -19.84,21.08c-1.62,4.09 -4.08,7.44 -5.46,7.44c-7.14,0 4.81,-23.11 16.1,-31.15c7.08,-5.04 9,-8.06 6.62,-10.44s-6.19,-1.23 -13.19,3.94c-14.43,10.67 -29.34,13.2 -43.77,7.42c-13.43,-5.37 -15.13,-8.82 -5.58,-11.32c5.48,-1.44 5.87,-2.56 2.66,-7.7c-3.74,-6 -1.77,-22.6 2.68,-22.56c1.26,0.01 4.63,4.14 7.49,9.18c5.66,9.94 21.15,14.95 35.29,11.4c27.71,-6.95 30.79,-54.79 4.13,-64.09c-4.84,-1.68 -9.63,-5.24 -10.65,-7.9c-2.12,-5.53 -6.92,-6.11 -13.68,-1.64c-3.97,2.63 -3.52,4 2.97,9.03c6.53,5.06 7.05,6.66 3.52,10.91c-10.51,12.66 -31.76,-1.7 -16.64,-19.5l0.01,0c15.31,-18.04 58.65,-5.63 72.37,20.71c5.82,11.18 4.76,36.61 -2.08,49.85z" filter="url(#svg_68_blur)" id="svg_68"/>
  <path d="m78.26,2081.34c-1.61,0 -3.81,1.41 -4.87,3.13c-2.56,4.14 7.81,4.16 7.81,0c0,-1.72 -1.32,-3.13 -2.94,-3.13z" filter="url(#svg_72_blur)" id="svg_72"/>
  <path d="m1670.39,2074.21c13.45,-9.67 15.46,-10.29 18.62,-5.76c3.17,4.57 4.18,4.34 9.89,-2.29c8.99,-10.42 8.36,-16.67 -1.43,-14.21l-7.79,1.95c2.45,-5.86 9.7,-21.08 7.41,-27.04l-0.01,0c-2.57,-6.69 -5.44,-6.13 -16.57,3.23c-10.26,8.64 -13.35,23.15 -4.92,23.15c8.59,0 4.83,5.38 -11.74,16.79c-18.03,12.42 -21.06,13.43 -21.06,7.01c0,-2.36 -2.26,-6.18 -5.02,-8.47c-4.27,-3.54 -5.67,-3.28 -9.35,1.74c-3.69,5.06 -3.65,6.65 0.3,11.01c3.68,4.07 3.84,5.95 0.76,9.24c-3.94,4.21 -3.55,4.2 12.94,-0.25c2.65,-0.71 4.56,1.65 4.96,6.16c0.36,4.02 2.64,8.57 5.06,10.1c5.49,3.47 21.81,3.64 27.11,0.27c5.17,-3.28 10.48,-21.77 6.88,-23.99c-5.18,-3.2 -18.75,2.32 -24.9,10.14c-5.08,6.46 -6.48,6.97 -8.04,2.93c-2.55,-6.65 -0.62,-9.13 16.9,-21.71zm6.76,-30.01l0,0c0,-1.78 2.94,-4.81 6.53,-6.73c5.58,-2.99 6.36,-2.68 5.43,2.2c-1.16,6 -11.96,10.1 -11.96,4.53zm-9.34,49.55c10.58,-6.69 16.98,-1.3 7.65,6.44c-3.75,3.11 -5.65,3.17 -8.57,0.26c-2.91,-2.92 -2.7,-4.41 0.92,-6.7z" filter="url(#svg_76_blur)" id="svg_76"/>
  <path d="m1362.14,2047.35c4.54,-0.2 11.56,-3.07 15.62,-6.38c7.91,-6.44 6.65,-7.8 -9.8,-10.63c-3.88,0 -18.44,-4.77 -23.23,6.12c-2.47,5.62 -6.32,6.9 -24.98,8.26c-23.42,1.71 -28.54,0.58 -19.7,-4.37c9.98,-5.58 5.76,-9.34 -9.4,-8.37c-14.58,0.94 -14.81,1.12 -13.89,10.78c0.76,7.94 -0.89,11.13 -8.59,16.61c-12.18,8.67 -12.4,14.25 -0.31,8c5.06,-2.62 14.15,-4.77 20.19,-4.77c7.83,0 11.94,-1.81 14.36,-6.33c4.28,-7.99 10.63,-5.06 6.21,3.2c-4.43,8.28 -3.89,14.42 1.78,20.09c6.23,6.23 15.14,6.28 21.3,0.12c6.38,-6.39 1.29,-17.88 -10.08,-22.74c-6.9,-2.96 -3.92,-3.36 17.45,-2.37c14.17,0.66 25.76,0.03 25.76,-1.4c0,-1.43 -2.46,-3.24 -5.46,-4.03c-3.51,-0.91 -2.52,-1.56 2.77,-1.79zm-34.79,22.54c0,6.07 -2.72,7.85 -9.33,6.12c-3.44,-0.9 -5.16,-3.33 -4.17,-5.9c2.14,-5.58 13.5,-5.76 13.5,-0.22zm25.84,-30.38l0,0c-1.04,-1.04 0.8,-1.78 4.09,-1.64c8.48,0.34 -1.66,4.07 -4.09,1.64z" filter="url(#svg_80_blur)" id="svg_80"/>
  <path d="m660.55,2038.79c-5.57,4.08 -5.37,4.56 3.94,9.37c5.39,2.79 14.79,5.08 20.89,5.08c9.53,0 11.09,-1.03 11.09,-7.29c0,-4.01 -0.94,-8.23 -2.08,-9.37c-3.76,-3.76 -27.83,-2.18 -33.84,2.21zm14.06,5.08c0,-1.72 2.02,-3.13 4.5,-3.13c2.47,0 5.37,1.41 6.43,3.13c2.53,4.09 -10.93,4.17 -10.93,0z" filter="url(#svg_84_blur)" id="svg_84"/>
  <path d="m956.01,2071.97c-7.54,0 -9.97,1.62 -11.48,7.63c-3.9,15.52 6.86,17.18 19.06,2.95c4.96,-5.78 9.9,-7.55 22.65,-8.1c8.96,-0.39 16.3,-1.3 16.3,-2.03c0,-2.93 -11.29,-9.62 -16.4,-9.72c-8.13,-0.14 -6.59,-4.11 3.93,-10.1c9.43,-5.37 9.25,-8.59 9.35,-8.59c0,-1.8 -6.24,-3.27 -13.87,-3.27c-12.91,0 -18.76,3.37 -18.88,10.89c-0.02,1.69 -2.85,3.51 -6.29,4.03c-22.24,3.36 -26.5,8.51 -7.05,8.51c11.76,0 16.53,7.8 2.68,7.8zm-2.06,12.5c-2.68,0 -4,-1.41 -2.94,-3.13c1.06,-1.71 3.25,-3.12 4.87,-3.12c3.55,0 4.83,6.25 -1.93,6.25z" filter="url(#svg_88_blur)" id="svg_88"/>
  <path d="m773.6,2045.43c0.8,4.04 9.25,5.76 15.88,3.22c4.48,-1.72 4.56,-2.41 0.6,-4.97c-5.72,-3.7 -17.31,-2.47 -16.48,1.75z" filter="url(#svg_92_blur)" id="svg_92"/>
  <path d="m2074.64,2108.67c3.91,5.02 34.15,5.14 39.13,0.16c2.06,-2.06 3.75,-11.15 3.75,-20.19c0,-18.63 -2.19,-20.77 -24.99,-24.46c-7.73,-1.25 -16.16,-3.48 -18.73,-4.95c-9.6,-5.49 -22.08,-0.99 -12.94,4.66c3.96,2.45 9.25,38.96 13.78,44.78zm6.97,-41.3c3.94,1.45 24.88,6.74 29.67,7.97l0,30.99l-15.29,0c-16.79,0 -16.74,0.06 -23.59,-25.77l0,0c-4.03,-15.2 -2.44,-17.47 9.21,-13.19z" filter="url(#svg_96_blur)" id="svg_96"/>
  <path d="m2093.95,2103.21c10.93,0 14.2,-3.95 14.2,-17.13c0,-5.73 -2.44,-7.89 -11.71,-10.35c-20.16,-5.35 -20.54,-5.16 -18.25,9.22c2.76,17.25 3.63,18.26 15.76,18.26zm5.87,-19.78c1.15,1.14 2.08,4.66 2.08,7.8c0,3.96 -2.3,5.73 -7.47,5.73c-6.76,0 -11.26,-5.1 -11.26,-12.75c0,-3.28 13.52,-3.92 16.65,-0.78z" filter="url(#svg_100_blur)" id="svg_100"/>
  <path d="m2092.53,2093.84c4.16,0 4.15,-10.37 0,-7.81c-1.71,1.06 -3.12,3.25 -3.12,4.87c0,1.61 1.41,2.94 3.12,2.94z" filter="url(#svg_104_blur)" id="svg_104"/>
  <path d="m1755.45,2073c2.9,-2.9 2.04,-7 1.51,-7c-4.38,-7.08 -13,-2.14 -7.9,6.1c2.11,3.41 3.67,3.63 6.39,0.9z" filter="url(#svg_108_blur)" id="svg_108"/>
  <path d="m394.14,2066.35c-8.01,8.01 -1.93,25.87 7.57,22.22c4.46,-1.71 5.69,-12.45 2.4,-21.02l0,0c-2.26,-5.92 -4.93,-6.23 -9.97,-1.2z" filter="url(#svg_112_blur)" id="svg_112"/>
  <path d="m1133.02,2101.17c3.5,-0.91 7.04,-3.99 7.86,-6.84c0.98,-3.41 3.64,-10.66 3.75,-10.64c1.88,-4.58 0.52,-5.47 -8.39,-5.47c-15.05,0 -17.77,3.92 -14.58,21.01c3.14,16.76 2.42,18.22 -6.6,13.39c-3.68,-1.97 -10.75,-2.69 -15.7,-1.61c-4.95,1.09 -12.05,0.35 -15.77,-1.64c-4.84,-2.59 -7.72,-2.66 -10.13,-0.25c-2.42,2.42 -0.54,4.36 6.59,6.85c8.29,2.89 10.29,5.52 11.9,15.6c2.41,15.01 7.18,19.19 20.45,17.92c13.13,-1.27 15.75,-10.55 5.25,-18.62l-7.36,-5.66c25.18,-0.15 26.3,1.82 18.69,-16.72c-1.72,-4.18 -0.67,-6.09 4.04,-7.32zm-35.94,22.66l0,0c-1.04,-1.04 0.81,-1.77 4.1,-1.64c8.48,0.35 -1.68,4.07 -4.1,1.64zm14.77,12.17c3.25,3.91 2.8,4.69 -2.74,4.69c-9.4,0 -6.91,-9.37 -3.89,-9.37c1.51,0 4.49,2.1 6.63,4.68zm13.27,-49.19l0,0c1.57,-4.7 10.47,-6.89 12.78,-3.15c0.91,1.47 0.48,4.56 -0.95,6.88c-3.17,5.12 -13.67,1.81 -11.83,-3.73z" filter="url(#svg_116_blur)" id="svg_116"/>
  <path d="m887.86,2084.47c-3.11,0 -12.85,4.84 -21.64,10.77c-16.86,11.35 -23.61,11.75 -13.41,0.8c4.94,-5.3 6.56,-12.16 6.06,-12.16c0,-6.52 -5.69,-7.2 -17.03,-2.03c-8.12,3.7 -11.1,15.92 -4.83,19.79c5.22,3.23 3.49,7.81 -2.94,7.81c-12.22,0 -12,12.52 4.26,6.34c8.02,-3.05 8.08,-2.96 6.16,9.05c-2.14,13.35 1.07,15.68 18.28,13.23c10.41,-1.48 11.08,-7.42 1.57,-13.9l-7.03,-4.78l6.78,-2.63c3.73,-1.44 11.88,-9.3 18.1,-17.46c9.33,-12.22 10.33,-14.83 5.67,-14.83zm-43.04,9.37c-5,0 -11.61,-6.25 0,-6.25c11.37,0 5.14,6.25 0,6.25zm14.05,34.35c0,1.72 -2.11,3.13 -4.68,3.13s-4.69,-1.41 -4.69,-3.13c0,-1.72 2.11,-3.12 4.69,-3.12s4.68,1.4 4.68,3.12zm0.07,-19.23c-3.98,-1.33 8.17,-10.11 10.92,-5.67c2.08,3.37 -5.7,7.41 -10.92,5.67z" filter="url(#svg_120_blur)" id="svg_120"/>
  <path d="m1506.86,2081.34c-8.48,0 -13.98,8 -13.98,20.31c0,9.88 -2.82,9.4 -36.7,-6.35c-21.54,-10.01 -30.15,-10.2 -16.1,-0.36c4.66,3.27 5.95,6.47 4.48,11.11c-2.35,7.39 -0.82,7.97 8.22,3.14c3.48,-1.87 9.73,-2.54 13.88,-1.5l7.54,1.9c-14.16,12.43 -19.06,18.28 -29.13,16.36c-9.06,-1.73 -20.9,5.86 -20.9,13.41c0,5.75 17.08,8.66 24.32,4.14c5.14,-3.21 7.27,-2.73 13.47,3.05c10.75,10.01 20.75,11.56 32.1,4.96c12.73,-7.4 14.33,-10.09 14.39,-24.2c0.03,-7.65 -1.6,-12.44 -4.64,-13.6c-5.89,-2.26 -6.17,-10.5 -0.36,-10.5c5.37,0 15.35,-14.69 12.8,-18.83c-1.03,-1.67 -5.26,-3.04 -9.39,-3.04zm-65.7,56.22c-2.67,0 -4,-1.4 -2.94,-3.12s3.26,-3.12 4.87,-3.12c3.57,0 4.84,6.24 -1.93,6.24zm60.1,-13.68c2.52,6.57 -2.1,13.99 -12.35,19.81c-6.88,3.91 -9.19,3.94 -16.09,0.25c-8.6,-4.61 -10.53,-13.02 -4.15,-18.06c0,0.12 3.89,-3.08 17.26,-5.12c10.77,-1.64 13.74,-1.04 15.33,3.12zm-0.81,-27.67c-0.55,0 -1.23,-3.09 1.08,-7.22c2.18,-3.91 3.6,-4.31 5.32,-1.53c2.52,4.07 -3.23,11.92 -6.4,8.75z" filter="url(#svg_124_blur)" id="svg_124"/>
  <path d="m1481.95,2130.19c-2.58,0.98 -4.69,3.75 -4.69,6.14c0,2.4 2.11,4.36 4.69,4.36c2.58,0 4.68,-2.77 4.68,-6.15c0,-4.19 -1.49,-5.58 -4.68,-4.35z" filter="url(#svg_128_blur)" id="svg_128"/>
  <path d="m507.51,2109.45c1.72,0.86 3.57,-3.13 4.12,-8.86l0,0c0.83,-8.64 0.04,-10.23 -4.64,-9.33c-7.71,1.48 -8.59,13.12 -4.82,10.79c1.69,-1.05 2.88,-0.16 2.65,1.97c-0.24,2.13 0.97,4.57 2.69,5.43z" filter="url(#svg_132_blur)" id="svg_132"/>
  <path d="m700,2111.62c6.39,-5 8.93,-9.05 7.32,-11.66c-1.78,-2.89 -5.78,-0.43 -14.47,8.88c-12.65,13.56 -14.6,20.86 -7.97,29.92c3.46,4.74 5.22,4.97 12.49,1.65c9.67,-4.4 8.46,-8.91 8.46,-22.68c-15.97,15.01 -15.61,15.68 -15.61,8.11c0,-3.64 4.35,-9.97 9.78,-14.22z" filter="url(#svg_136_blur)" id="svg_136"/>
 </g>
 <defs>
  <filter id="svg_4_blur">
   <feGaussianBlur id="svg_278" in="SourceGraphic" stdDeviation="1"/>
  </filter>
  <filter id="svg_8_blur">
   <feGaussianBlur id="svg_286" in="SourceGraphic" stdDeviation="1"/>
  </filter>
  <filter id="svg_12_blur">
   <feGaussianBlur id="svg_294" in="SourceGraphic" stdDeviation="1"/>
  </filter>
  <filter id="svg_16_blur">
   <feGaussianBlur id="svg_302" in="SourceGraphic" stdDeviation="1"/>
  </filter>
  <filter id="svg_20_blur">
   <feGaussianBlur id="svg_310" in="SourceGraphic" stdDeviation="1"/>
  </filter>
  <filter id="svg_24_blur">
   <feGaussianBlur id="svg_318" in="SourceGraphic" stdDeviation="1"/>
  </filter>
  <filter id="svg_28_blur">
   <feGaussianBlur id="svg_326" in="SourceGraphic" stdDeviation="1"/>
  </filter>
  <filter id="svg_32_blur">
   <feGaussianBlur id="svg_334" in="SourceGraphic" stdDeviation="1"/>
  </filter>
  <filter id="svg_36_blur">
   <feGaussianBlur id="svg_342" in="SourceGraphic" stdDeviation="1"/>
  </filter>
  <filter id="svg_40_blur">
   <feGaussianBlur id="svg_350" in="SourceGraphic" stdDeviation="1"/>
  </filter>
  <filter id="svg_44_blur">
   <feGaussianBlur id="svg_358" in="SourceGraphic" stdDeviation="1"/>
  </filter>
  <filter id="svg_48_blur">
   <feGaussianBlur id="svg_366" in="SourceGraphic" stdDeviation="1"/>
  </filter>
  <filter id="svg_52_blur">
   <feGaussianBlur id="svg_374" in="SourceGraphic" stdDeviation="1"/>
  </filter>
  <filter id="svg_56_blur">
   <feGaussianBlur id="svg_382" in="SourceGraphic" stdDeviation="1"/>
  </filter>
  <filter id="svg_60_blur">
   <feGaussianBlur id="svg_390" in="SourceGraphic" stdDeviation="1"/>
  </filter>
  <filter id="svg_64_blur">
   <feGaussianBlur id="svg_398" in="SourceGraphic" stdDeviation="1"/>
  </filter>
  <filter id="svg_68_blur">
   <feGaussianBlur id="svg_406" in="SourceGraphic" stdDeviation="1"/>
  </filter>
  <filter id="svg_72_blur">
   <feGaussianBlur id="svg_414" in="SourceGraphic" stdDeviation="1"/>
  </filter>
  <filter id="svg_76_blur">
   <feGaussianBlur id="svg_422" in="SourceGraphic" stdDeviation="1"/>
  </filter>
  <filter id="svg_80_blur">
   <feGaussianBlur id="svg_430" in="SourceGraphic" stdDeviation="1"/>
  </filter>
  <filter id="svg_84_blur">
   <feGaussianBlur id="svg_438" in="SourceGraphic" stdDeviation="1"/>
  </filter>
  <filter id="svg_88_blur">
   <feGaussianBlur id="svg_446" in="SourceGraphic" stdDeviation="1"/>
  </filter>
  <filter id="svg_92_blur">
   <feGaussianBlur id="svg_454" in="SourceGraphic" stdDeviation="1"/>
  </filter>
  <filter id="svg_96_blur">
   <feGaussianBlur id="svg_462" in="SourceGraphic" stdDeviation="1"/>
  </filter>
  <filter id="svg_100_blur">
   <feGaussianBlur id="svg_470" in="SourceGraphic" stdDeviation="1"/>
  </filter>
  <filter id="svg_104_blur">
   <feGaussianBlur id="svg_478" in="SourceGraphic" stdDeviation="1"/>
  </filter>
  <filter id="svg_108_blur">
   <feGaussianBlur id="svg_486" in="SourceGraphic" stdDeviation="1"/>
  </filter>
  <filter id="svg_112_blur">
   <feGaussianBlur id="svg_494" in="SourceGraphic" stdDeviation="1"/>
  </filter>
  <filter id="svg_116_blur">
   <feGaussianBlur id="svg_502" in="SourceGraphic" stdDeviation="1"/>
  </filter>
  <filter id="svg_120_blur">
   <feGaussianBlur id="svg_510" in="SourceGraphic" stdDeviation="1"/>
  </filter>
  <filter id="svg_124_blur">
   <feGaussianBlur id="svg_518" in="SourceGraphic" stdDeviation="1"/>
  </filter>
  <filter id="svg_128_blur">
   <feGaussianBlur id="svg_526" in="SourceGraphic" stdDeviation="1"/>
  </filter>
  <filter id="svg_132_blur">
   <feGaussianBlur id="svg_534" in="SourceGraphic" stdDeviation="1"/>
  </filter>
  <filter id="svg_136_blur">
   <feGaussianBlur id="svg_542" in="SourceGraphic" stdDeviation="1"/>
  </filter>
 </defs>
</svg>