<?xml version="1.0"?>
<svg width="392" height="39" xmlns="http://www.w3.org/2000/svg" xmlns:svg="http://www.w3.org/2000/svg" enable-background="new 0 0 500 500" version="1.1" xml:space="preserve">
 <g class="layer">
  <title>Layer 1</title>
  <g id="OBJECTS">
   <g id="svg_3">
    <linearGradient id="SVGID_00000119806366200710228320000009737914217069932701_" x1="0" x2="1.87" y1="0.5" y2="0.5">
     <stop offset="0" stop-color="#FFDAA1"/>
     <stop offset="0.24" stop-color="#F0B150"/>
     <stop offset="0.5" stop-color="#FFD597"/>
     <stop offset="0.85" stop-color="#F0B150"/>
     <stop offset="1" stop-color="#B37E28"/>
    </linearGradient>
    <path d="m376.71,11.46c-1.61,2.89 -5.68,5.01 -8.54,6.21c0,0 -0.02,-0.03 -0.03,-0.03c-0.62,-0.62 -1.24,-1.24 -1.85,-1.86l-0.07,-0.07l-0.07,-0.07l-0.07,-0.07l-0.07,-0.07l-0.07,-0.06l-0.07,-0.07l-0.07,-0.07l-0.07,-0.07l-0.07,-0.07l-0.06,-0.07l-0.07,-0.07l-0.07,-0.07l-0.06,-0.05c0.78,-0.25 1.5,-0.55 2.06,-0.87c1.72,-1.01 3.1,-2.7 3.44,-4.66c0.12,-0.68 0.21,-1.24 -0.15,-1.83c-0.51,-0.88 -1.75,-0.87 -2.49,-0.28c-0.86,0.7 -1.25,1.89 -1.64,2.88c-0.52,1.35 -1.02,2.73 -2.03,3.8c-0.03,0.03 -0.05,0.04 -0.08,0.07c-0.78,-0.79 -1.57,-1.58 -2.36,-2.36l-0.06,-0.07l-0.07,-0.06l-0.07,-0.07l-0.06,-0.07l-0.07,-0.07l-0.07,-0.06l-0.07,-0.07l-0.06,-0.07l-0.07,-0.06l-0.07,-0.07c0,0 -0.06,-0.07 -0.07,-0.08c0.58,-1.04 1.06,-2.11 1.27,-3c0.46,-1.93 0.2,-4.1 -0.97,-5.71c-0.41,-0.56 -0.75,-1 -1.43,-1.16c-0.99,-0.24 -1.84,0.66 -1.92,1.6c-0.1,1.11 0.49,2.21 0.94,3.18c0.6,1.31 1.25,2.63 1.32,4.1c0.03,0.6 -0.05,1.17 -0.2,1.73l-5.66,5.66l-6.38,0c-0.01,-0.02 -0.01,-0.04 -0.02,-0.06c-0.02,-0.1 -0.05,-0.19 -0.08,-0.28c-0.03,-0.09 -0.05,-0.19 -0.09,-0.28c-0.03,-0.07 -0.05,-0.15 -0.09,-0.22c-0.02,-0.06 -0.05,-0.11 -0.08,-0.16c-0.03,-0.06 -0.06,-0.11 -0.09,-0.16c-0.03,-0.05 -0.05,-0.11 -0.08,-0.16c-0.03,-0.05 -0.06,-0.11 -0.09,-0.16c-0.03,-0.05 -0.05,-0.1 -0.09,-0.15c-0.02,-0.04 -0.05,-0.07 -0.08,-0.11c-0.03,-0.03 -0.06,-0.07 -0.09,-0.1c-1.1,-1.45 -2.96,-2.21 -4.77,-1.92c-1.84,0.3 -3.4,1.66 -3.96,3.43c-0.03,0.09 -0.06,0.18 -0.09,0.27c0,0.02 0,0.04 -0.01,0.06c0,0 -143.97,0 -143.96,0.01l-141.47,0.22c-0.02,-0.05 -0.04,-0.11 -0.06,-0.16c-0.03,-0.05 -0.06,-0.1 -0.09,-0.15c-0.02,-0.06 -0.05,-0.11 -0.08,-0.16c-0.83,-1.59 -2.52,-2.65 -4.33,-2.68c-1.8,-0.03 -3.52,0.95 -4.41,2.5c-0.03,0.06 -0.06,0.11 -0.09,0.16c-0.02,0.05 -0.06,0.11 -0.08,0.16c-0.03,0.05 -0.06,0.1 -0.09,0.16c-0.02,0.05 -0.04,0.11 -0.07,0.17l-6.58,0l-0.05,-0.04l-0.06,-0.07l-0.07,-0.07l-0.07,-0.06l-0.07,-0.07l-0.06,-0.07l-0.07,-0.06l-0.07,-0.07l-0.06,-0.07l-0.07,-0.07l-0.2,-0.2c0,0 -0.06,-0.05 -0.07,-0.06c-1.36,-1.37 -2.73,-2.73 -4.09,-4.09l-0.07,-0.07l-0.07,-0.07l-0.07,-0.07l-0.06,-0.07l-0.07,-0.07l-0.07,-0.07l-0.07,-0.07l-0.07,-0.07l-0.07,-0.06l-0.07,-0.07l-0.07,-0.07l-0.07,-0.07l-0.06,-0.07l-0.07,-0.07l-0.07,-0.07l-0.07,-0.07l-0.07,-0.07l-0.07,-0.07l-0.07,-0.06c-0.42,-0.7 -0.7,-1.46 -0.79,-2.29c-0.17,-1.46 0.25,-2.87 0.64,-4.26c0.15,-0.54 0.33,-1.13 0.42,-1.72c0.09,-0.53 0.12,-1.06 -0.01,-1.57c-0.15,-0.57 -0.58,-1.07 -1.12,-1.27c-0.32,-0.13 -0.69,-0.15 -1.05,0c-0.64,0.27 -0.9,0.76 -1.21,1.38c-0.9,1.78 -0.8,3.96 -0.03,5.8c0.51,1.2 1.61,2.69 2.75,3.91l-2.85,2.85c-0.27,-0.14 -0.54,-0.3 -0.8,-0.49c-1.17,-0.9 -1.89,-2.17 -2.63,-3.42c-0.54,-0.92 -1.12,-2.02 -2.08,-2.57c-0.83,-0.47 -2.05,-0.28 -2.42,0.67c-0.25,0.65 -0.08,1.18 0.15,1.84c0.67,1.88 2.3,3.32 4.16,4.03c0.79,0.3 1.84,0.51 2.94,0.63l-3.49,3.49c-5.93,-2.06 -8.37,-6.42 -8.37,-6.42c-1.82,4.8 -15.25,6.86 -15.25,6.86c10.09,0.56 15.4,7.7 15.4,7.7c1.61,-2.88 5.69,-5.01 8.54,-6.2l0.04,0.03l0.07,0.07l0.07,0.07l0.06,0.07l0.07,0.07l0.07,0.07l0.07,0.06c0,0 0.13,0.13 0.14,0.14c0.71,0.72 1.44,1.43 2.16,2.14c-2.45,0.66 -4.52,2.59 -5.34,4.99c-0.2,0.58 -0.33,1.21 -0.2,1.81c0.12,0.6 0.55,1.17 1.14,1.31c0.56,0.14 1.16,-0.12 1.57,-0.52c0.42,-0.4 0.69,-0.92 0.95,-1.43c0.9,-1.76 1.8,-3.52 2.69,-5.27c-0.09,0.17 2.25,2.19 2.66,2.61l0.07,0.06l0.07,0.07l0.06,0.07l0.07,0.07l0.07,0.06l0.07,0.07l0.06,0.07c0,0 0.07,0.06 0.08,0.07c-0.58,1.05 -1.06,2.12 -1.27,3c-0.47,1.94 -0.21,4.1 0.97,5.71c0.41,0.56 0.75,1.01 1.42,1.17c0.99,0.23 1.85,-0.66 1.93,-1.61c0.09,-1.1 -0.49,-2.21 -0.94,-3.18c-0.61,-1.31 -1.25,-2.62 -1.33,-4.09c-0.03,-0.6 0.06,-1.17 0.21,-1.73l5.66,-5.66l6.38,0c0,0.02 0.01,0.04 0.01,0.06c0.03,0.1 0.06,0.19 0.09,0.28c0.03,0.09 0.05,0.18 0.09,0.27c0.7,1.85 2.54,3.15 4.51,3.21c1.95,0.05 3.81,-1.09 4.65,-2.84c0.03,-0.05 0.06,-0.1 0.09,-0.15c0.03,-0.08 0.05,-0.16 0.08,-0.24c0.03,-0.09 0.06,-0.18 0.08,-0.27c0.03,-0.09 0.07,-0.18 0.09,-0.27c0,-0.02 0.01,-0.04 0.01,-0.05l148.65,-0.24l136.79,0c0.02,0.06 0.03,0.11 0.06,0.16c0.02,0.06 0.05,0.1 0.08,0.16c0.03,0.05 0.06,0.1 0.08,0.15c0.03,0.05 0.06,0.11 0.09,0.16c0.03,0.05 0.05,0.1 0.08,0.15c1.76,2.87 6.31,3.07 8.32,0.29c0.02,-0.04 0.06,-0.07 0.08,-0.1c0.04,-0.05 0.06,-0.11 0.09,-0.16c0.03,-0.05 0.05,-0.11 0.08,-0.16c0.03,-0.05 0.06,-0.1 0.09,-0.16c0.03,-0.05 0.06,-0.1 0.09,-0.15c0.02,-0.06 0.06,-0.11 0.08,-0.16c0.03,-0.06 0.05,-0.12 0.07,-0.18l6.58,0l0.05,0.05l0.07,0.06l0.07,0.07l0.06,0.07l0.07,0.07l0.07,0.06l0.06,0.07l0.07,0.07l0.07,0.06l0.06,0.07l0.21,0.2l0.06,0.07l0.07,0.07c0,0 0.07,0.06 0.07,0.07c2.07,2.07 5.68,4.4 6.05,7.54c0.17,1.46 -0.25,2.87 -0.64,4.26c-0.15,0.54 -0.33,1.13 -0.42,1.71c-0.09,0.53 -0.12,1.07 0.01,1.58c0.15,0.56 0.58,1.07 1.12,1.27c0.32,0.13 0.69,0.15 1.05,0c0.64,-0.27 0.9,-0.76 1.21,-1.38c0.9,-1.78 0.8,-3.96 0.03,-5.8c-0.51,-1.2 -1.61,-2.69 -2.75,-3.91l2.85,-2.86c0.27,0.15 0.54,0.31 0.8,0.5c1.17,0.9 1.89,2.17 2.63,3.42c0.54,0.91 1.12,2.02 2.08,2.57c0.83,0.47 2.05,0.27 2.42,-0.67c0.25,-0.65 0.08,-1.19 -0.15,-1.84c-0.67,-1.88 -2.3,-3.32 -4.16,-4.03c-0.79,-0.31 -1.84,-0.51 -2.94,-0.63l3.49,-3.49c5.93,2.05 8.37,6.41 8.37,6.41c1.82,-4.79 15.25,-6.85 15.25,-6.85c-10.08,-0.55 -15.4,-7.7 -15.4,-7.7z" fill="#000000" id="svg_67"/>
   </g>
  </g>
  <g id="DESIGNED_BY_FREEPIK">
   <g id="svg_68">
    <g id="XMLID_319_">
     <g id="XMLID_338_">
      <path d="m255.6,26.13c-0.43,0.44 -0.8,0.93 -1.1,1.45l-0.47,-0.24c-0.07,-0.3 -0.35,-0.5 -0.66,-0.47c-0.33,0.04 -0.57,0.34 -0.53,0.67c0.04,0.33 0.34,0.57 0.67,0.53c0.07,-0.01 0.13,-0.02 0.19,-0.05l0.45,0.23c-0.25,0.56 -0.43,1.14 -0.54,1.75l0.75,0.13c0.23,-1.31 0.85,-2.51 1.79,-3.47l-0.55,-0.53z" fill="#F9FBFC" id="XMLID_346_"/>
      <path d="m261.09,23.82c-0.17,0 -0.34,0.01 -0.51,0.02l-0.07,-0.62c0.19,-0.15 0.29,-0.39 0.26,-0.65c-0.04,-0.39 -0.4,-0.67 -0.79,-0.63c-0.39,0.05 -0.67,0.41 -0.63,0.8c0.03,0.25 0.19,0.46 0.41,0.56l0.07,0.63c-0.72,0.11 -1.4,0.33 -2.06,0.64l0.33,0.69c0.93,-0.45 1.94,-0.68 2.99,-0.68c0.5,0 0.99,0.06 1.48,0.16l0.16,-0.74c-0.54,-0.12 -1.09,-0.18 -1.64,-0.18z" fill="#F9FBFC" id="XMLID_345_"/>
      <path d="m267.69,26.37c0.34,-0.04 0.57,-0.34 0.53,-0.67c-0.04,-0.33 -0.34,-0.57 -0.67,-0.53c-0.31,0.04 -0.54,0.31 -0.53,0.61l-0.42,0.37c-0.42,-0.43 -0.89,-0.82 -1.41,-1.14l-0.4,0.64c1.13,0.71 2.02,1.72 2.56,2.92l0.69,-0.31c-0.25,-0.55 -0.57,-1.07 -0.94,-1.55l0.4,-0.35c0.06,0.02 0.13,0.02 0.19,0.01z" fill="#F9FBFC" id="XMLID_344_"/>
      <path d="m260.54,34.03c-0.38,0.03 -0.77,0.04 -1.15,0.04c-0.88,0 -1.74,-0.06 -2.48,-0.18c-0.39,-0.06 -0.85,-0.16 -1.27,-0.29c1.05,1.86 3.07,3.12 5.39,3.12c2.85,0 5.26,-1.91 5.95,-4.5c-0.69,0.45 -1.51,0.82 -2.46,1.12c-1.18,0.37 -2.56,0.61 -3.98,0.69z" fill="#F9FBFC" id="XMLID_343_"/>
      <path d="m261.09,25.34c-3.35,0 -6.08,2.67 -6.08,5.94c0,0.43 0.05,0.85 0.14,1.27c0.67,0.48 2.71,0.88 5.35,0.73c2.88,-0.18 5.29,-0.96 6.67,-2.16c-0.01,-0.2 -0.02,-0.39 -0.05,-0.58c-0.38,-2.97 -2.97,-5.2 -6.03,-5.2zm-2.16,6.52c-1.02,0 -1.85,-0.83 -1.85,-1.85c0,-1.02 0.83,-1.85 1.85,-1.85c1.02,0 1.85,0.83 1.85,1.85c0,1.02 -0.83,1.85 -1.85,1.85zm4.74,-0.91c-0.75,0 -1.36,-0.61 -1.36,-1.36c0,-0.75 0.61,-1.36 1.36,-1.36c0.75,0 1.36,0.61 1.36,1.36c0,0.75 -0.61,1.36 -1.36,1.36z" fill="#F9FBFC" id="XMLID_339_"/>
     </g>
     <path d="m277.1,27.21c-0.3,-0.12 -0.81,-0.31 -1.39,-0.24c-0.55,0.07 -0.84,0.34 -0.84,1.01l0,0.86l2.23,0l0,1.72l-2.23,0l0,5.46l-1.93,0l0,-5.46l-1.34,0l0,-1.72l1.34,0l0,-0.88c0,-1.68 0.89,-2.79 2.56,-2.79c0.65,0 1.16,0.13 1.59,0.31l0.01,1.73z" fill="#F9FBFC" id="XMLID_336_"/>
     <path d="m281.8,30.54c-0.18,-0.03 -0.36,-0.05 -0.53,-0.05c-0.89,0 -1.51,0.55 -1.51,1.62l0,3.91l-1.93,0l0,-7.18l1.87,0l0,0.79c0.45,-0.67 1.14,-0.98 2.02,-0.98c0.42,0 0.85,0.13 1.1,0.34l-1.02,1.55z" fill="#F9FBFC" id="XMLID_334_"/>
     <path d="m289.46,32.42c0,0.22 -0.01,0.49 -0.03,0.65l-5.09,0c0.21,1.04 0.94,1.49 1.85,1.49c0.62,0 1.29,-0.25 1.81,-0.69l1.13,1.24c-0.81,0.75 -1.85,1.09 -3.06,1.09c-2.19,0 -3.72,-1.49 -3.72,-3.75c0,-2.26 1.48,-3.8 3.63,-3.8c2.06,0 3.48,1.53 3.48,3.77zm-5.11,-0.67l3.18,0c-0.18,-0.92 -0.74,-1.43 -1.57,-1.43c-0.91,0 -1.44,0.54 -1.61,1.43z" fill="#F9FBFC" id="XMLID_331_"/>
     <path d="m297.12,32.42c0,0.22 -0.02,0.49 -0.04,0.65l-5.08,0c0.2,1.04 0.93,1.49 1.84,1.49c0.62,0 1.29,-0.25 1.81,-0.69l1.13,1.24c-0.81,0.75 -1.85,1.09 -3.05,1.09c-2.2,0 -3.73,-1.49 -3.73,-3.75c0,-2.26 1.48,-3.8 3.63,-3.8c2.07,0 3.48,1.53 3.49,3.77zm-5.12,-0.67l3.18,0c-0.18,-0.92 -0.73,-1.43 -1.56,-1.43c-0.91,0 -1.45,0.54 -1.62,1.43z" fill="#F9FBFC" id="XMLID_328_"/>
     <path d="m305.46,32.43c0,2.15 -1.49,3.77 -3.47,3.77c-0.96,0 -1.64,-0.38 -2.11,-0.93l0,3.71l-1.92,0l0,-10.14l1.89,0l0,0.79c0.46,-0.58 1.15,-0.98 2.14,-0.98c1.98,0 3.47,1.62 3.47,3.78zm-5.67,0c0,1.13 0.74,1.97 1.84,1.97c1.14,0 1.85,-0.88 1.85,-1.97c0,-1.1 -0.71,-1.98 -1.85,-1.98c-1.09,0 -1.84,0.84 -1.84,1.98z" fill="#F9FBFC" id="XMLID_325_"/>
     <path d="m308.57,26.5c0,0.69 -0.54,1.23 -1.24,1.23c-0.69,0 -1.23,-0.54 -1.23,-1.23c0,-0.7 0.54,-1.25 1.23,-1.25c0.7,0 1.24,0.55 1.24,1.25zm-0.26,9.51l-1.93,0l0,-7.17l1.93,0l0,7.17z" fill="#F9FBFC" id="XMLID_322_"/>
     <path d="m311.53,31.4l2.7,-2.56l2.37,0l-3.48,3.38l3.5,3.8l-2.37,0l-2.72,-2.91l0,2.91l-1.93,0l0,-10.66l1.93,0l0,6.04z" fill="#F9FBFC" id="XMLID_320_"/>
    </g>
    <g id="svg_69">
     <path d="m179.91,35.95l0,-1.06c-0.52,0.72 -1.39,1.23 -2.38,1.23c-1.85,0 -3.15,-1.4 -3.15,-3.7c0,-2.26 1.28,-3.72 3.15,-3.72c0.95,0 1.81,0.47 2.38,1.24l0,-3.76l1.1,0l0,9.77l-1.1,0zm0,-1.92l0,-3.21c-0.39,-0.61 -1.24,-1.14 -2.12,-1.14c-1.42,0 -2.27,1.17 -2.27,2.74c0,1.57 0.85,2.72 2.27,2.72c0.88,0 1.73,-0.49 2.12,-1.11z" fill="#F9FBFC" id="svg_70"/>
     <path d="m182.43,32.41c0,-2.06 1.47,-3.71 3.49,-3.71c2.14,0 3.4,1.67 3.4,3.79l0,0.28l-5.73,0c0.09,1.34 1.02,2.45 2.55,2.45c0.8,0 1.62,-0.32 2.18,-0.89l0.53,0.71c-0.71,0.71 -1.66,1.09 -2.82,1.09c-2.09,0 -3.6,-1.51 -3.6,-3.72zm3.47,-2.8c-1.51,0 -2.25,1.27 -2.31,2.36l4.64,0c-0.01,-1.06 -0.72,-2.36 -2.33,-2.36z" fill="#F9FBFC" id="svg_71"/>
     <path d="m190.11,35.01l0.57,-0.79c0.47,0.54 1.36,1.01 2.33,1.01c1.08,0 1.67,-0.51 1.67,-1.21c0,-1.72 -4.38,-0.66 -4.38,-3.28c0,-1.1 0.95,-2.04 2.63,-2.04c1.2,0 2.05,0.45 2.63,1.02l-0.52,0.77c-0.42,-0.52 -1.2,-0.9 -2.11,-0.9c-0.96,0 -1.56,0.48 -1.56,1.11c0,1.56 4.38,0.53 4.38,3.29c0,1.18 -0.96,2.13 -2.79,2.13c-1.15,0.01 -2.14,-0.35 -2.85,-1.11z" fill="#F9FBFC" id="svg_72"/>
     <path d="m196.98,27.13c0,-0.41 0.33,-0.75 0.73,-0.75c0.41,0 0.75,0.34 0.75,0.75c0,0.41 -0.34,0.73 -0.75,0.73c-0.4,0 -0.73,-0.32 -0.73,-0.73zm0.19,8.82l0,-7.08l1.1,0l0,7.08l-1.1,0z" fill="#F9FBFC" id="svg_73"/>
     <path d="m200.08,37.77l0.56,-0.82c0.58,0.7 1.29,0.96 2.3,0.96c1.17,0 2.27,-0.57 2.27,-2.12l0,-1.01c-0.51,0.72 -1.38,1.26 -2.37,1.26c-1.85,0 -3.15,-1.38 -3.15,-3.66c0,-2.27 1.29,-3.68 3.15,-3.68c0.95,0 1.8,0.47 2.37,1.24l0,-1.06l1.1,0l0,6.87c0,2.34 -1.64,3.07 -3.37,3.07c-1.2,0 -2.02,-0.23 -2.86,-1.05zm5.13,-3.86l0,-3.09c-0.38,-0.61 -1.23,-1.14 -2.11,-1.14c-1.42,0 -2.27,1.13 -2.27,2.69c0,1.56 0.85,2.7 2.27,2.7c0.88,0 1.73,-0.54 2.11,-1.16z" fill="#F9FBFC" id="svg_74"/>
     <path d="m212.91,35.95l0,-4.63c0,-1.24 -0.63,-1.64 -1.58,-1.64c-0.86,0 -1.68,0.53 -2.09,1.1l0,5.17l-1.1,0l0,-7.08l1.1,0l0,1.03c0.49,-0.59 1.46,-1.2 2.52,-1.2c1.48,0 2.25,0.74 2.25,2.28l0,4.97l-1.1,0z" fill="#F9FBFC" id="svg_75"/>
     <path d="m215.43,32.41c0,-2.06 1.47,-3.71 3.49,-3.71c2.14,0 3.4,1.67 3.4,3.79l0,0.28l-5.73,0c0.09,1.34 1.02,2.45 2.55,2.45c0.8,0 1.62,-0.32 2.18,-0.89l0.53,0.71c-0.71,0.71 -1.66,1.09 -2.81,1.09c-2.1,0 -3.61,-1.51 -3.61,-3.72zm3.47,-2.8c-1.5,0 -2.25,1.27 -2.31,2.36l4.64,0c-0.01,-1.06 -0.72,-2.36 -2.33,-2.36z" fill="#F9FBFC" id="svg_76"/>
     <path d="m228.85,35.95l0,-1.06c-0.53,0.72 -1.39,1.23 -2.39,1.23c-1.84,0 -3.15,-1.4 -3.15,-3.7c0,-2.26 1.29,-3.72 3.15,-3.72c0.95,0 1.82,0.47 2.39,1.24l0,-3.76l1.1,0l0,9.77l-1.1,0zm0,-1.92l0,-3.21c-0.4,-0.61 -1.25,-1.14 -2.12,-1.14c-1.42,0 -2.27,1.17 -2.27,2.74c0,1.57 0.84,2.72 2.27,2.72c0.87,0 1.72,-0.49 2.12,-1.11z" fill="#F9FBFC" id="svg_77"/>
     <path d="m235.19,35.95l0,-9.77l1.1,0l0,3.76c0.57,-0.77 1.42,-1.24 2.39,-1.24c1.84,0 3.15,1.46 3.15,3.72c0,2.3 -1.31,3.71 -3.15,3.71c-1,0 -1.86,-0.52 -2.39,-1.23l0,1.05l-1.1,0zm3.21,-0.81c1.44,0 2.29,-1.15 2.29,-2.72c0,-1.57 -0.85,-2.74 -2.29,-2.74c-0.86,0 -1.73,0.53 -2.11,1.14l0,3.21c0.38,0.62 1.25,1.11 2.11,1.11z" fill="#F9FBFC" id="svg_78"/>
     <path d="m243.03,37.72c0.16,0.08 0.42,0.12 0.6,0.12c0.48,0 0.8,-0.16 1.05,-0.75l0.47,-1.07l-2.96,-7.14l1.19,0l2.36,5.8l2.34,-5.8l1.2,0l-3.54,8.51c-0.43,1.02 -1.14,1.42 -2.08,1.43c-0.24,0 -0.6,-0.04 -0.81,-0.1l0.18,-1z" fill="#F9FBFC" id="svg_79"/>
    </g>
   </g>
  </g>
 </g>
</svg>